<svg width="1600" height="341" viewBox="0 0 1600 341" fill="none" xmlns="http://www.w3.org/2000/svg">
<g opacity="0.3">
<path d="M242 209.612V207.713C281.752 207.713 281.784 164.793 322.486 164.793C363.188 164.793 363.204 207.713 402.988 207.713C442.44 207.713 442.55 121.872 483.474 121.872C524.397 121.872 524.477 207.697 563.944 207.697C603.412 207.697 603.697 147.558 644.446 147.558C685.195 147.558 685.306 207.697 724.948 207.697C764.13 207.697 764.32 16.7876 805.529 16.7876C846.737 16.7876 846.769 207.681 885.936 207.681C925.498 207.681 925.498 121.857 966.438 121.857C1007.38 121.857 1007.38 207.681 1046.94 207.681V209.58C1006 209.58 1005.94 123.756 966.438 123.756C926.938 123.756 926.875 209.58 885.936 209.58C844.996 209.58 844.696 18.6867 805.529 18.6867C766.362 18.6867 766.156 209.596 724.948 209.596C684.135 209.596 684.088 149.457 644.446 149.457C604.804 149.457 604.709 209.596 563.944 209.596C523.179 209.596 522.957 123.772 483.474 123.772C443.99 123.772 443.911 209.612 402.988 209.612C362.064 209.612 362.286 166.692 322.486 166.692C282.686 166.692 282.702 209.612 242 209.612Z" fill="url(#paint0_linear_644_1875)" fill-opacity="0.5"/>
<path d="M242 209.612V207.729C281.8 207.729 281.832 169.857 322.502 169.857C363.172 169.857 363.14 207.713 402.988 207.713C442.55 207.713 442.55 131.969 483.49 131.969C524.429 131.969 524.508 207.697 563.944 207.697C603.38 207.697 603.728 154.601 644.446 154.601C685.164 154.601 685.338 207.697 724.948 207.681C764.146 207.681 764.368 39.2446 805.545 39.2446C846.721 39.2446 846.69 207.681 885.936 207.681C925.182 207.681 925.498 131.938 966.453 131.938C1007.41 131.938 1007.49 207.665 1046.94 207.665V209.564C1006.14 209.564 1005.91 133.837 966.453 133.837C927.002 133.837 926.796 209.564 885.936 209.58C844.553 209.58 844.933 41.1438 805.545 41.1438C766.156 41.1438 766.124 209.58 724.948 209.58C684.246 209.58 684.072 156.5 644.446 156.5C604.82 156.5 604.662 209.596 563.944 209.596C523.226 209.596 522.926 133.868 483.569 133.868C444.212 133.868 444.006 209.612 403.067 209.612C362.128 209.612 362.413 171.74 322.581 171.74C282.749 171.74 282.67 209.612 242 209.612Z" fill="url(#paint1_linear_644_1875)" fill-opacity="0.5"/>
<path d="M242 209.628V207.728C281.895 207.728 281.847 174.905 322.502 174.905C363.156 174.905 363.046 207.713 402.988 207.713C442.55 207.713 442.74 142.082 483.49 142.066C524.239 142.05 524.461 207.697 563.944 207.697C603.681 207.697 603.728 161.675 644.462 161.675C685.195 161.675 685.227 207.681 724.948 207.681C764.13 207.681 764.51 61.7017 805.56 61.7017C846.61 61.7017 846.705 207.665 885.936 207.665C925.498 207.665 925.672 142.035 966.453 142.035C1007.23 142.035 1007.38 207.649 1046.94 207.649V209.548C1006.11 209.548 1006.03 143.918 966.453 143.918C926.875 143.918 926.764 209.564 885.936 209.564C845.107 209.564 844.791 63.6008 805.56 63.6008C766.33 63.6008 765.998 209.58 724.948 209.58C684.246 209.58 684.183 163.558 644.462 163.574C604.741 163.59 604.614 209.596 563.944 209.596C523.274 209.596 522.973 143.965 483.569 143.965C444.165 143.965 443.864 209.612 403.067 209.612C362.27 209.612 362.444 176.804 322.581 176.804C302.752 176.804 293.099 184.717 282.86 193.026C272.621 201.335 262.414 209.628 242 209.628Z" fill="url(#paint2_linear_644_1875)" fill-opacity="0.5"/>
<path d="M242 209.627V207.728C281.927 207.728 281.927 179.954 322.502 179.954C363.093 179.954 363.046 207.713 402.972 207.713C442.535 207.713 442.74 152.179 483.474 152.179C524.207 152.179 524.302 207.697 563.928 207.697C603.554 207.697 603.776 168.749 644.446 168.749C685.116 168.749 685.1 207.681 724.932 207.681C764.257 207.681 764.494 84.1587 805.64 84.1587C846.785 84.1587 846.785 207.602 885.999 207.602C925.561 207.602 925.767 152.052 966.532 152.052C1007.3 152.052 1007.38 207.649 1046.94 207.649V209.548C1006.19 209.548 1006.1 154.015 966.469 154.015C926.843 154.015 926.685 209.564 885.936 209.564C844.933 209.564 844.791 86.042 805.576 86.042C766.362 86.042 766.014 209.58 724.869 209.58C684.151 209.58 684.23 170.648 644.383 170.648C604.535 170.648 604.551 209.596 563.865 209.596C523.179 209.596 523.131 154.062 483.569 154.062C444.006 154.062 443.801 209.612 403.067 209.612C362.492 209.612 362.539 181.853 322.613 181.853C282.591 181.869 282.591 209.627 242 209.627Z" fill="url(#paint3_linear_644_1875)" fill-opacity="0.5"/>
<path d="M242 209.643V207.744C281.689 207.744 282.18 185.018 322.502 185.018C327.74 185.999 338.169 182.375 363.156 196.476C372.952 201.999 383.08 207.728 402.972 207.728C442.535 207.728 442.835 162.276 483.474 162.276C524.128 162.276 524.223 207.697 563.912 207.697C603.886 207.697 603.728 175.839 644.43 175.823C685.116 175.823 684.99 207.681 724.9 207.681C764.21 207.681 764.605 106.6 805.608 106.6C846.61 106.6 846.642 207.665 885.967 207.649C925.688 207.649 925.783 162.213 966.501 162.197C1007.22 162.181 1007.22 207.633 1046.94 207.633V209.533C1006.22 209.533 1006.22 164.096 966.469 164.096C926.717 164.096 926.669 209.548 885.936 209.548C844.996 209.548 844.917 108.499 805.576 108.499C766.235 108.499 765.871 209.564 724.869 209.58C684.151 209.58 684.388 177.722 644.398 177.722C604.44 177.722 604.599 209.596 563.881 209.596C523.21 209.596 523.163 164.175 483.442 164.175C443.88 164.175 443.595 209.612 402.94 209.612C362.571 209.612 362.27 186.917 322.486 186.917C317.343 187.883 307.12 184.338 282.639 198.17C272.669 203.804 262.335 209.643 242 209.643Z" fill="url(#paint4_linear_644_1875)" fill-opacity="0.5"/>
<path d="M242 209.643V207.744C281.563 207.744 282.354 190.066 322.502 190.066C327.503 190.81 338.169 188.025 363.077 198.961C372.889 203.265 383.033 207.728 402.972 207.728C442.835 207.728 442.835 172.373 483.49 172.373C524.128 172.373 524.065 207.697 563.912 207.697C603.918 207.697 603.823 182.913 644.43 182.913C684.99 182.913 684.926 207.681 724.885 207.681C764.447 207.681 764.621 129.057 805.592 129.057C846.547 129.057 846.373 207.649 885.936 207.649C925.799 207.649 925.815 172.294 966.469 172.294C1007.12 172.294 1007.06 207.618 1046.92 207.618V209.517C1006.25 209.517 1006.33 174.193 966.469 174.193C926.669 174.161 926.669 209.532 885.936 209.548C844.981 209.548 845.155 130.956 805.592 130.956C766.03 130.956 765.84 209.564 724.885 209.564C719.868 208.535 709.17 212.429 684.198 197.062C673.96 190.731 664.291 184.796 644.414 184.796C604.425 184.796 604.504 209.596 563.897 209.596C523.242 209.596 523.321 174.272 483.474 174.272C443.611 174.272 443.611 209.612 402.956 209.627C362.871 209.627 362.175 191.966 322.518 191.966C317.311 192.741 307.152 189.94 282.575 200.733C272.606 205.117 262.288 209.643 242 209.643Z" fill="url(#paint5_linear_644_1875)" fill-opacity="0.5"/>
<path d="M242 209.659V207.76C281.721 207.76 282.401 195.099 322.502 195.099C327.851 195.669 338.058 193.628 362.998 201.43C375.84 205.88 389.368 208.023 402.956 207.76C442.946 207.76 442.867 182.439 483.474 182.439C524.033 182.439 523.938 207.665 563.881 207.665C569.071 206.89 579.247 209.691 603.823 198.882C613.809 194.498 624.127 189.956 644.414 189.956C684.483 189.956 685.148 207.634 724.837 207.634C764.4 207.634 764.779 151.483 805.545 151.483C846.231 151.483 846.294 207.602 885.857 207.602C925.862 207.602 925.783 182.359 966.39 182.28C1006.97 182.28 1006.87 207.523 1046.83 207.523V209.422C1006.27 209.422 1006.36 184.1 966.406 184.1C926.4 184.1 926.495 209.422 885.872 209.422C845.186 209.422 845.107 153.303 805.545 153.303C765.982 153.303 765.602 209.454 724.837 209.454C719.52 208.662 709.218 211.527 684.262 200.544C674.45 196.223 664.322 191.776 644.383 191.776C604.82 191.776 604.013 209.485 563.865 209.485C523.321 209.485 523.416 184.259 483.458 184.259C443.468 184.259 443.547 209.58 402.94 209.58C397.592 209.011 387.384 211.052 362.444 203.25C349.606 198.807 336.085 196.664 322.502 196.919C317.295 197.473 307.072 195.479 282.449 203.25C269.446 207.741 255.754 209.911 242 209.659Z" fill="url(#paint6_linear_644_1875)" fill-opacity="0.5"/>
<path d="M242 209.659V207.76C282.006 207.76 282.275 200.179 322.502 200.179C336.065 200.003 349.608 201.271 362.903 203.962C387.084 208.52 403.273 207.728 402.988 207.728C442.819 207.728 443.278 192.583 483.506 192.567C523.638 192.567 524.113 207.697 563.897 207.697C603.712 207.697 604.298 197.077 644.43 197.062C684.531 197.062 684.974 207.665 724.805 207.665C764.748 207.665 764.763 173.971 805.513 173.956C846.152 173.956 845.962 207.633 885.809 207.633C890.984 206.969 901.191 209.358 925.799 200.1C938.644 194.754 952.465 192.156 966.374 192.472C1006.51 192.472 1006.98 207.602 1046.77 207.602V209.501C1006.63 209.501 1006.16 194.371 966.374 194.371C926.527 194.371 926.068 209.517 885.825 209.532C845.202 209.532 845.392 175.855 805.529 175.855C755.601 175.871 770.002 226.783 684.547 204.231C660.556 197.9 644.24 198.929 644.525 198.961C604.709 198.961 604.124 209.58 563.992 209.596C558.706 208.931 548.404 211.352 523.48 201.983C510.849 196.709 497.252 194.148 483.569 194.466C443.753 194.466 443.278 209.627 403.051 209.627H402.861C362.777 209.627 362.413 202.078 322.518 202.078C282.623 202.078 282.18 209.659 242 209.659Z" fill="url(#paint7_linear_644_1875)" fill-opacity="0.5"/>
<path d="M242 209.675V207.776C286.975 207.776 305.031 202.886 362.808 206.478C450.178 211.954 455.337 196.603 523.844 205.197C575.006 211.527 601.054 204.136 644.62 204.136C684.515 204.136 684.99 207.665 724.79 207.665C764.985 207.665 765.27 196.429 805.624 196.413C810.878 196.904 821.243 195.115 846.009 202.047C890.873 214.613 920.26 202.554 966.596 202.554C1006.66 202.554 1006.87 207.586 1046.94 207.586V209.485C1002.95 209.485 984.304 199.705 926.321 206.985C849.079 216.686 853.653 198.312 805.687 198.312C765.808 198.312 765.191 209.549 724.979 209.565C681.508 209.565 661.822 202.744 604.314 207.808C538.133 213.648 529.05 204.563 483.664 204.563C434.859 204.563 438.246 213.094 362.729 208.378C305.11 204.769 285.44 209.659 242 209.675Z" fill="url(#paint8_linear_644_1875)" fill-opacity="0.5"/>
<path d="M794.008 236.769C716.735 236.769 716.244 0.961449 639.809 0.961449C563.374 0.961449 562.631 236.769 485.341 236.769C408.052 236.769 407.704 162.387 330.984 162.387C285.092 162.387 266.196 189.291 242.57 210.261L242 209.628C265.912 188.31 284.728 161.532 330.984 161.532C369.74 161.532 389.426 180.524 408.527 198.818C427.627 217.113 446.918 235.883 485.341 235.883C561.792 235.883 562.52 0.0751953 639.809 0.0751953C717.099 0.0751953 717.573 235.883 794.008 235.883C870.443 235.883 871.298 129.849 948.365 129.849C1000.59 129.849 1018 178.545 1046.92 209.659L1046.29 210.245C1017.28 179.083 1000.05 130.703 948.365 130.703C871.867 130.751 871.076 236.769 794.008 236.769Z" fill="url(#paint9_linear_644_1875)" fill-opacity="0.5"/>
<path d="M794.008 234.3C716.671 234.3 716.355 20.9495 639.809 20.9495C563.263 20.9495 562.599 234.3 485.341 234.3C408.083 234.3 407.672 167.04 330.984 167.04C285.091 167.04 266.244 191.253 242.554 210.355L242.016 209.691C265.943 190.383 284.743 166.185 330.984 166.185C369.724 166.185 389.41 183.325 408.447 199.91C427.485 216.496 446.902 233.43 485.341 233.43C561.808 233.43 562.551 20.0791 639.809 20.0791C717.067 20.0791 717.478 233.43 794.008 233.43C870.538 233.43 871.266 137.508 948.365 137.508C1000.59 137.508 1018 181.568 1046.91 209.722L1046.31 210.34C1017.33 182.169 1000.05 138.363 948.365 138.363C871.804 138.331 871.107 234.3 794.008 234.3Z" fill="url(#paint10_linear_644_1875)" fill-opacity="0.5"/>
<path d="M794.008 231.752C716.718 231.752 716.339 40.8587 639.809 40.8587C563.279 40.8587 562.583 231.752 485.341 231.752C408.099 231.752 407.624 171.613 330.984 171.613C285.392 171.613 266.861 192.836 242.538 210.371L242.031 209.675C265.895 192.456 284.759 170.743 330.984 170.743C369.723 170.743 389.394 186.094 408.415 200.923C427.437 215.752 446.902 230.993 485.341 230.993C561.807 230.993 562.567 40.0991 639.809 40.0991C717.051 40.0991 717.494 230.993 794.008 230.993C870.522 230.993 871.297 145.168 948.365 145.168C1000.59 145.168 1017.88 184.543 1046.89 209.77L1046.32 210.419C1017.33 185.192 1000.07 146.023 948.365 146.023C909.974 146.023 890.414 167.768 871.503 188.753C852.592 209.738 832.795 231.752 794.008 231.752Z" fill="url(#paint11_linear_644_1875)" fill-opacity="0.5"/>
<path d="M794.008 229.252C716.751 229.252 716.339 60.8153 639.809 60.8153C563.28 60.8153 562.694 229.252 485.341 229.252C407.989 229.252 407.609 176.155 330.984 176.155C285.329 176.155 266.703 194.941 242.522 210.355L242.063 209.627C266.086 194.339 284.791 175.285 330.984 175.285C369.708 175.285 389.379 188.816 408.4 201.92C427.422 215.024 446.887 228.381 485.341 228.381C561.871 228.381 562.536 59.9448 639.809 59.9448C717.083 59.9448 717.479 228.381 794.008 228.381C870.538 228.381 871.171 152.654 948.366 152.654C1000.59 152.654 1017.92 187.471 1046.88 209.627L1046.35 210.308C1017.38 188.104 1000.11 153.587 948.366 153.587C909.942 153.587 890.398 172.784 871.488 191.333C852.577 209.881 832.78 229.252 794.008 229.252Z" fill="url(#paint12_linear_644_1875)" fill-opacity="0.5"/>
<path d="M794.009 226.735C716.783 226.735 716.372 80.756 639.81 80.756C563.249 80.756 562.505 226.735 485.342 226.735C408.179 226.735 407.61 180.713 330.985 180.713C285.504 180.713 267.115 196.777 242.492 210.371L242.08 209.612C266.039 196.397 284.808 179.859 330.985 179.859C369.693 179.859 389.363 191.586 408.385 202.933C427.407 214.28 446.872 225.881 485.342 225.881C561.793 225.881 562.647 79.9014 639.81 79.9014C716.973 79.9014 717.448 225.881 794.009 225.881C870.571 225.881 871.267 160.25 948.366 160.25C1000.51 160.25 1017.9 190.32 1046.86 209.643L1046.37 210.355C1017.35 191.048 1000.11 161.105 948.366 161.105C871.678 161.105 871.109 226.735 794.009 226.735Z" fill="url(#paint13_linear_644_1875)" fill-opacity="0.5"/>
<path d="M794.009 224.235C716.814 224.235 716.387 100.713 639.81 100.713C563.233 100.713 562.52 224.235 485.342 224.235C408.163 224.235 407.688 185.24 330.985 185.24C286.2 185.24 268.365 198.233 242.459 210.34L242.111 209.548C266.039 198.375 284.918 184.385 330.985 184.385C369.677 184.385 389.331 194.308 408.353 203.899C427.375 213.489 446.855 223.317 485.342 223.317C561.887 223.317 562.631 99.7949 639.81 99.7949C716.988 99.7949 717.352 223.317 794.009 223.317C870.665 223.317 871.282 167.831 948.366 167.831C1000.51 167.831 1017.85 193.311 1046.83 209.612L1046.4 210.371C1017.39 194.039 1000.15 168.686 948.366 168.686C871.694 168.686 871.045 224.235 794.009 224.235Z" fill="url(#paint14_linear_644_1875)" fill-opacity="0.5"/>
<path d="M794.009 221.719C716.83 221.719 716.466 120.654 639.81 120.654C563.153 120.654 562.425 221.719 485.342 221.719C408.258 221.719 407.799 189.861 330.984 189.861C286.295 189.861 268.555 200.401 242.364 210.435L242.048 209.644C266.118 200.449 284.775 189.07 330.905 189.07C369.582 189.07 389.236 197.173 408.242 205.023C427.248 212.872 446.76 220.928 485.263 220.928C561.792 220.928 562.647 119.863 639.73 119.863C716.814 119.863 717.273 220.928 793.929 220.928C870.586 220.928 871.298 175.491 948.287 175.491C1000.38 175.491 1017.77 196.334 1046.72 209.66L1046.35 210.451C1017.25 197.046 1000.16 176.346 948.239 176.346C871.694 176.283 870.997 221.719 794.009 221.719Z" fill="url(#paint15_linear_644_1875)" fill-opacity="0.5"/>
<path d="M794.009 219.202C716.925 219.202 716.466 140.61 639.81 140.61C563.153 140.61 562.52 219.202 485.342 219.202C408.163 219.202 407.799 194.435 330.985 194.435C285.298 194.435 266.703 203.186 242.365 210.403L242.111 209.58C266.339 202.395 284.839 193.564 330.937 193.564C369.598 193.564 389.236 199.895 408.242 205.972C427.248 212.049 446.776 218.348 485.294 218.348C561.998 218.348 562.584 139.74 639.762 139.74C716.941 139.74 717.305 218.348 793.961 218.348C870.618 218.348 871.504 183.008 948.318 183.008C1000.38 183.008 1017.77 199.23 1046.72 209.58L1046.42 210.387C1017.32 199.974 1000.13 183.863 948.303 183.863C871.725 183.863 870.887 219.202 794.009 219.202Z" fill="url(#paint16_linear_644_1875)" fill-opacity="0.5"/>
<path d="M794.008 216.702C717.067 216.702 716.465 160.551 639.809 160.551C563.153 160.551 562.266 216.702 485.341 216.702C408.416 216.702 407.893 199.008 330.984 199.008C285.091 199.008 266.465 205.339 242.364 210.419L242.174 209.58C266.529 204.405 285.012 198.138 330.968 198.138C369.597 198.138 389.236 202.648 408.242 207C570.986 244.318 543.245 159.696 639.793 159.696C716.75 159.696 717.336 215.847 793.992 215.847C870.648 215.847 871.392 190.525 948.349 190.525C1000.38 190.525 1017.76 202.11 1046.7 209.517L1046.5 210.34C1017.47 202.917 1000.22 191.348 948.381 191.348C871.582 191.459 870.981 216.702 794.008 216.702Z" fill="url(#paint17_linear_644_1875)" fill-opacity="0.5"/>
<path d="M794.008 214.185C717.099 214.185 716.466 180.507 639.809 180.507C563.153 180.507 562.267 214.185 485.341 214.185C389.236 214.185 381.577 192.693 242.332 210.418L242.237 209.564C267.557 206.399 285.186 202.711 330.984 202.711C356.826 202.436 382.649 204.214 408.21 208.029C571.35 230.47 542.849 179.637 639.809 179.637C716.735 179.637 717.352 213.33 794.008 213.33C870.664 213.33 871.44 198.185 948.365 198.185C1000.37 198.185 1017.71 205.117 1046.69 209.564L1046.54 210.418C1022.71 206.747 961.563 188.895 871.266 206.604C852.292 210.339 832.637 214.185 794.008 214.185Z" fill="url(#paint18_linear_644_1875)" fill-opacity="0.5"/>
<path d="M639.809 200.449C562.995 200.449 562.267 211.685 485.341 211.685C390.027 211.685 380.659 204.548 242.301 210.419V209.564C420.285 202 465.433 219.329 562.552 205.212C613.754 197.592 665.802 197.592 717.004 205.212C824.93 220.943 876.836 198.581 1025.69 208.298C1032.3 208.726 1039.14 209.169 1046.67 209.564V210.419C1014.93 208.836 959.063 203.408 871.282 209.153C721.609 218.933 734.364 200.449 639.809 200.449Z" fill="url(#paint19_linear_644_1875)" fill-opacity="0.5"/>
<path d="M639.81 220.405C562.821 220.405 562.267 209.168 485.342 209.168C390.202 209.168 380.897 216.322 242.27 210.418V209.564C420.459 217.145 465.402 199.799 562.6 213.932C588.125 217.947 613.941 219.821 639.778 219.534C734.886 219.534 721.609 201.065 871.187 210.83C957.893 216.511 1014.51 211.194 1046.58 209.564V210.418C1014.8 212.001 959.159 217.445 871.092 211.7C726.816 202.252 730.63 220.405 639.81 220.405Z" fill="url(#paint20_linear_644_1875)" fill-opacity="0.5"/>
<path d="M639.809 240.346C562.9 240.346 562.029 206.668 485.341 206.668C389.6 206.668 381.403 228.16 242.222 210.419L242.332 209.564C267.352 212.729 285.187 216.417 330.953 216.417C356.757 216.694 382.544 214.921 408.068 211.115C571.319 188.642 543.198 239.491 639.778 239.491C716.466 239.491 717.051 205.798 793.977 205.798C832.605 205.798 852.244 209.659 871.234 213.378C922.116 223.642 974.535 223.642 1025.42 213.378C1032.06 212.081 1038.93 210.72 1046.53 209.564L1046.65 210.403C1017.71 214.85 1000.37 221.814 948.334 221.814C871.313 221.814 870.886 206.668 793.977 206.668C717.067 206.668 716.751 240.346 639.809 240.346Z" fill="url(#paint21_linear_644_1875)" fill-opacity="0.5"/>
<path d="M639.809 260.302C562.868 260.302 561.918 204.152 485.341 204.152C408.51 204.152 407.925 221.845 330.984 221.845C285.281 221.845 266.766 215.625 242.189 210.419L242.364 209.58C266.987 214.787 285.091 220.99 330.984 220.99C369.518 220.99 389.109 216.496 408.067 212.16C571.381 174.699 543.324 259.432 639.809 259.432C716.434 259.432 717.019 203.297 794.008 203.297C870.996 203.297 871.55 228.539 948.365 228.539C1000.22 228.539 1017.49 216.986 1046.48 209.548L1046.7 210.387C1017.76 217.778 1000.38 229.378 948.333 229.378C871.36 229.378 870.791 204.136 793.976 204.136C755.537 204.136 736.009 218.379 717.13 232.132C698.251 245.885 678.548 260.302 639.809 260.302Z" fill="url(#paint22_linear_644_1875)" fill-opacity="0.5"/>
<path d="M639.809 280.196C562.757 280.196 561.918 201.604 485.341 201.604C408.764 201.604 407.941 226.387 330.984 226.387C285.091 226.387 266.497 217.604 242.158 210.371L242.411 209.548C267.098 216.892 285.234 225.533 331.031 225.533C407.814 225.533 408.432 200.749 485.389 200.749C524.144 200.749 543.862 220.801 562.931 240.187C582 259.574 601.465 279.357 639.857 279.357C716.497 279.357 716.94 200.749 794.056 200.749C871.171 200.749 871.598 236.089 948.413 236.089C1000.3 236.089 1017.47 219.946 1046.53 209.548L1046.81 210.355C1017.52 220.848 1000.56 236.959 948.413 236.959C871.392 236.959 870.87 201.619 794.056 201.619C755.648 201.619 736.136 221.529 717.273 240.789C698.409 260.049 678.581 280.196 639.809 280.196Z" fill="url(#paint23_linear_644_1875)" fill-opacity="0.5"/>
<path d="M639.81 300.2C562.647 300.2 561.951 199.135 485.342 199.135C408.733 199.135 408.036 230.993 330.984 230.993C286.453 230.993 269.188 220.722 242.127 210.419L242.443 209.628C267.115 219.123 285.266 230.202 331.064 230.202C407.894 230.202 408.353 198.344 485.421 198.344C524.208 198.344 543.973 224.109 562.963 248.987C581.953 273.866 601.497 299.346 639.857 299.346C716.45 299.346 716.909 198.296 794.056 198.296C871.203 198.296 871.741 243.796 948.366 243.796C1000.18 243.796 1017.44 223.017 1046.48 209.675L1046.83 210.451C1017.87 223.792 1000.51 244.651 948.397 244.651C871.472 244.651 870.665 199.214 794.04 199.214C755.665 199.214 736.152 224.821 717.289 249.573C698.425 274.325 678.613 300.2 639.81 300.2Z" fill="url(#paint24_linear_644_1875)" fill-opacity="0.5"/>
<path d="M639.81 320.141C562.584 320.141 561.935 196.619 485.342 196.619C408.749 196.619 408.005 235.567 330.985 235.567C285.963 235.567 268.144 222.526 242.096 210.387L242.46 209.596C266.435 220.801 285.187 234.696 330.985 234.696C407.736 234.696 408.322 195.764 485.342 195.764C524.161 195.764 543.895 227.258 562.885 257.723C581.875 288.188 601.403 319.286 639.747 319.286C716.308 319.286 716.767 195.764 793.946 195.764C871.124 195.764 871.615 251.298 948.303 251.298C1000.1 251.298 1017.38 225.976 1046.42 209.612L1046.85 210.356C1017.87 226.641 1000.49 252.168 948.366 252.168C871.314 252.168 870.697 196.619 794.009 196.619C755.665 196.619 736.153 227.923 717.273 258.182C698.394 288.441 678.645 320.141 639.81 320.141Z" fill="url(#paint25_linear_644_1875)" fill-opacity="0.5"/>
<path d="M639.81 340.097C562.632 340.097 561.84 194.118 485.342 194.118C408.844 194.118 407.974 240.14 330.985 240.14C285.235 240.14 266.751 223.982 242.08 210.371L242.492 209.612C266.419 222.826 284.998 239.269 330.985 239.269C407.657 239.269 408.354 193.263 485.342 193.263C524.177 193.263 543.895 230.486 562.885 266.474C581.875 302.463 601.435 339.274 639.747 339.274C716.372 339.274 716.625 193.311 793.946 193.311C871.267 193.311 871.599 258.941 948.303 258.941C986.726 258.941 1006.29 242.308 1025.2 226.229C1031.91 220.298 1038.96 214.77 1046.32 209.675L1046.8 210.387C1017.84 229.647 1000.45 259.796 948.303 259.796C871.172 259.796 870.65 194.165 793.946 194.165C755.618 194.165 736.105 231.151 717.226 266.965C698.347 302.779 678.661 340.097 639.81 340.097Z" fill="url(#paint26_linear_644_1875)" fill-opacity="0.5"/>
</g>
<g opacity="0.3">
<path d="M-563 209.612V207.713C-523.248 207.713 -523.216 164.793 -482.514 164.793C-441.812 164.793 -441.796 207.713 -402.012 207.713C-362.56 207.713 -362.45 121.872 -321.526 121.872C-280.603 121.872 -280.523 207.697 -241.056 207.697C-201.588 207.697 -201.303 147.558 -160.554 147.558C-119.805 147.558 -119.694 207.697 -80.0522 207.697C-40.8695 207.697 -40.6796 16.7876 0.528748 16.7876C41.7371 16.7876 41.7687 207.681 80.9357 207.681C120.498 207.681 120.498 121.857 161.438 121.857C202.377 121.857 202.377 207.681 241.939 207.681V209.58C201 209.58 200.937 123.756 161.438 123.756C121.938 123.756 121.875 209.58 80.9357 209.58C39.9963 209.58 39.6957 18.6867 0.528748 18.6867C-38.6381 18.6867 -38.8439 209.596 -80.0522 209.596C-120.865 209.596 -120.912 149.457 -160.554 149.457C-200.196 149.457 -200.291 209.596 -241.056 209.596C-281.821 209.596 -282.043 123.772 -321.526 123.772C-361.01 123.772 -361.089 209.612 -402.012 209.612C-442.936 209.612 -442.714 166.692 -482.514 166.692C-522.314 166.692 -522.298 209.612 -563 209.612Z" fill="url(#paint27_linear_644_1875)" fill-opacity="0.5"/>
<path d="M-563 209.612V207.729C-523.2 207.729 -523.168 169.857 -482.498 169.857C-441.828 169.857 -441.86 207.713 -402.012 207.713C-362.45 207.713 -362.45 131.969 -321.51 131.969C-280.571 131.969 -280.492 207.697 -241.056 207.697C-201.62 207.697 -201.272 154.601 -160.554 154.601C-119.836 154.601 -119.662 207.697 -80.0522 207.681C-40.8537 207.681 -40.6321 39.2446 0.544556 39.2446C41.7213 39.2446 41.6896 207.681 80.9357 207.681C120.182 207.681 120.498 131.938 161.453 131.938C202.408 131.938 202.488 207.665 241.939 207.665V209.564C201.142 209.564 200.905 133.837 161.453 133.837C122.002 133.837 121.796 209.564 80.9357 209.58C39.5532 209.58 39.933 41.1438 0.544556 41.1438C-38.8439 41.1438 -38.8755 209.58 -80.0522 209.58C-120.754 209.58 -120.928 156.5 -160.554 156.5C-200.18 156.5 -200.338 209.596 -241.056 209.596C-281.774 209.596 -282.074 133.868 -321.431 133.868C-360.788 133.868 -360.994 209.612 -401.933 209.612C-442.872 209.612 -442.587 171.74 -482.419 171.74C-522.251 171.74 -522.33 209.612 -563 209.612Z" fill="url(#paint28_linear_644_1875)" fill-opacity="0.5"/>
<path d="M-563 209.628V207.728C-523.105 207.728 -523.153 174.905 -482.498 174.905C-441.844 174.905 -441.954 207.713 -402.012 207.713C-362.45 207.713 -362.26 142.082 -321.51 142.066C-280.761 142.05 -280.539 207.697 -241.056 207.697C-201.319 207.697 -201.272 161.675 -160.538 161.675C-119.805 161.675 -119.773 207.681 -80.0522 207.681C-40.8695 207.681 -40.4897 61.7017 0.560425 61.7017C41.6105 61.7017 41.7054 207.665 80.9357 207.665C120.498 207.665 120.672 142.035 161.453 142.035C202.234 142.035 202.377 207.649 241.939 207.649V209.548C201.111 209.548 201.032 143.918 161.453 143.918C121.875 143.918 121.764 209.564 80.9357 209.564C40.1071 209.564 39.7906 63.6008 0.560425 63.6008C-38.6698 63.6008 -39.0021 209.58 -80.0522 209.58C-120.754 209.58 -120.817 163.558 -160.538 163.574C-200.259 163.59 -200.386 209.596 -241.056 209.596C-281.726 209.596 -282.027 143.965 -321.431 143.965C-360.835 143.965 -361.136 209.612 -401.933 209.612C-442.73 209.612 -442.556 176.804 -482.419 176.804C-502.248 176.804 -511.901 184.717 -522.14 193.026C-532.379 201.335 -542.586 209.628 -563 209.628Z" fill="url(#paint29_linear_644_1875)" fill-opacity="0.5"/>
<path d="M-563 209.627V207.728C-523.073 207.728 -523.073 179.954 -482.498 179.954C-441.907 179.954 -441.954 207.713 -402.028 207.713C-362.465 207.713 -362.26 152.179 -321.526 152.179C-280.793 152.179 -280.698 207.697 -241.072 207.697C-201.446 207.697 -201.224 168.749 -160.554 168.749C-119.884 168.749 -119.9 207.681 -80.0681 207.681C-40.7429 207.681 -40.5056 84.1587 0.639526 84.1587C41.7845 84.1587 41.7845 207.602 80.9989 207.602C120.561 207.602 120.767 152.052 161.532 152.052C202.298 152.052 202.377 207.649 241.939 207.649V209.548C201.19 209.548 201.095 154.015 161.469 154.015C121.843 154.015 121.685 209.564 80.9357 209.564C39.933 209.564 39.7906 86.042 0.576233 86.042C-38.6381 86.042 -38.9863 209.58 -80.1313 209.58C-120.849 209.58 -120.77 170.648 -160.617 170.648C-200.465 170.648 -200.449 209.596 -241.135 209.596C-281.821 209.596 -281.869 154.062 -321.431 154.062C-360.994 154.062 -361.199 209.612 -401.933 209.612C-442.508 209.612 -442.461 181.853 -482.387 181.853C-522.409 181.869 -522.409 209.627 -563 209.627Z" fill="url(#paint30_linear_644_1875)" fill-opacity="0.5"/>
<path d="M-563 209.643V207.744C-523.311 207.744 -522.82 185.018 -482.498 185.018C-477.26 185.999 -466.831 182.375 -441.844 196.476C-432.048 201.999 -421.92 207.728 -402.028 207.728C-362.465 207.728 -362.165 162.276 -321.526 162.276C-280.872 162.276 -280.777 207.697 -241.088 207.697C-201.114 207.697 -201.272 175.839 -160.57 175.823C-119.884 175.823 -120.01 207.681 -80.0997 207.681C-40.7903 207.681 -40.3947 106.6 0.607849 106.6C41.6105 106.6 41.6422 207.665 80.9673 207.649C120.688 207.649 120.783 162.213 161.501 162.197C202.219 162.181 202.219 207.633 241.939 207.633V209.533C201.222 209.533 201.222 164.096 161.469 164.096C121.717 164.096 121.669 209.548 80.9357 209.548C39.9963 209.548 39.9172 108.499 0.576233 108.499C-38.7648 108.499 -39.1287 209.564 -80.1313 209.58C-120.849 209.58 -120.612 177.722 -160.602 177.722C-200.56 177.722 -200.401 209.596 -241.119 209.596C-281.79 209.596 -281.837 164.175 -321.558 164.175C-361.12 164.175 -361.405 209.612 -402.06 209.612C-442.429 209.612 -442.73 186.917 -482.514 186.917C-487.657 187.883 -497.88 184.338 -522.361 198.17C-532.331 203.804 -542.665 209.643 -563 209.643Z" fill="url(#paint31_linear_644_1875)" fill-opacity="0.5"/>
<path d="M-563 209.643V207.744C-523.437 207.744 -522.646 190.066 -482.498 190.066C-477.497 190.81 -466.831 188.025 -441.923 198.961C-432.111 203.265 -421.967 207.728 -402.028 207.728C-362.165 207.728 -362.165 172.373 -321.51 172.373C-280.872 172.373 -280.935 207.697 -241.088 207.697C-201.082 207.697 -201.177 182.913 -160.57 182.913C-120.01 182.913 -120.074 207.681 -80.1155 207.681C-40.5529 207.681 -40.3788 129.057 0.592102 129.057C41.5472 129.057 41.3732 207.649 80.9357 207.649C120.799 207.649 120.815 172.294 161.469 172.294C202.124 172.294 202.06 207.618 241.924 207.618V209.517C201.253 209.517 201.333 174.193 161.469 174.193C121.669 174.161 121.669 209.532 80.9357 209.548C39.9806 209.548 40.1547 130.956 0.592102 130.956C-38.9705 130.956 -39.1603 209.564 -80.1155 209.564C-85.132 208.535 -95.8297 212.429 -120.802 197.062C-131.04 190.731 -140.709 184.796 -160.586 184.796C-200.575 184.796 -200.496 209.596 -241.103 209.596C-281.758 209.596 -281.679 174.272 -321.526 174.272C-361.389 174.272 -361.389 209.612 -402.044 209.627C-442.129 209.627 -442.825 191.966 -482.482 191.966C-487.689 192.741 -497.848 189.94 -522.425 200.733C-532.394 205.117 -542.712 209.643 -563 209.643Z" fill="url(#paint32_linear_644_1875)" fill-opacity="0.5"/>
<path d="M-563 209.659V207.76C-523.279 207.76 -522.599 195.099 -482.498 195.099C-477.149 195.669 -466.942 193.628 -442.002 201.43C-429.16 205.88 -415.632 208.023 -402.044 207.76C-362.054 207.76 -362.133 182.439 -321.526 182.439C-280.967 182.439 -281.062 207.665 -241.119 207.665C-235.929 206.89 -225.753 209.691 -201.177 198.882C-191.191 194.498 -180.873 189.956 -160.586 189.956C-120.517 189.956 -119.852 207.634 -80.163 207.634C-40.6005 207.634 -40.2207 151.483 0.544556 151.483C41.2307 151.483 41.294 207.602 80.8566 207.602C120.862 207.602 120.783 182.359 161.39 182.28C201.965 182.28 201.87 207.523 241.829 207.523V209.422C201.269 209.422 201.364 184.1 161.406 184.1C121.4 184.1 121.495 209.422 80.8723 209.422C40.1862 209.422 40.1071 153.303 0.544556 153.303C-39.018 153.303 -39.3978 209.454 -80.163 209.454C-85.4802 208.662 -95.7823 211.527 -120.738 200.544C-130.55 196.223 -140.678 191.776 -160.617 191.776C-200.18 191.776 -200.987 209.485 -241.135 209.485C-281.679 209.485 -281.584 184.259 -321.542 184.259C-361.532 184.259 -361.453 209.58 -402.06 209.58C-407.408 209.011 -417.616 211.052 -442.556 203.25C-455.394 198.807 -468.915 196.664 -482.498 196.919C-487.705 197.473 -497.928 195.479 -522.551 203.25C-535.554 207.741 -549.246 209.911 -563 209.659Z" fill="url(#paint33_linear_644_1875)" fill-opacity="0.5"/>
<path d="M-563 209.659V207.76C-522.994 207.76 -522.725 200.179 -482.498 200.179C-468.935 200.003 -455.392 201.271 -442.097 203.962C-417.916 208.52 -401.727 207.728 -402.012 207.728C-362.181 207.728 -361.722 192.583 -321.494 192.567C-281.362 192.567 -280.887 207.697 -241.103 207.697C-201.288 207.697 -200.702 197.077 -160.57 197.062C-120.469 197.062 -120.026 207.665 -80.1946 207.665C-40.2523 207.665 -40.2365 173.971 0.512939 173.956C41.1516 173.956 40.9617 207.633 80.809 207.633C85.9838 206.969 96.191 209.358 120.799 200.1C133.644 194.754 147.465 192.156 161.374 192.472C201.506 192.472 201.981 207.602 241.765 207.602V209.501C201.633 209.501 201.158 194.371 161.374 194.371C121.527 194.371 121.068 209.517 80.8249 209.532C40.2021 209.532 40.392 175.855 0.528748 175.855C-49.3992 175.871 -34.9984 226.783 -120.453 204.231C-144.444 197.9 -160.76 198.929 -160.475 198.961C-200.291 198.961 -200.876 209.58 -241.008 209.596C-246.294 208.931 -256.596 211.352 -281.52 201.983C-294.151 196.709 -307.748 194.148 -321.431 194.466C-361.247 194.466 -361.722 209.627 -401.949 209.627H-402.139C-442.223 209.627 -442.587 202.078 -482.482 202.078C-522.377 202.078 -522.82 209.659 -563 209.659Z" fill="url(#paint34_linear_644_1875)" fill-opacity="0.5"/>
<path d="M-563 209.675V207.776C-518.025 207.776 -499.969 202.886 -442.192 206.478C-354.822 211.954 -349.663 196.603 -281.156 205.197C-229.994 211.527 -203.946 204.136 -160.38 204.136C-120.485 204.136 -120.01 207.665 -80.2105 207.665C-40.015 207.665 -39.7301 196.429 0.623718 196.413C5.87762 196.904 16.243 195.115 41.0092 202.047C85.873 214.613 115.26 202.554 161.596 202.554C201.665 202.554 201.87 207.586 241.939 207.586V209.485C197.946 209.485 179.304 199.705 121.321 206.985C44.0792 216.686 48.6526 198.312 0.686951 198.312C-39.1921 198.312 -39.8093 209.549 -80.0206 209.565C-123.492 209.565 -143.178 202.744 -200.686 207.808C-266.867 213.648 -275.95 204.563 -321.336 204.563C-370.141 204.563 -366.754 213.094 -442.271 208.378C-499.89 204.769 -519.56 209.659 -563 209.675Z" fill="url(#paint35_linear_644_1875)" fill-opacity="0.5"/>
<path d="M-10.9918 236.769C-88.2653 236.769 -88.7559 0.961449 -165.191 0.961449C-241.626 0.961449 -242.369 236.769 -319.659 236.769C-396.948 236.769 -397.296 162.387 -474.016 162.387C-519.908 162.387 -538.804 189.291 -562.43 210.261L-563 209.628C-539.088 188.31 -520.272 161.532 -474.016 161.532C-435.26 161.532 -415.574 180.524 -396.473 198.818C-377.373 217.113 -358.082 235.883 -319.659 235.883C-243.208 235.883 -242.48 0.0751953 -165.191 0.0751953C-87.9013 0.0751953 -87.4266 235.883 -10.9918 235.883C65.4431 235.883 66.2976 129.849 143.365 129.849C195.588 129.849 212.995 178.545 241.924 209.659L241.291 210.245C212.283 179.083 195.05 130.703 143.365 130.703C66.8673 130.751 66.076 236.769 -10.9918 236.769Z" fill="url(#paint36_linear_644_1875)" fill-opacity="0.5"/>
<path d="M-10.992 234.3C-88.3289 234.3 -88.6454 20.9495 -165.191 20.9495C-241.737 20.9495 -242.401 234.3 -319.659 234.3C-396.917 234.3 -397.328 167.04 -474.016 167.04C-519.909 167.04 -538.756 191.253 -562.446 210.355L-562.984 209.691C-539.057 190.383 -520.257 166.185 -474.016 166.185C-435.276 166.185 -415.59 183.325 -396.553 199.91C-377.515 216.496 -358.098 233.43 -319.659 233.43C-243.192 233.43 -242.449 20.0791 -165.191 20.0791C-87.9332 20.0791 -87.5218 233.43 -10.992 233.43C65.5378 233.43 66.2657 137.508 143.365 137.508C195.588 137.508 212.995 181.568 241.908 209.722L241.306 210.34C212.331 182.169 195.05 138.363 143.365 138.363C66.8038 138.331 66.1075 234.3 -10.992 234.3Z" fill="url(#paint37_linear_644_1875)" fill-opacity="0.5"/>
<path d="M-10.9922 231.752C-88.2816 231.752 -88.6614 40.8587 -165.191 40.8587C-241.721 40.8587 -242.417 231.752 -319.659 231.752C-396.901 231.752 -397.376 171.613 -474.016 171.613C-519.608 171.613 -538.139 192.836 -562.462 210.371L-562.969 209.675C-539.105 192.456 -520.241 170.743 -474.016 170.743C-435.277 170.743 -415.606 186.094 -396.585 200.923C-377.563 215.752 -358.098 230.993 -319.659 230.993C-243.193 230.993 -242.433 40.0991 -165.191 40.0991C-87.9492 40.0991 -87.5061 230.993 -10.9922 230.993C65.5218 230.993 66.2972 145.168 143.365 145.168C195.588 145.168 212.884 184.543 241.891 209.77L241.322 210.419C212.33 185.192 195.065 146.023 143.365 146.023C104.974 146.023 85.4138 167.768 66.5029 188.753C47.592 209.738 27.7949 231.752 -10.9922 231.752Z" fill="url(#paint38_linear_644_1875)" fill-opacity="0.5"/>
<path d="M-10.9916 229.252C-88.2493 229.252 -88.6608 60.8153 -165.191 60.8153C-241.72 60.8153 -242.306 229.252 -319.659 229.252C-397.011 229.252 -397.391 176.155 -474.016 176.155C-519.671 176.155 -538.297 194.941 -562.478 210.355L-562.937 209.627C-538.914 194.339 -520.209 175.285 -474.016 175.285C-435.292 175.285 -415.621 188.816 -396.6 201.92C-377.578 215.024 -358.113 228.381 -319.659 228.381C-243.129 228.381 -242.464 59.9448 -165.191 59.9448C-87.917 59.9448 -87.5214 228.381 -10.9916 228.381C65.5382 228.381 66.1711 152.654 143.366 152.654C195.588 152.654 212.917 187.471 241.876 209.627L241.354 210.308C212.378 188.104 195.113 153.587 143.366 153.587C104.942 153.587 85.3985 172.784 66.4876 191.333C47.5767 209.881 27.7797 229.252 -10.9916 229.252Z" fill="url(#paint39_linear_644_1875)" fill-opacity="0.5"/>
<path d="M-10.9908 226.735C-88.2169 226.735 -88.6284 80.756 -165.19 80.756C-241.751 80.756 -242.495 226.735 -319.658 226.735C-396.821 226.735 -397.39 180.713 -474.015 180.713C-519.496 180.713 -537.885 196.777 -562.508 210.371L-562.92 209.612C-538.961 196.397 -520.192 179.859 -474.015 179.859C-435.307 179.859 -415.637 191.586 -396.615 202.933C-377.593 214.28 -358.128 225.881 -319.658 225.881C-243.207 225.881 -242.353 79.9014 -165.19 79.9014C-88.027 79.9014 -87.5523 225.881 -10.9908 225.881C65.5706 225.881 66.2668 160.25 143.366 160.25C195.51 160.25 212.901 190.32 241.861 209.643L241.371 210.355C212.348 191.048 195.114 161.105 143.366 161.105C66.6783 161.105 66.1086 226.735 -10.9908 226.735Z" fill="url(#paint40_linear_644_1875)" fill-opacity="0.5"/>
<path d="M-10.9913 224.235C-88.1857 224.235 -88.6129 100.713 -165.19 100.713C-241.767 100.713 -242.48 224.235 -319.658 224.235C-396.837 224.235 -397.312 185.24 -474.015 185.24C-518.8 185.24 -536.635 198.233 -562.541 210.34L-562.889 209.548C-538.961 198.375 -520.082 184.385 -474.015 184.385C-435.323 184.385 -415.669 194.308 -396.647 203.899C-377.625 213.489 -358.145 223.317 -319.658 223.317C-243.113 223.317 -242.369 99.7949 -165.19 99.7949C-88.0116 99.7949 -87.6476 223.317 -10.9913 223.317C65.6651 223.317 66.2823 167.831 143.366 167.831C195.509 167.831 212.854 193.311 241.829 209.612L241.402 210.371C212.395 194.039 195.145 168.686 143.366 168.686C66.6938 168.686 66.0449 224.235 -10.9913 224.235Z" fill="url(#paint41_linear_644_1875)" fill-opacity="0.5"/>
<path d="M-10.9915 221.719C-88.17 221.719 -88.534 120.654 -165.19 120.654C-241.847 120.654 -242.575 221.719 -319.658 221.719C-396.742 221.719 -397.201 189.861 -474.016 189.861C-518.705 189.861 -536.445 200.401 -562.636 210.435L-562.952 209.644C-538.882 200.449 -520.225 189.07 -474.095 189.07C-435.418 189.07 -415.764 197.173 -396.758 205.023C-377.752 212.872 -358.24 220.928 -319.737 220.928C-243.208 220.928 -242.353 119.863 -165.27 119.863C-88.1859 119.863 -87.727 220.928 -11.0706 220.928C65.5858 220.928 66.2979 175.491 143.287 175.491C195.383 175.491 212.774 196.334 241.718 209.66L241.354 210.451C212.252 197.046 195.161 176.346 143.239 176.346C66.6935 176.283 65.9973 221.719 -10.9915 221.719Z" fill="url(#paint42_linear_644_1875)" fill-opacity="0.5"/>
<path d="M-10.9913 219.202C-88.0749 219.202 -88.5338 140.61 -165.19 140.61C-241.847 140.61 -242.48 219.202 -319.658 219.202C-396.837 219.202 -397.201 194.435 -474.015 194.435C-519.702 194.435 -538.297 203.186 -562.635 210.403L-562.889 209.58C-538.661 202.395 -520.161 193.564 -474.063 193.564C-435.402 193.564 -415.764 199.895 -396.758 205.972C-377.752 212.049 -358.224 218.348 -319.706 218.348C-243.002 218.348 -242.416 139.74 -165.238 139.74C-88.0591 139.74 -87.6951 218.348 -11.0387 218.348C65.6177 218.348 66.5038 183.008 143.318 183.008C195.383 183.008 212.774 199.23 241.718 209.58L241.418 210.387C212.316 199.974 195.13 183.863 143.303 183.863C66.7254 183.863 65.8867 219.202 -10.9913 219.202Z" fill="url(#paint43_linear_644_1875)" fill-opacity="0.5"/>
<path d="M-10.992 216.702C-87.9333 216.702 -88.5346 160.551 -165.191 160.551C-241.847 160.551 -242.734 216.702 -319.659 216.702C-396.584 216.702 -397.107 199.008 -474.016 199.008C-519.909 199.008 -538.535 205.339 -562.636 210.419L-562.826 209.58C-538.471 204.405 -519.988 198.138 -474.032 198.138C-435.403 198.138 -415.764 202.648 -396.758 207C-234.014 244.318 -261.755 159.696 -165.207 159.696C-88.2498 159.696 -87.6642 215.847 -11.0079 215.847C65.6485 215.847 66.3923 190.525 143.349 190.525C195.382 190.525 212.758 202.11 241.702 209.517L241.496 210.34C212.473 202.917 195.224 191.348 143.381 191.348C66.5822 191.459 65.9808 216.702 -10.992 216.702Z" fill="url(#paint44_linear_644_1875)" fill-opacity="0.5"/>
<path d="M-10.9919 214.185C-87.9014 214.185 -88.5345 180.507 -165.191 180.507C-241.847 180.507 -242.733 214.185 -319.659 214.185C-415.764 214.185 -423.423 192.693 -562.668 210.418L-562.763 209.564C-537.443 206.399 -519.814 202.711 -474.016 202.711C-448.174 202.436 -422.351 204.214 -396.79 208.029C-233.65 230.47 -262.151 179.637 -165.191 179.637C-88.2654 179.637 -87.6482 213.33 -10.9919 213.33C65.6645 213.33 66.4399 198.185 143.365 198.185C195.366 198.185 212.711 205.117 241.686 209.564L241.544 210.418C217.711 206.747 156.563 188.895 66.2658 206.604C47.2916 210.339 27.637 214.185 -10.9919 214.185Z" fill="url(#paint45_linear_644_1875)" fill-opacity="0.5"/>
<path d="M-165.191 200.449C-242.005 200.449 -242.733 211.685 -319.659 211.685C-414.973 211.685 -424.341 204.548 -562.699 210.419V209.564C-384.715 202 -339.567 219.329 -242.448 205.212C-191.246 197.592 -139.198 197.592 -87.9962 205.212C19.9304 220.943 71.8364 198.581 220.687 208.298C227.301 208.726 234.138 209.169 241.67 209.564V210.419C209.926 208.836 154.063 203.408 66.2818 209.153C-83.3912 218.933 -70.6362 200.449 -165.191 200.449Z" fill="url(#paint46_linear_644_1875)" fill-opacity="0.5"/>
<path d="M-165.19 220.405C-242.179 220.405 -242.733 209.168 -319.658 209.168C-414.798 209.168 -424.103 216.322 -562.73 210.418V209.564C-384.541 217.145 -339.598 199.799 -242.4 213.932C-216.875 217.947 -191.059 219.821 -165.222 219.534C-70.1136 219.534 -83.3907 201.065 66.1873 210.83C152.893 216.511 209.515 211.194 241.576 209.564V210.418C209.799 212.001 154.159 217.445 66.0923 211.7C-78.1843 202.252 -74.3705 220.405 -165.19 220.405Z" fill="url(#paint47_linear_644_1875)" fill-opacity="0.5"/>
<path d="M-165.191 240.346C-242.1 240.346 -242.971 206.668 -319.659 206.668C-415.4 206.668 -423.597 228.16 -562.778 210.419L-562.668 209.564C-537.648 212.729 -519.813 216.417 -474.047 216.417C-448.243 216.694 -422.456 214.921 -396.932 211.115C-233.681 188.642 -261.802 239.491 -165.222 239.491C-88.5343 239.491 -87.9488 205.798 -11.0234 205.798C27.6055 205.798 47.2443 209.659 66.2344 213.378C117.116 223.642 169.535 223.642 220.417 213.378C227.064 212.081 233.932 210.72 241.528 209.564L241.655 210.403C212.711 214.85 195.366 221.814 143.334 221.814C66.3135 221.814 65.8862 206.668 -11.0234 206.668C-87.933 206.668 -88.2494 240.346 -165.191 240.346Z" fill="url(#paint48_linear_644_1875)" fill-opacity="0.5"/>
<path d="M-165.191 260.302C-242.132 260.302 -243.082 204.152 -319.659 204.152C-396.49 204.152 -397.075 221.845 -474.016 221.845C-519.719 221.845 -538.234 215.625 -562.811 210.419L-562.636 209.58C-538.013 214.787 -519.909 220.99 -474.016 220.99C-435.482 220.99 -415.891 216.496 -396.933 212.16C-233.619 174.699 -261.676 259.432 -165.191 259.432C-88.5665 259.432 -87.981 203.297 -10.9923 203.297C65.9964 203.297 66.5503 228.539 143.365 228.539C195.224 228.539 212.489 216.986 241.48 209.548L241.701 210.387C212.758 217.778 195.382 229.378 143.333 229.378C66.3604 229.378 65.7906 204.136 -11.024 204.136C-49.463 204.136 -68.991 218.379 -87.8702 232.132C-106.749 245.885 -126.452 260.302 -165.191 260.302Z" fill="url(#paint49_linear_644_1875)" fill-opacity="0.5"/>
<path d="M-165.191 280.196C-242.243 280.196 -243.082 201.604 -319.659 201.604C-396.236 201.604 -397.059 226.387 -474.016 226.387C-519.909 226.387 -538.503 217.604 -562.842 210.371L-562.589 209.548C-537.902 216.892 -519.766 225.533 -473.969 225.533C-397.186 225.533 -396.568 200.749 -319.611 200.749C-280.856 200.749 -261.138 220.801 -242.069 240.187C-223 259.574 -203.535 279.357 -165.143 279.357C-88.5028 279.357 -88.0597 200.749 -10.9444 200.749C66.1709 200.749 66.5981 236.089 143.413 236.089C195.303 236.089 212.473 219.946 241.528 209.548L241.813 210.355C212.521 220.848 195.556 236.959 143.413 236.959C66.3925 236.959 65.8702 201.619 -10.9444 201.619C-49.3517 201.619 -68.864 221.529 -87.7274 240.789C-106.591 260.049 -126.419 280.196 -165.191 280.196Z" fill="url(#paint50_linear_644_1875)" fill-opacity="0.5"/>
<path d="M-165.19 300.2C-242.353 300.2 -243.049 199.135 -319.658 199.135C-396.267 199.135 -396.964 230.993 -474.016 230.993C-518.547 230.993 -535.812 220.722 -562.873 210.419L-562.557 209.628C-537.885 219.123 -519.734 230.202 -473.936 230.202C-397.106 230.202 -396.647 198.344 -319.579 198.344C-280.792 198.344 -261.027 224.109 -242.037 248.987C-223.047 273.866 -203.503 299.346 -165.143 299.346C-88.5498 299.346 -88.0909 198.296 -10.944 198.296C66.203 198.296 66.7411 243.796 143.366 243.796C195.177 243.796 212.442 223.017 241.481 209.675L241.829 210.451C212.869 223.792 195.509 244.651 143.397 244.651C66.472 244.651 65.6649 199.214 -10.9598 199.214C-49.3354 199.214 -68.8477 224.821 -87.7111 249.573C-106.575 274.325 -126.387 300.2 -165.19 300.2Z" fill="url(#paint51_linear_644_1875)" fill-opacity="0.5"/>
<path d="M-165.19 320.141C-242.416 320.141 -243.065 196.619 -319.658 196.619C-396.251 196.619 -396.995 235.567 -474.015 235.567C-519.037 235.567 -536.856 222.526 -562.904 210.387L-562.54 209.596C-538.565 220.801 -519.813 234.696 -474.015 234.696C-397.264 234.696 -396.678 195.764 -319.658 195.764C-280.839 195.764 -261.105 227.258 -242.115 257.723C-223.125 288.188 -203.597 319.286 -165.253 319.286C-88.6919 319.286 -88.233 195.764 -11.0544 195.764C66.1243 195.764 66.6148 251.298 143.303 251.298C195.098 251.298 212.379 225.976 241.418 209.612L241.845 210.356C212.87 226.641 195.494 252.168 143.366 252.168C66.3141 252.168 65.697 196.619 -10.991 196.619C-49.3351 196.619 -68.8474 227.923 -87.7266 258.182C-106.606 288.441 -126.355 320.141 -165.19 320.141Z" fill="url(#paint52_linear_644_1875)" fill-opacity="0.5"/>
<path d="M-165.19 340.097C-242.368 340.097 -243.16 194.118 -319.658 194.118C-396.156 194.118 -397.026 240.14 -474.015 240.14C-519.765 240.14 -538.249 223.982 -562.92 210.371L-562.508 209.612C-538.581 222.826 -520.002 239.269 -474.015 239.269C-397.343 239.269 -396.646 193.263 -319.658 193.263C-280.823 193.263 -261.105 230.486 -242.115 266.474C-223.125 302.463 -203.565 339.274 -165.253 339.274C-88.6284 339.274 -88.3752 193.311 -11.0542 193.311C66.2668 193.311 66.5991 258.941 143.303 258.941C181.726 258.941 201.286 242.308 220.197 226.229C226.905 220.298 233.96 214.77 241.323 209.675L241.798 210.387C212.838 229.647 195.446 259.796 143.303 259.796C66.1718 259.796 65.6497 194.165 -11.0542 194.165C-49.3824 194.165 -68.8946 231.151 -87.7739 266.965C-106.653 302.779 -126.339 340.097 -165.19 340.097Z" fill="url(#paint53_linear_644_1875)" fill-opacity="0.5"/>
</g>
<g opacity="0.3">
<path d="M1047 209.612V207.713C1086.75 207.713 1086.78 164.793 1127.49 164.793C1168.19 164.793 1168.2 207.713 1207.99 207.713C1247.44 207.713 1247.55 121.872 1288.47 121.872C1329.4 121.872 1329.48 207.697 1368.94 207.697C1408.41 207.697 1408.7 147.558 1449.45 147.558C1490.2 147.558 1490.31 207.697 1529.95 207.697C1569.13 207.697 1569.32 16.7876 1610.53 16.7876C1651.74 16.7876 1651.77 207.681 1690.94 207.681C1730.5 207.681 1730.5 121.857 1771.44 121.857C1812.38 121.857 1812.38 207.681 1851.94 207.681V209.58C1811 209.58 1810.94 123.756 1771.44 123.756C1731.94 123.756 1731.87 209.58 1690.94 209.58C1650 209.58 1649.7 18.6867 1610.53 18.6867C1571.36 18.6867 1571.16 209.596 1529.95 209.596C1489.14 209.596 1489.09 149.457 1449.45 149.457C1409.8 149.457 1409.71 209.596 1368.94 209.596C1328.18 209.596 1327.96 123.772 1288.47 123.772C1248.99 123.772 1248.91 209.612 1207.99 209.612C1167.06 209.612 1167.29 166.692 1127.49 166.692C1087.69 166.692 1087.7 209.612 1047 209.612Z" fill="url(#paint54_linear_644_1875)" fill-opacity="0.5"/>
<path d="M1047 209.612V207.729C1086.8 207.729 1086.83 169.857 1127.5 169.857C1168.17 169.857 1168.14 207.713 1207.99 207.713C1247.55 207.713 1247.55 131.969 1288.49 131.969C1329.43 131.969 1329.51 207.697 1368.94 207.697C1408.38 207.697 1408.73 154.601 1449.45 154.601C1490.16 154.601 1490.34 207.697 1529.95 207.681C1569.15 207.681 1569.37 39.2446 1610.54 39.2446C1651.72 39.2446 1651.69 207.681 1690.94 207.681C1730.18 207.681 1730.5 131.938 1771.45 131.938C1812.41 131.938 1812.49 207.665 1851.94 207.665V209.564C1811.14 209.564 1810.91 133.837 1771.45 133.837C1732 133.837 1731.8 209.564 1690.94 209.58C1649.55 209.58 1649.93 41.1438 1610.54 41.1438C1571.16 41.1438 1571.12 209.58 1529.95 209.58C1489.25 209.58 1489.07 156.5 1449.45 156.5C1409.82 156.5 1409.66 209.596 1368.94 209.596C1328.23 209.596 1327.93 133.868 1288.57 133.868C1249.21 133.868 1249.01 209.612 1208.07 209.612C1167.13 209.612 1167.41 171.74 1127.58 171.74C1087.75 171.74 1087.67 209.612 1047 209.612Z" fill="url(#paint55_linear_644_1875)" fill-opacity="0.5"/>
<path d="M1047 209.628V207.728C1086.89 207.728 1086.85 174.905 1127.5 174.905C1168.16 174.905 1168.05 207.713 1207.99 207.713C1247.55 207.713 1247.74 142.082 1288.49 142.066C1329.24 142.05 1329.46 207.697 1368.94 207.697C1408.68 207.697 1408.73 161.675 1449.46 161.675C1490.2 161.675 1490.23 207.681 1529.95 207.681C1569.13 207.681 1569.51 61.7017 1610.56 61.7017C1651.61 61.7017 1651.71 207.665 1690.94 207.665C1730.5 207.665 1730.67 142.035 1771.45 142.035C1812.23 142.035 1812.38 207.649 1851.94 207.649V209.548C1811.11 209.548 1811.03 143.918 1771.45 143.918C1731.88 143.918 1731.76 209.564 1690.94 209.564C1650.11 209.564 1649.79 63.6008 1610.56 63.6008C1571.33 63.6008 1571 209.58 1529.95 209.58C1489.25 209.58 1489.18 163.558 1449.46 163.574C1409.74 163.59 1409.61 209.596 1368.94 209.596C1328.27 209.596 1327.97 143.965 1288.57 143.965C1249.16 143.965 1248.86 209.612 1208.07 209.612C1167.27 209.612 1167.44 176.804 1127.58 176.804C1107.75 176.804 1098.1 184.717 1087.86 193.026C1077.62 201.335 1067.41 209.628 1047 209.628Z" fill="url(#paint56_linear_644_1875)" fill-opacity="0.5"/>
<path d="M1047 209.627V207.728C1086.93 207.728 1086.93 179.954 1127.5 179.954C1168.09 179.954 1168.05 207.713 1207.97 207.713C1247.53 207.713 1247.74 152.179 1288.47 152.179C1329.21 152.179 1329.3 207.697 1368.93 207.697C1408.55 207.697 1408.78 168.749 1449.45 168.749C1490.12 168.749 1490.1 207.681 1529.93 207.681C1569.26 207.681 1569.49 84.1587 1610.64 84.1587C1651.78 84.1587 1651.78 207.602 1691 207.602C1730.56 207.602 1730.77 152.052 1771.53 152.052C1812.3 152.052 1812.38 207.649 1851.94 207.649V209.548C1811.19 209.548 1811.1 154.015 1771.47 154.015C1731.84 154.015 1731.69 209.564 1690.94 209.564C1649.93 209.564 1649.79 86.042 1610.58 86.042C1571.36 86.042 1571.01 209.58 1529.87 209.58C1489.15 209.58 1489.23 170.648 1449.38 170.648C1409.54 170.648 1409.55 209.596 1368.86 209.596C1328.18 209.596 1328.13 154.062 1288.57 154.062C1249.01 154.062 1248.8 209.612 1208.07 209.612C1167.49 209.612 1167.54 181.853 1127.61 181.853C1087.59 181.869 1087.59 209.627 1047 209.627Z" fill="url(#paint57_linear_644_1875)" fill-opacity="0.5"/>
<path d="M1047 209.643V207.744C1086.69 207.744 1087.18 185.018 1127.5 185.018C1132.74 185.999 1143.17 182.375 1168.16 196.476C1177.95 201.999 1188.08 207.728 1207.97 207.728C1247.53 207.728 1247.84 162.276 1288.47 162.276C1329.13 162.276 1329.22 207.697 1368.91 207.697C1408.89 207.697 1408.73 175.839 1449.43 175.823C1490.12 175.823 1489.99 207.681 1529.9 207.681C1569.21 207.681 1569.61 106.6 1610.61 106.6C1651.61 106.6 1651.64 207.665 1690.97 207.649C1730.69 207.649 1730.78 162.213 1771.5 162.197C1812.22 162.181 1812.22 207.633 1851.94 207.633V209.533C1811.22 209.533 1811.22 164.096 1771.47 164.096C1731.72 164.096 1731.67 209.548 1690.94 209.548C1650 209.548 1649.92 108.499 1610.58 108.499C1571.24 108.499 1570.87 209.564 1529.87 209.58C1489.15 209.58 1489.39 177.722 1449.4 177.722C1409.44 177.722 1409.6 209.596 1368.88 209.596C1328.21 209.596 1328.16 164.175 1288.44 164.175C1248.88 164.175 1248.59 209.612 1207.94 209.612C1167.57 209.612 1167.27 186.917 1127.49 186.917C1122.34 187.883 1112.12 184.338 1087.64 198.17C1077.67 203.804 1067.34 209.643 1047 209.643Z" fill="url(#paint58_linear_644_1875)" fill-opacity="0.5"/>
<path d="M1047 209.643V207.744C1086.56 207.744 1087.35 190.066 1127.5 190.066C1132.5 190.81 1143.17 188.025 1168.08 198.961C1177.89 203.265 1188.03 207.728 1207.97 207.728C1247.84 207.728 1247.84 172.373 1288.49 172.373C1329.13 172.373 1329.07 207.697 1368.91 207.697C1408.92 207.697 1408.82 182.913 1449.43 182.913C1489.99 182.913 1489.93 207.681 1529.88 207.681C1569.45 207.681 1569.62 129.057 1610.59 129.057C1651.55 129.057 1651.37 207.649 1690.94 207.649C1730.8 207.649 1730.81 172.294 1771.47 172.294C1812.12 172.294 1812.06 207.618 1851.92 207.618V209.517C1811.25 209.517 1811.33 174.193 1771.47 174.193C1731.67 174.161 1731.67 209.532 1690.94 209.548C1649.98 209.548 1650.15 130.956 1610.59 130.956C1571.03 130.956 1570.84 209.564 1529.88 209.564C1524.87 208.535 1514.17 212.429 1489.2 197.062C1478.96 190.731 1469.29 184.796 1449.41 184.796C1409.42 184.796 1409.5 209.596 1368.9 209.596C1328.24 209.596 1328.32 174.272 1288.47 174.272C1248.61 174.272 1248.61 209.612 1207.96 209.627C1167.87 209.627 1167.18 191.966 1127.52 191.966C1122.31 192.741 1112.15 189.94 1087.58 200.733C1077.61 205.117 1067.29 209.643 1047 209.643Z" fill="url(#paint59_linear_644_1875)" fill-opacity="0.5"/>
<path d="M1047 209.659V207.76C1086.72 207.76 1087.4 195.099 1127.5 195.099C1132.85 195.669 1143.06 193.628 1168 201.43C1180.84 205.88 1194.37 208.023 1207.96 207.76C1247.95 207.76 1247.87 182.439 1288.47 182.439C1329.03 182.439 1328.94 207.665 1368.88 207.665C1374.07 206.89 1384.25 209.691 1408.82 198.882C1418.81 194.498 1429.13 189.956 1449.41 189.956C1489.48 189.956 1490.15 207.634 1529.84 207.634C1569.4 207.634 1569.78 151.483 1610.54 151.483C1651.23 151.483 1651.29 207.602 1690.86 207.602C1730.86 207.602 1730.78 182.359 1771.39 182.28C1811.97 182.28 1811.87 207.523 1851.83 207.523V209.422C1811.27 209.422 1811.36 184.1 1771.41 184.1C1731.4 184.1 1731.5 209.422 1690.87 209.422C1650.19 209.422 1650.11 153.303 1610.54 153.303C1570.98 153.303 1570.6 209.454 1529.84 209.454C1524.52 208.662 1514.22 211.527 1489.26 200.544C1479.45 196.223 1469.32 191.776 1449.38 191.776C1409.82 191.776 1409.01 209.485 1368.86 209.485C1328.32 209.485 1328.42 184.259 1288.46 184.259C1248.47 184.259 1248.55 209.58 1207.94 209.58C1202.59 209.011 1192.38 211.052 1167.44 203.25C1154.61 198.807 1141.08 196.664 1127.5 196.919C1122.3 197.473 1112.07 195.479 1087.45 203.25C1074.45 207.741 1060.75 209.911 1047 209.659Z" fill="url(#paint60_linear_644_1875)" fill-opacity="0.5"/>
<path d="M1047 209.659V207.76C1087.01 207.76 1087.27 200.179 1127.5 200.179C1141.06 200.003 1154.61 201.271 1167.9 203.962C1192.08 208.52 1208.27 207.728 1207.99 207.728C1247.82 207.728 1248.28 192.583 1288.51 192.567C1328.64 192.567 1329.11 207.697 1368.9 207.697C1408.71 207.697 1409.3 197.077 1449.43 197.062C1489.53 197.062 1489.97 207.665 1529.81 207.665C1569.75 207.665 1569.76 173.971 1610.51 173.956C1651.15 173.956 1650.96 207.633 1690.81 207.633C1695.98 206.969 1706.19 209.358 1730.8 200.1C1743.64 194.754 1757.47 192.156 1771.37 192.472C1811.51 192.472 1811.98 207.602 1851.77 207.602V209.501C1811.63 209.501 1811.16 194.371 1771.37 194.371C1731.53 194.371 1731.07 209.517 1690.82 209.532C1650.2 209.532 1650.39 175.855 1610.53 175.855C1560.6 175.871 1575 226.783 1489.55 204.231C1465.56 197.9 1449.24 198.929 1449.53 198.961C1409.71 198.961 1409.12 209.58 1368.99 209.596C1363.71 208.931 1353.4 211.352 1328.48 201.983C1315.85 196.709 1302.25 194.148 1288.57 194.466C1248.75 194.466 1248.28 209.627 1208.05 209.627H1207.86C1167.78 209.627 1167.41 202.078 1127.52 202.078C1087.62 202.078 1087.18 209.659 1047 209.659Z" fill="url(#paint61_linear_644_1875)" fill-opacity="0.5"/>
<path d="M1047 209.675V207.776C1091.97 207.776 1110.03 202.886 1167.81 206.478C1255.18 211.954 1260.34 196.603 1328.84 205.197C1380.01 211.527 1406.05 204.136 1449.62 204.136C1489.51 204.136 1489.99 207.665 1529.79 207.665C1569.99 207.665 1570.27 196.429 1610.62 196.413C1615.88 196.904 1626.24 195.115 1651.01 202.047C1695.87 214.613 1725.26 202.554 1771.6 202.554C1811.66 202.554 1811.87 207.586 1851.94 207.586V209.485C1807.95 209.485 1789.3 199.705 1731.32 206.985C1654.08 216.686 1658.65 198.312 1610.69 198.312C1570.81 198.312 1570.19 209.549 1529.98 209.565C1486.51 209.565 1466.82 202.744 1409.31 207.808C1343.13 213.648 1334.05 204.563 1288.66 204.563C1239.86 204.563 1243.25 213.094 1167.73 208.378C1110.11 204.769 1090.44 209.659 1047 209.675Z" fill="url(#paint62_linear_644_1875)" fill-opacity="0.5"/>
<path d="M1599.01 236.769C1521.73 236.769 1521.24 0.961449 1444.81 0.961449C1368.37 0.961449 1367.63 236.769 1290.34 236.769C1213.05 236.769 1212.7 162.387 1135.98 162.387C1090.09 162.387 1071.2 189.291 1047.57 210.261L1047 209.628C1070.91 188.31 1089.73 161.532 1135.98 161.532C1174.74 161.532 1194.43 180.524 1213.53 198.818C1232.63 217.113 1251.92 235.883 1290.34 235.883C1366.79 235.883 1367.52 0.0751953 1444.81 0.0751953C1522.1 0.0751953 1522.57 235.883 1599.01 235.883C1675.44 235.883 1676.3 129.849 1753.37 129.849C1805.59 129.849 1823 178.545 1851.92 209.659L1851.29 210.245C1822.28 179.083 1805.05 130.703 1753.37 130.703C1676.87 130.751 1676.08 236.769 1599.01 236.769Z" fill="url(#paint63_linear_644_1875)" fill-opacity="0.5"/>
<path d="M1599.01 234.3C1521.67 234.3 1521.35 20.9495 1444.81 20.9495C1368.26 20.9495 1367.6 234.3 1290.34 234.3C1213.08 234.3 1212.67 167.04 1135.98 167.04C1090.09 167.04 1071.24 191.253 1047.55 210.355L1047.02 209.691C1070.94 190.383 1089.74 166.185 1135.98 166.185C1174.72 166.185 1194.41 183.325 1213.45 199.91C1232.48 216.496 1251.9 233.43 1290.34 233.43C1366.81 233.43 1367.55 20.0791 1444.81 20.0791C1522.07 20.0791 1522.48 233.43 1599.01 233.43C1675.54 233.43 1676.27 137.508 1753.37 137.508C1805.59 137.508 1823 181.568 1851.91 209.722L1851.31 210.34C1822.33 182.169 1805.05 138.363 1753.37 138.363C1676.8 138.331 1676.11 234.3 1599.01 234.3Z" fill="url(#paint64_linear_644_1875)" fill-opacity="0.5"/>
<path d="M1599.01 231.752C1521.72 231.752 1521.34 40.8587 1444.81 40.8587C1368.28 40.8587 1367.58 231.752 1290.34 231.752C1213.1 231.752 1212.62 171.613 1135.98 171.613C1090.39 171.613 1071.86 192.836 1047.54 210.371L1047.03 209.675C1070.9 192.456 1089.76 170.743 1135.98 170.743C1174.72 170.743 1194.39 186.094 1213.42 200.923C1232.44 215.752 1251.9 230.993 1290.34 230.993C1366.81 230.993 1367.57 40.0991 1444.81 40.0991C1522.05 40.0991 1522.49 230.993 1599.01 230.993C1675.52 230.993 1676.3 145.168 1753.37 145.168C1805.59 145.168 1822.88 184.543 1851.89 209.77L1851.32 210.419C1822.33 185.192 1805.07 146.023 1753.37 146.023C1714.97 146.023 1695.41 167.768 1676.5 188.753C1657.59 209.738 1637.79 231.752 1599.01 231.752Z" fill="url(#paint65_linear_644_1875)" fill-opacity="0.5"/>
<path d="M1599.01 229.252C1521.75 229.252 1521.34 60.8153 1444.81 60.8153C1368.28 60.8153 1367.69 229.252 1290.34 229.252C1212.99 229.252 1212.61 176.155 1135.98 176.155C1090.33 176.155 1071.7 194.941 1047.52 210.355L1047.06 209.627C1071.09 194.339 1089.79 175.285 1135.98 175.285C1174.71 175.285 1194.38 188.816 1213.4 201.92C1232.42 215.024 1251.89 228.381 1290.34 228.381C1366.87 228.381 1367.54 59.9448 1444.81 59.9448C1522.08 59.9448 1522.48 228.381 1599.01 228.381C1675.54 228.381 1676.17 152.654 1753.37 152.654C1805.59 152.654 1822.92 187.471 1851.88 209.627L1851.35 210.308C1822.38 188.104 1805.11 153.587 1753.37 153.587C1714.94 153.587 1695.4 172.784 1676.49 191.333C1657.58 209.881 1637.78 229.252 1599.01 229.252Z" fill="url(#paint66_linear_644_1875)" fill-opacity="0.5"/>
<path d="M1599.01 226.735C1521.78 226.735 1521.37 80.756 1444.81 80.756C1368.25 80.756 1367.5 226.735 1290.34 226.735C1213.18 226.735 1212.61 180.713 1135.99 180.713C1090.5 180.713 1072.12 196.777 1047.49 210.371L1047.08 209.612C1071.04 196.397 1089.81 179.859 1135.99 179.859C1174.69 179.859 1194.36 191.586 1213.39 202.933C1232.41 214.28 1251.87 225.881 1290.34 225.881C1366.79 225.881 1367.65 79.9014 1444.81 79.9014C1521.97 79.9014 1522.45 225.881 1599.01 225.881C1675.57 225.881 1676.27 160.25 1753.37 160.25C1805.51 160.25 1822.9 190.32 1851.86 209.643L1851.37 210.355C1822.35 191.048 1805.11 161.105 1753.37 161.105C1676.68 161.105 1676.11 226.735 1599.01 226.735Z" fill="url(#paint67_linear_644_1875)" fill-opacity="0.5"/>
<path d="M1599.01 224.235C1521.81 224.235 1521.39 100.713 1444.81 100.713C1368.23 100.713 1367.52 224.235 1290.34 224.235C1213.16 224.235 1212.69 185.24 1135.98 185.24C1091.2 185.24 1073.37 198.233 1047.46 210.34L1047.11 209.548C1071.04 198.375 1089.92 184.385 1135.98 184.385C1174.68 184.385 1194.33 194.308 1213.35 203.899C1232.37 213.489 1251.86 223.317 1290.34 223.317C1366.89 223.317 1367.63 99.7949 1444.81 99.7949C1521.99 99.7949 1522.35 223.317 1599.01 223.317C1675.67 223.317 1676.28 167.831 1753.37 167.831C1805.51 167.831 1822.85 193.311 1851.83 209.612L1851.4 210.371C1822.39 194.039 1805.15 168.686 1753.37 168.686C1676.69 168.686 1676.04 224.235 1599.01 224.235Z" fill="url(#paint68_linear_644_1875)" fill-opacity="0.5"/>
<path d="M1599.01 221.719C1521.83 221.719 1521.47 120.654 1444.81 120.654C1368.15 120.654 1367.43 221.719 1290.34 221.719C1213.26 221.719 1212.8 189.861 1135.98 189.861C1091.29 189.861 1073.55 200.401 1047.36 210.435L1047.05 209.644C1071.12 200.449 1089.78 189.07 1135.91 189.07C1174.58 189.07 1194.24 197.173 1213.24 205.023C1232.25 212.872 1251.76 220.928 1290.26 220.928C1366.79 220.928 1367.65 119.863 1444.73 119.863C1521.81 119.863 1522.27 220.928 1598.93 220.928C1675.59 220.928 1676.3 175.491 1753.29 175.491C1805.38 175.491 1822.77 196.334 1851.72 209.66L1851.35 210.451C1822.25 197.046 1805.16 176.346 1753.24 176.346C1676.69 176.283 1676 221.719 1599.01 221.719Z" fill="url(#paint69_linear_644_1875)" fill-opacity="0.5"/>
<path d="M1599.01 219.202C1521.93 219.202 1521.47 140.61 1444.81 140.61C1368.15 140.61 1367.52 219.202 1290.34 219.202C1213.16 219.202 1212.8 194.435 1135.98 194.435C1090.3 194.435 1071.7 203.186 1047.36 210.403L1047.11 209.58C1071.34 202.395 1089.84 193.564 1135.94 193.564C1174.6 193.564 1194.24 199.895 1213.24 205.972C1232.25 212.049 1251.78 218.348 1290.29 218.348C1367 218.348 1367.58 139.74 1444.76 139.74C1521.94 139.74 1522.3 218.348 1598.96 218.348C1675.62 218.348 1676.5 183.008 1753.32 183.008C1805.38 183.008 1822.77 199.23 1851.72 209.58L1851.42 210.387C1822.32 199.974 1805.13 183.863 1753.3 183.863C1676.73 183.863 1675.89 219.202 1599.01 219.202Z" fill="url(#paint70_linear_644_1875)" fill-opacity="0.5"/>
<path d="M1599.01 216.702C1522.07 216.702 1521.47 160.551 1444.81 160.551C1368.15 160.551 1367.27 216.702 1290.34 216.702C1213.42 216.702 1212.89 199.008 1135.98 199.008C1090.09 199.008 1071.47 205.339 1047.36 210.419L1047.17 209.58C1071.53 204.405 1090.01 198.138 1135.97 198.138C1174.6 198.138 1194.24 202.648 1213.24 207C1375.99 244.318 1348.24 159.696 1444.79 159.696C1521.75 159.696 1522.34 215.847 1598.99 215.847C1675.65 215.847 1676.39 190.525 1753.35 190.525C1805.38 190.525 1822.76 202.11 1851.7 209.517L1851.5 210.34C1822.47 202.917 1805.22 191.348 1753.38 191.348C1676.58 191.459 1675.98 216.702 1599.01 216.702Z" fill="url(#paint71_linear_644_1875)" fill-opacity="0.5"/>
<path d="M1599.01 214.185C1522.1 214.185 1521.47 180.507 1444.81 180.507C1368.15 180.507 1367.27 214.185 1290.34 214.185C1194.24 214.185 1186.58 192.693 1047.33 210.418L1047.24 209.564C1072.56 206.399 1090.19 202.711 1135.98 202.711C1161.83 202.436 1187.65 204.214 1213.21 208.029C1376.35 230.47 1347.85 179.637 1444.81 179.637C1521.73 179.637 1522.35 213.33 1599.01 213.33C1675.66 213.33 1676.44 198.185 1753.37 198.185C1805.37 198.185 1822.71 205.117 1851.69 209.564L1851.54 210.418C1827.71 206.747 1766.56 188.895 1676.27 206.604C1657.29 210.339 1637.64 214.185 1599.01 214.185Z" fill="url(#paint72_linear_644_1875)" fill-opacity="0.5"/>
<path d="M1444.81 200.449C1367.99 200.449 1367.27 211.685 1290.34 211.685C1195.03 211.685 1185.66 204.548 1047.3 210.419V209.564C1225.28 202 1270.43 219.329 1367.55 205.212C1418.75 197.592 1470.8 197.592 1522 205.212C1629.93 220.943 1681.84 198.581 1830.69 208.298C1837.3 208.726 1844.14 209.169 1851.67 209.564V210.419C1819.93 208.836 1764.06 203.408 1676.28 209.153C1526.61 218.933 1539.36 200.449 1444.81 200.449Z" fill="url(#paint73_linear_644_1875)" fill-opacity="0.5"/>
<path d="M1444.81 220.405C1367.82 220.405 1367.27 209.168 1290.34 209.168C1195.2 209.168 1185.9 216.322 1047.27 210.418V209.564C1225.46 217.145 1270.4 199.799 1367.6 213.932C1393.12 217.947 1418.94 219.821 1444.78 219.534C1539.89 219.534 1526.61 201.065 1676.19 210.83C1762.89 216.511 1819.51 211.194 1851.58 209.564V210.418C1819.8 212.001 1764.16 217.445 1676.09 211.7C1531.82 202.252 1535.63 220.405 1444.81 220.405Z" fill="url(#paint74_linear_644_1875)" fill-opacity="0.5"/>
<path d="M1444.81 240.346C1367.9 240.346 1367.03 206.668 1290.34 206.668C1194.6 206.668 1186.4 228.16 1047.22 210.419L1047.33 209.564C1072.35 212.729 1090.19 216.417 1135.95 216.417C1161.76 216.694 1187.54 214.921 1213.07 211.115C1376.32 188.642 1348.2 239.491 1444.78 239.491C1521.47 239.491 1522.05 205.798 1598.98 205.798C1637.61 205.798 1657.24 209.659 1676.23 213.378C1727.12 223.642 1779.54 223.642 1830.42 213.378C1837.06 212.081 1843.93 210.72 1851.53 209.564L1851.65 210.403C1822.71 214.85 1805.37 221.814 1753.33 221.814C1676.31 221.814 1675.89 206.668 1598.98 206.668C1522.07 206.668 1521.75 240.346 1444.81 240.346Z" fill="url(#paint75_linear_644_1875)" fill-opacity="0.5"/>
<path d="M1444.81 260.302C1367.87 260.302 1366.92 204.152 1290.34 204.152C1213.51 204.152 1212.92 221.845 1135.98 221.845C1090.28 221.845 1071.77 215.625 1047.19 210.419L1047.36 209.58C1071.99 214.787 1090.09 220.99 1135.98 220.99C1174.52 220.99 1194.11 216.496 1213.07 212.16C1376.38 174.699 1348.32 259.432 1444.81 259.432C1521.43 259.432 1522.02 203.297 1599.01 203.297C1676 203.297 1676.55 228.539 1753.36 228.539C1805.22 228.539 1822.49 216.986 1851.48 209.548L1851.7 210.387C1822.76 217.778 1805.38 229.378 1753.33 229.378C1676.36 229.378 1675.79 204.136 1598.98 204.136C1560.54 204.136 1541.01 218.379 1522.13 232.132C1503.25 245.885 1483.55 260.302 1444.81 260.302Z" fill="url(#paint76_linear_644_1875)" fill-opacity="0.5"/>
<path d="M1444.81 280.196C1367.76 280.196 1366.92 201.604 1290.34 201.604C1213.76 201.604 1212.94 226.387 1135.98 226.387C1090.09 226.387 1071.5 217.604 1047.16 210.371L1047.41 209.548C1072.1 216.892 1090.23 225.533 1136.03 225.533C1212.81 225.533 1213.43 200.749 1290.39 200.749C1329.14 200.749 1348.86 220.801 1367.93 240.187C1387 259.574 1406.47 279.357 1444.86 279.357C1521.5 279.357 1521.94 200.749 1599.06 200.749C1676.17 200.749 1676.6 236.089 1753.41 236.089C1805.3 236.089 1822.47 219.946 1851.53 209.548L1851.81 210.355C1822.52 220.848 1805.56 236.959 1753.41 236.959C1676.39 236.959 1675.87 201.619 1599.06 201.619C1560.65 201.619 1541.14 221.529 1522.27 240.789C1503.41 260.049 1483.58 280.196 1444.81 280.196Z" fill="url(#paint77_linear_644_1875)" fill-opacity="0.5"/>
<path d="M1444.81 300.2C1367.65 300.2 1366.95 199.135 1290.34 199.135C1213.73 199.135 1213.04 230.993 1135.98 230.993C1091.45 230.993 1074.19 220.722 1047.13 210.419L1047.44 209.628C1072.11 219.123 1090.27 230.202 1136.06 230.202C1212.89 230.202 1213.35 198.344 1290.42 198.344C1329.21 198.344 1348.97 224.109 1367.96 248.987C1386.95 273.866 1406.5 299.346 1444.86 299.346C1521.45 299.346 1521.91 198.296 1599.06 198.296C1676.2 198.296 1676.74 243.796 1753.37 243.796C1805.18 243.796 1822.44 223.017 1851.48 209.675L1851.83 210.451C1822.87 223.792 1805.51 244.651 1753.4 244.651C1676.47 244.651 1675.66 199.214 1599.04 199.214C1560.66 199.214 1541.15 224.821 1522.29 249.573C1503.43 274.325 1483.61 300.2 1444.81 300.2Z" fill="url(#paint78_linear_644_1875)" fill-opacity="0.5"/>
<path d="M1444.81 320.141C1367.58 320.141 1366.94 196.619 1290.34 196.619C1213.75 196.619 1213.01 235.567 1135.98 235.567C1090.96 235.567 1073.14 222.526 1047.1 210.387L1047.46 209.596C1071.43 220.801 1090.19 234.696 1135.98 234.696C1212.74 234.696 1213.32 195.764 1290.34 195.764C1329.16 195.764 1348.89 227.258 1367.88 257.723C1386.87 288.188 1406.4 319.286 1444.75 319.286C1521.31 319.286 1521.77 195.764 1598.95 195.764C1676.12 195.764 1676.61 251.298 1753.3 251.298C1805.1 251.298 1822.38 225.976 1851.42 209.612L1851.85 210.356C1822.87 226.641 1805.49 252.168 1753.37 252.168C1676.31 252.168 1675.7 196.619 1599.01 196.619C1560.66 196.619 1541.15 227.923 1522.27 258.182C1503.39 288.441 1483.64 320.141 1444.81 320.141Z" fill="url(#paint79_linear_644_1875)" fill-opacity="0.5"/>
<path d="M1444.81 340.097C1367.63 340.097 1366.84 194.118 1290.34 194.118C1213.84 194.118 1212.97 240.14 1135.99 240.14C1090.23 240.14 1071.75 223.982 1047.08 210.371L1047.49 209.612C1071.42 222.826 1090 239.269 1135.99 239.269C1212.66 239.269 1213.35 193.263 1290.34 193.263C1329.18 193.263 1348.89 230.486 1367.88 266.474C1386.87 302.463 1406.43 339.274 1444.75 339.274C1521.37 339.274 1521.62 193.311 1598.95 193.311C1676.27 193.311 1676.6 258.941 1753.3 258.941C1791.73 258.941 1811.29 242.308 1830.2 226.229C1836.91 220.298 1843.96 214.77 1851.32 209.675L1851.8 210.387C1822.84 229.647 1805.45 259.796 1753.3 259.796C1676.17 259.796 1675.65 194.165 1598.95 194.165C1560.62 194.165 1541.11 231.151 1522.23 266.965C1503.35 302.779 1483.66 340.097 1444.81 340.097Z" fill="url(#paint80_linear_644_1875)" fill-opacity="0.5"/>
</g>
<defs>
<linearGradient id="paint0_linear_644_1875" x1="103.53" y1="240.6" x2="1291.85" y2="72.8174" gradientUnits="userSpaceOnUse">
<stop stop-color="#D844FF"/>
<stop offset="1" stop-color="#28B7FF"/>
</linearGradient>
<linearGradient id="paint1_linear_644_1875" x1="103.53" y1="236.991" x2="1285.36" y2="48.1291" gradientUnits="userSpaceOnUse">
<stop stop-color="#D844FF"/>
<stop offset="1" stop-color="#28B7FF"/>
</linearGradient>
<linearGradient id="paint2_linear_644_1875" x1="103.53" y1="233.4" x2="1275.83" y2="17.6404" gradientUnits="userSpaceOnUse">
<stop stop-color="#D844FF"/>
<stop offset="1" stop-color="#28B7FF"/>
</linearGradient>
<linearGradient id="paint3_linear_644_1875" x1="103.53" y1="229.791" x2="1261.04" y2="-21.3773" gradientUnits="userSpaceOnUse">
<stop stop-color="#D844FF"/>
<stop offset="1" stop-color="#28B7FF"/>
</linearGradient>
<linearGradient id="paint4_linear_644_1875" x1="103.53" y1="226.203" x2="1236.45" y2="-73.1311" gradientUnits="userSpaceOnUse">
<stop stop-color="#D844FF"/>
<stop offset="1" stop-color="#28B7FF"/>
</linearGradient>
<linearGradient id="paint5_linear_644_1875" x1="103.533" y1="222.594" x2="1191.36" y2="-144.915" gradientUnits="userSpaceOnUse">
<stop stop-color="#D844FF"/>
<stop offset="1" stop-color="#28B7FF"/>
</linearGradient>
<linearGradient id="paint6_linear_644_1875" x1="103.549" y1="219.031" x2="1097.84" y2="-246.059" gradientUnits="userSpaceOnUse">
<stop stop-color="#D844FF"/>
<stop offset="1" stop-color="#28B7FF"/>
</linearGradient>
<linearGradient id="paint7_linear_644_1875" x1="103.56" y1="215.785" x2="875.135" y2="-366.988" gradientUnits="userSpaceOnUse">
<stop stop-color="#D844FF"/>
<stop offset="1" stop-color="#28B7FF"/>
</linearGradient>
<linearGradient id="paint8_linear_644_1875" x1="103.53" y1="211.966" x2="339.864" y2="-268.227" gradientUnits="userSpaceOnUse">
<stop stop-color="#D844FF"/>
<stop offset="1" stop-color="#28B7FF"/>
</linearGradient>
<linearGradient id="paint9_linear_644_1875" x1="103.533" y1="274.808" x2="1299.69" y2="137.223" gradientUnits="userSpaceOnUse">
<stop stop-color="#D844FF"/>
<stop offset="1" stop-color="#28B7FF"/>
</linearGradient>
<linearGradient id="paint10_linear_644_1875" x1="103.554" y1="268.727" x2="1296.23" y2="117.158" gradientUnits="userSpaceOnUse">
<stop stop-color="#D844FF"/>
<stop offset="1" stop-color="#28B7FF"/>
</linearGradient>
<linearGradient id="paint11_linear_644_1875" x1="103.575" y1="262.553" x2="1291.5" y2="93.8172" gradientUnits="userSpaceOnUse">
<stop stop-color="#D844FF"/>
<stop offset="1" stop-color="#28B7FF"/>
</linearGradient>
<linearGradient id="paint12_linear_644_1875" x1="103.615" y1="256.461" x2="1284.9" y2="66.5333" gradientUnits="userSpaceOnUse">
<stop stop-color="#D844FF"/>
<stop offset="1" stop-color="#28B7FF"/>
</linearGradient>
<linearGradient id="paint13_linear_644_1875" x1="103.637" y1="250.333" x2="1275.15" y2="33.1568" gradientUnits="userSpaceOnUse">
<stop stop-color="#D844FF"/>
<stop offset="1" stop-color="#28B7FF"/>
</linearGradient>
<linearGradient id="paint14_linear_644_1875" x1="103.68" y1="244.233" x2="1260.03" y2="-8.68946" gradientUnits="userSpaceOnUse">
<stop stop-color="#D844FF"/>
<stop offset="1" stop-color="#28B7FF"/>
</linearGradient>
<linearGradient id="paint15_linear_644_1875" x1="103.624" y1="238.088" x2="1234.48" y2="-64.0832" gradientUnits="userSpaceOnUse">
<stop stop-color="#D844FF"/>
<stop offset="1" stop-color="#28B7FF"/>
</linearGradient>
<linearGradient id="paint16_linear_644_1875" x1="103.699" y1="231.973" x2="1188.02" y2="-139.387" gradientUnits="userSpaceOnUse">
<stop stop-color="#D844FF"/>
<stop offset="1" stop-color="#28B7FF"/>
</linearGradient>
<linearGradient id="paint17_linear_644_1875" x1="103.775" y1="225.863" x2="1090.35" y2="-245.084" gradientUnits="userSpaceOnUse">
<stop stop-color="#D844FF"/>
<stop offset="1" stop-color="#28B7FF"/>
</linearGradient>
<linearGradient id="paint18_linear_644_1875" x1="103.852" y1="219.737" x2="851.428" y2="-369.029" gradientUnits="userSpaceOnUse">
<stop stop-color="#D844FF"/>
<stop offset="1" stop-color="#28B7FF"/>
</linearGradient>
<linearGradient id="paint19_linear_644_1875" x1="103.929" y1="214.019" x2="315.342" y2="-245.718" gradientUnits="userSpaceOnUse">
<stop stop-color="#D844FF"/>
<stop offset="1" stop-color="#28B7FF"/>
</linearGradient>
<linearGradient id="paint20_linear_644_1875" x1="103.909" y1="222.401" x2="312.899" y2="-235.225" gradientUnits="userSpaceOnUse">
<stop stop-color="#D844FF"/>
<stop offset="1" stop-color="#28B7FF"/>
</linearGradient>
<linearGradient id="paint21_linear_644_1875" x1="103.839" y1="245.965" x2="858.232" y2="-341.101" gradientUnits="userSpaceOnUse">
<stop stop-color="#D844FF"/>
<stop offset="1" stop-color="#28B7FF"/>
</linearGradient>
<linearGradient id="paint22_linear_644_1875" x1="103.793" y1="269.575" x2="1094.77" y2="-197.756" gradientUnits="userSpaceOnUse">
<stop stop-color="#D844FF"/>
<stop offset="1" stop-color="#28B7FF"/>
</linearGradient>
<linearGradient id="paint23_linear_644_1875" x1="103.737" y1="292.963" x2="1188.07" y2="-78.4938" gradientUnits="userSpaceOnUse">
<stop stop-color="#D844FF"/>
<stop offset="1" stop-color="#28B7FF"/>
</linearGradient>
<linearGradient id="paint24_linear_644_1875" x1="103.698" y1="316.577" x2="1234.67" y2="14.5055" gradientUnits="userSpaceOnUse">
<stop stop-color="#D844FF"/>
<stop offset="1" stop-color="#28B7FF"/>
</linearGradient>
<linearGradient id="paint25_linear_644_1875" x1="103.658" y1="340.129" x2="1260" y2="87.0703" gradientUnits="userSpaceOnUse">
<stop stop-color="#D844FF"/>
<stop offset="1" stop-color="#28B7FF"/>
</linearGradient>
<linearGradient id="paint26_linear_644_1875" x1="103.648" y1="363.694" x2="1275.07" y2="146.552" gradientUnits="userSpaceOnUse">
<stop stop-color="#D844FF"/>
<stop offset="1" stop-color="#28B7FF"/>
</linearGradient>
<linearGradient id="paint27_linear_644_1875" x1="-701.47" y1="240.6" x2="486.847" y2="72.8174" gradientUnits="userSpaceOnUse">
<stop stop-color="#D844FF"/>
<stop offset="1" stop-color="#28B7FF"/>
</linearGradient>
<linearGradient id="paint28_linear_644_1875" x1="-701.47" y1="236.991" x2="480.356" y2="48.1291" gradientUnits="userSpaceOnUse">
<stop stop-color="#D844FF"/>
<stop offset="1" stop-color="#28B7FF"/>
</linearGradient>
<linearGradient id="paint29_linear_644_1875" x1="-701.47" y1="233.4" x2="470.827" y2="17.6404" gradientUnits="userSpaceOnUse">
<stop stop-color="#D844FF"/>
<stop offset="1" stop-color="#28B7FF"/>
</linearGradient>
<linearGradient id="paint30_linear_644_1875" x1="-701.47" y1="229.791" x2="456.036" y2="-21.3773" gradientUnits="userSpaceOnUse">
<stop stop-color="#D844FF"/>
<stop offset="1" stop-color="#28B7FF"/>
</linearGradient>
<linearGradient id="paint31_linear_644_1875" x1="-701.47" y1="226.203" x2="431.448" y2="-73.1311" gradientUnits="userSpaceOnUse">
<stop stop-color="#D844FF"/>
<stop offset="1" stop-color="#28B7FF"/>
</linearGradient>
<linearGradient id="paint32_linear_644_1875" x1="-701.467" y1="222.594" x2="386.358" y2="-144.915" gradientUnits="userSpaceOnUse">
<stop stop-color="#D844FF"/>
<stop offset="1" stop-color="#28B7FF"/>
</linearGradient>
<linearGradient id="paint33_linear_644_1875" x1="-701.451" y1="219.031" x2="292.838" y2="-246.059" gradientUnits="userSpaceOnUse">
<stop stop-color="#D844FF"/>
<stop offset="1" stop-color="#28B7FF"/>
</linearGradient>
<linearGradient id="paint34_linear_644_1875" x1="-701.44" y1="215.785" x2="70.1348" y2="-366.988" gradientUnits="userSpaceOnUse">
<stop stop-color="#D844FF"/>
<stop offset="1" stop-color="#28B7FF"/>
</linearGradient>
<linearGradient id="paint35_linear_644_1875" x1="-701.47" y1="211.966" x2="-465.136" y2="-268.227" gradientUnits="userSpaceOnUse">
<stop stop-color="#D844FF"/>
<stop offset="1" stop-color="#28B7FF"/>
</linearGradient>
<linearGradient id="paint36_linear_644_1875" x1="-701.467" y1="274.808" x2="494.691" y2="137.223" gradientUnits="userSpaceOnUse">
<stop stop-color="#D844FF"/>
<stop offset="1" stop-color="#28B7FF"/>
</linearGradient>
<linearGradient id="paint37_linear_644_1875" x1="-701.446" y1="268.727" x2="491.228" y2="117.158" gradientUnits="userSpaceOnUse">
<stop stop-color="#D844FF"/>
<stop offset="1" stop-color="#28B7FF"/>
</linearGradient>
<linearGradient id="paint38_linear_644_1875" x1="-701.425" y1="262.553" x2="486.495" y2="93.8172" gradientUnits="userSpaceOnUse">
<stop stop-color="#D844FF"/>
<stop offset="1" stop-color="#28B7FF"/>
</linearGradient>
<linearGradient id="paint39_linear_644_1875" x1="-701.385" y1="256.461" x2="479.895" y2="66.5333" gradientUnits="userSpaceOnUse">
<stop stop-color="#D844FF"/>
<stop offset="1" stop-color="#28B7FF"/>
</linearGradient>
<linearGradient id="paint40_linear_644_1875" x1="-701.363" y1="250.333" x2="470.146" y2="33.1568" gradientUnits="userSpaceOnUse">
<stop stop-color="#D844FF"/>
<stop offset="1" stop-color="#28B7FF"/>
</linearGradient>
<linearGradient id="paint41_linear_644_1875" x1="-701.32" y1="244.233" x2="455.033" y2="-8.68946" gradientUnits="userSpaceOnUse">
<stop stop-color="#D844FF"/>
<stop offset="1" stop-color="#28B7FF"/>
</linearGradient>
<linearGradient id="paint42_linear_644_1875" x1="-701.376" y1="238.088" x2="429.485" y2="-64.0832" gradientUnits="userSpaceOnUse">
<stop stop-color="#D844FF"/>
<stop offset="1" stop-color="#28B7FF"/>
</linearGradient>
<linearGradient id="paint43_linear_644_1875" x1="-701.301" y1="231.973" x2="383.022" y2="-139.387" gradientUnits="userSpaceOnUse">
<stop stop-color="#D844FF"/>
<stop offset="1" stop-color="#28B7FF"/>
</linearGradient>
<linearGradient id="paint44_linear_644_1875" x1="-701.225" y1="225.863" x2="285.355" y2="-245.084" gradientUnits="userSpaceOnUse">
<stop stop-color="#D844FF"/>
<stop offset="1" stop-color="#28B7FF"/>
</linearGradient>
<linearGradient id="paint45_linear_644_1875" x1="-701.148" y1="219.737" x2="46.4279" y2="-369.029" gradientUnits="userSpaceOnUse">
<stop stop-color="#D844FF"/>
<stop offset="1" stop-color="#28B7FF"/>
</linearGradient>
<linearGradient id="paint46_linear_644_1875" x1="-701.071" y1="214.019" x2="-489.658" y2="-245.718" gradientUnits="userSpaceOnUse">
<stop stop-color="#D844FF"/>
<stop offset="1" stop-color="#28B7FF"/>
</linearGradient>
<linearGradient id="paint47_linear_644_1875" x1="-701.091" y1="222.401" x2="-492.101" y2="-235.225" gradientUnits="userSpaceOnUse">
<stop stop-color="#D844FF"/>
<stop offset="1" stop-color="#28B7FF"/>
</linearGradient>
<linearGradient id="paint48_linear_644_1875" x1="-701.161" y1="245.965" x2="53.2318" y2="-341.101" gradientUnits="userSpaceOnUse">
<stop stop-color="#D844FF"/>
<stop offset="1" stop-color="#28B7FF"/>
</linearGradient>
<linearGradient id="paint49_linear_644_1875" x1="-701.207" y1="269.575" x2="289.769" y2="-197.756" gradientUnits="userSpaceOnUse">
<stop stop-color="#D844FF"/>
<stop offset="1" stop-color="#28B7FF"/>
</linearGradient>
<linearGradient id="paint50_linear_644_1875" x1="-701.263" y1="292.963" x2="383.066" y2="-78.4938" gradientUnits="userSpaceOnUse">
<stop stop-color="#D844FF"/>
<stop offset="1" stop-color="#28B7FF"/>
</linearGradient>
<linearGradient id="paint51_linear_644_1875" x1="-701.302" y1="316.577" x2="429.667" y2="14.5055" gradientUnits="userSpaceOnUse">
<stop stop-color="#D844FF"/>
<stop offset="1" stop-color="#28B7FF"/>
</linearGradient>
<linearGradient id="paint52_linear_644_1875" x1="-701.342" y1="340.129" x2="454.999" y2="87.0703" gradientUnits="userSpaceOnUse">
<stop stop-color="#D844FF"/>
<stop offset="1" stop-color="#28B7FF"/>
</linearGradient>
<linearGradient id="paint53_linear_644_1875" x1="-701.352" y1="363.694" x2="470.071" y2="146.552" gradientUnits="userSpaceOnUse">
<stop stop-color="#D844FF"/>
<stop offset="1" stop-color="#28B7FF"/>
</linearGradient>
<linearGradient id="paint54_linear_644_1875" x1="908.53" y1="240.6" x2="2096.85" y2="72.8174" gradientUnits="userSpaceOnUse">
<stop stop-color="#D844FF"/>
<stop offset="1" stop-color="#28B7FF"/>
</linearGradient>
<linearGradient id="paint55_linear_644_1875" x1="908.53" y1="236.991" x2="2090.36" y2="48.1291" gradientUnits="userSpaceOnUse">
<stop stop-color="#D844FF"/>
<stop offset="1" stop-color="#28B7FF"/>
</linearGradient>
<linearGradient id="paint56_linear_644_1875" x1="908.53" y1="233.4" x2="2080.83" y2="17.6404" gradientUnits="userSpaceOnUse">
<stop stop-color="#D844FF"/>
<stop offset="1" stop-color="#28B7FF"/>
</linearGradient>
<linearGradient id="paint57_linear_644_1875" x1="908.53" y1="229.791" x2="2066.04" y2="-21.3773" gradientUnits="userSpaceOnUse">
<stop stop-color="#D844FF"/>
<stop offset="1" stop-color="#28B7FF"/>
</linearGradient>
<linearGradient id="paint58_linear_644_1875" x1="908.53" y1="226.203" x2="2041.45" y2="-73.1311" gradientUnits="userSpaceOnUse">
<stop stop-color="#D844FF"/>
<stop offset="1" stop-color="#28B7FF"/>
</linearGradient>
<linearGradient id="paint59_linear_644_1875" x1="908.533" y1="222.594" x2="1996.36" y2="-144.915" gradientUnits="userSpaceOnUse">
<stop stop-color="#D844FF"/>
<stop offset="1" stop-color="#28B7FF"/>
</linearGradient>
<linearGradient id="paint60_linear_644_1875" x1="908.549" y1="219.031" x2="1902.84" y2="-246.059" gradientUnits="userSpaceOnUse">
<stop stop-color="#D844FF"/>
<stop offset="1" stop-color="#28B7FF"/>
</linearGradient>
<linearGradient id="paint61_linear_644_1875" x1="908.56" y1="215.785" x2="1680.13" y2="-366.988" gradientUnits="userSpaceOnUse">
<stop stop-color="#D844FF"/>
<stop offset="1" stop-color="#28B7FF"/>
</linearGradient>
<linearGradient id="paint62_linear_644_1875" x1="908.53" y1="211.966" x2="1144.86" y2="-268.227" gradientUnits="userSpaceOnUse">
<stop stop-color="#D844FF"/>
<stop offset="1" stop-color="#28B7FF"/>
</linearGradient>
<linearGradient id="paint63_linear_644_1875" x1="908.533" y1="274.808" x2="2104.69" y2="137.223" gradientUnits="userSpaceOnUse">
<stop stop-color="#D844FF"/>
<stop offset="1" stop-color="#28B7FF"/>
</linearGradient>
<linearGradient id="paint64_linear_644_1875" x1="908.554" y1="268.727" x2="2101.23" y2="117.158" gradientUnits="userSpaceOnUse">
<stop stop-color="#D844FF"/>
<stop offset="1" stop-color="#28B7FF"/>
</linearGradient>
<linearGradient id="paint65_linear_644_1875" x1="908.575" y1="262.553" x2="2096.5" y2="93.8172" gradientUnits="userSpaceOnUse">
<stop stop-color="#D844FF"/>
<stop offset="1" stop-color="#28B7FF"/>
</linearGradient>
<linearGradient id="paint66_linear_644_1875" x1="908.615" y1="256.461" x2="2089.9" y2="66.5333" gradientUnits="userSpaceOnUse">
<stop stop-color="#D844FF"/>
<stop offset="1" stop-color="#28B7FF"/>
</linearGradient>
<linearGradient id="paint67_linear_644_1875" x1="908.637" y1="250.333" x2="2080.15" y2="33.1568" gradientUnits="userSpaceOnUse">
<stop stop-color="#D844FF"/>
<stop offset="1" stop-color="#28B7FF"/>
</linearGradient>
<linearGradient id="paint68_linear_644_1875" x1="908.68" y1="244.233" x2="2065.03" y2="-8.68946" gradientUnits="userSpaceOnUse">
<stop stop-color="#D844FF"/>
<stop offset="1" stop-color="#28B7FF"/>
</linearGradient>
<linearGradient id="paint69_linear_644_1875" x1="908.624" y1="238.088" x2="2039.48" y2="-64.0832" gradientUnits="userSpaceOnUse">
<stop stop-color="#D844FF"/>
<stop offset="1" stop-color="#28B7FF"/>
</linearGradient>
<linearGradient id="paint70_linear_644_1875" x1="908.699" y1="231.973" x2="1993.02" y2="-139.387" gradientUnits="userSpaceOnUse">
<stop stop-color="#D844FF"/>
<stop offset="1" stop-color="#28B7FF"/>
</linearGradient>
<linearGradient id="paint71_linear_644_1875" x1="908.775" y1="225.863" x2="1895.35" y2="-245.084" gradientUnits="userSpaceOnUse">
<stop stop-color="#D844FF"/>
<stop offset="1" stop-color="#28B7FF"/>
</linearGradient>
<linearGradient id="paint72_linear_644_1875" x1="908.852" y1="219.737" x2="1656.43" y2="-369.029" gradientUnits="userSpaceOnUse">
<stop stop-color="#D844FF"/>
<stop offset="1" stop-color="#28B7FF"/>
</linearGradient>
<linearGradient id="paint73_linear_644_1875" x1="908.929" y1="214.019" x2="1120.34" y2="-245.718" gradientUnits="userSpaceOnUse">
<stop stop-color="#D844FF"/>
<stop offset="1" stop-color="#28B7FF"/>
</linearGradient>
<linearGradient id="paint74_linear_644_1875" x1="908.909" y1="222.401" x2="1117.9" y2="-235.225" gradientUnits="userSpaceOnUse">
<stop stop-color="#D844FF"/>
<stop offset="1" stop-color="#28B7FF"/>
</linearGradient>
<linearGradient id="paint75_linear_644_1875" x1="908.839" y1="245.965" x2="1663.23" y2="-341.101" gradientUnits="userSpaceOnUse">
<stop stop-color="#D844FF"/>
<stop offset="1" stop-color="#28B7FF"/>
</linearGradient>
<linearGradient id="paint76_linear_644_1875" x1="908.793" y1="269.575" x2="1899.77" y2="-197.756" gradientUnits="userSpaceOnUse">
<stop stop-color="#D844FF"/>
<stop offset="1" stop-color="#28B7FF"/>
</linearGradient>
<linearGradient id="paint77_linear_644_1875" x1="908.737" y1="292.963" x2="1993.07" y2="-78.4938" gradientUnits="userSpaceOnUse">
<stop stop-color="#D844FF"/>
<stop offset="1" stop-color="#28B7FF"/>
</linearGradient>
<linearGradient id="paint78_linear_644_1875" x1="908.698" y1="316.577" x2="2039.67" y2="14.5055" gradientUnits="userSpaceOnUse">
<stop stop-color="#D844FF"/>
<stop offset="1" stop-color="#28B7FF"/>
</linearGradient>
<linearGradient id="paint79_linear_644_1875" x1="908.658" y1="340.129" x2="2065" y2="87.0703" gradientUnits="userSpaceOnUse">
<stop stop-color="#D844FF"/>
<stop offset="1" stop-color="#28B7FF"/>
</linearGradient>
<linearGradient id="paint80_linear_644_1875" x1="908.648" y1="363.694" x2="2080.07" y2="146.552" gradientUnits="userSpaceOnUse">
<stop stop-color="#D844FF"/>
<stop offset="1" stop-color="#28B7FF"/>
</linearGradient>
</defs>
</svg>
