<svg width="788" height="427" viewBox="0 0 788 427" fill="none" xmlns="http://www.w3.org/2000/svg">
<g opacity="0.5">
<path d="M-220 262.996V260.617C-170.219 260.617 -170.18 206.854 -119.21 206.854C-68.2402 206.854 -68.2203 260.617 -18.4 260.617C31.0042 260.617 31.1429 153.091 82.3901 153.091C133.637 153.091 133.736 260.597 183.16 260.597C232.584 260.597 232.941 185.265 283.97 185.265C334.999 185.265 335.138 260.597 384.78 260.597C433.847 260.597 434.085 21.4578 485.689 21.4578C537.293 21.4578 537.333 260.577 586.38 260.577C635.923 260.577 635.923 153.071 687.19 153.071C738.457 153.071 738.457 260.577 788 260.577V262.956C736.733 262.956 736.654 155.45 687.19 155.45C637.726 155.45 637.647 262.956 586.38 262.956C535.113 262.956 534.737 23.8367 485.689 23.8367C436.642 23.8367 436.384 262.976 384.78 262.976C333.672 262.976 333.612 187.644 283.97 187.644C234.328 187.644 234.209 262.976 183.16 262.976C132.111 262.976 131.834 155.469 82.3901 155.469C32.9463 155.469 32.8472 262.996 -18.4 262.996C-69.6472 262.996 -69.3697 209.233 -119.21 209.233C-169.05 209.233 -169.03 262.996 -220 262.996Z" fill="url(#paint0_linear_644_2010)" fill-opacity="0.5"/>
<path d="M-220 262.996V260.636C-170.16 260.636 -170.12 213.197 -119.19 213.197C-68.26 213.197 -68.2996 260.617 -18.4 260.617C31.1429 260.617 31.1429 165.738 82.4099 165.738C133.677 165.738 133.776 260.597 183.16 260.597C232.545 260.597 232.981 194.087 283.97 194.087C334.96 194.087 335.178 260.597 384.78 260.577C433.867 260.577 434.145 49.5879 485.709 49.5879C537.273 49.5879 537.234 260.577 586.38 260.577C635.527 260.577 635.923 165.698 687.21 165.698C738.497 165.698 738.596 260.557 788 260.557V262.936C736.911 262.936 736.614 168.077 687.21 168.077C637.806 168.077 637.548 262.936 586.38 262.956C534.558 262.956 535.034 51.9668 485.709 51.9668C436.384 51.9668 436.344 262.956 384.78 262.956C333.81 262.956 333.592 196.466 283.97 196.466C234.348 196.466 234.15 262.976 183.16 262.976C132.171 262.976 131.794 168.117 82.509 168.117C33.2237 168.117 32.9661 262.996 -18.3009 262.996C-69.5679 262.996 -69.2112 215.556 -119.091 215.556C-168.971 215.556 -169.07 262.996 -220 262.996Z" fill="url(#paint1_linear_644_2010)" fill-opacity="0.5"/>
<path d="M-220 263.015V260.636C-170.041 260.636 -170.1 219.521 -119.19 219.521C-68.2798 219.521 -68.4185 260.617 -18.4 260.617C31.1429 260.617 31.3807 178.405 82.4099 178.386C133.439 178.366 133.717 260.597 183.16 260.597C232.921 260.597 232.981 202.948 283.99 202.948C334.999 202.948 335.039 260.577 384.78 260.577C433.847 260.577 434.323 77.7183 485.729 77.7183C537.135 77.7183 537.253 260.557 586.38 260.557C635.923 260.557 636.141 178.346 687.21 178.346C738.279 178.346 738.457 260.537 788 260.537V262.916C736.872 262.916 736.773 180.705 687.21 180.705C637.647 180.705 637.508 262.936 586.38 262.936C535.252 262.936 534.856 80.0972 485.729 80.0972C436.602 80.0972 436.186 262.956 384.78 262.956C333.81 262.956 333.731 205.307 283.99 205.327C234.249 205.347 234.09 262.976 183.16 262.976C132.23 262.976 131.854 180.765 82.509 180.765C33.1642 180.765 32.7877 262.995 -18.3009 262.995C-69.3896 262.995 -69.1716 221.9 -119.091 221.9C-143.922 221.9 -156.01 231.812 -168.832 242.22C-181.654 252.627 -194.436 263.015 -220 263.015Z" fill="url(#paint2_linear_644_2010)" fill-opacity="0.5"/>
<path d="M-220 263.015V260.636C-170.001 260.636 -170.001 225.845 -119.19 225.845C-68.3591 225.845 -68.4185 260.617 -18.4198 260.617C31.1231 260.617 31.3807 191.053 82.3901 191.053C133.399 191.053 133.518 260.597 183.141 260.597C232.763 260.597 233.04 211.809 283.97 211.809C334.9 211.809 334.88 260.577 384.76 260.577C434.006 260.577 434.303 105.849 485.828 105.849C537.352 105.849 537.352 260.478 586.459 260.478C636.002 260.478 636.26 190.895 687.309 190.895C738.358 190.895 738.457 260.537 788 260.537V262.916C736.971 262.916 736.852 193.353 687.23 193.353C637.608 193.353 637.409 262.936 586.38 262.936C535.034 262.936 534.856 108.208 485.749 108.208C436.642 108.208 436.206 262.956 384.681 262.956C333.692 262.956 333.791 214.188 283.891 214.188C233.991 214.188 234.011 262.976 183.061 262.976C132.111 262.976 132.052 193.412 82.509 193.412C32.9661 193.412 32.7085 262.996 -18.3009 262.996C-69.1121 262.996 -69.0527 228.224 -119.051 228.224C-169.169 228.244 -169.169 263.015 -220 263.015Z" fill="url(#paint3_linear_644_2010)" fill-opacity="0.5"/>
<path d="M-220 263.035V260.657C-170.299 260.657 -169.684 232.189 -119.19 232.189C-112.631 233.418 -99.5711 228.878 -68.2798 246.542C-56.013 253.46 -43.33 260.637 -18.4198 260.637C31.1231 260.637 31.4996 203.702 82.3901 203.702C133.3 203.702 133.419 260.597 183.121 260.597C233.179 260.597 232.981 220.691 283.95 220.671C334.9 220.671 334.742 260.577 384.721 260.577C433.947 260.577 434.442 133.96 485.788 133.96C537.135 133.96 537.174 260.557 586.42 260.538C636.161 260.538 636.28 203.622 687.269 203.602C738.259 203.583 738.259 260.518 788 260.518V262.897C737.01 262.897 737.01 205.981 687.23 205.981C637.449 205.981 637.39 262.916 586.38 262.916C535.113 262.916 535.014 136.339 485.749 136.339C436.483 136.339 436.027 262.936 384.681 262.956C333.692 262.956 333.989 223.05 283.911 223.05C233.872 223.05 234.071 262.976 183.081 262.976C132.151 262.976 132.092 206.08 82.3505 206.08C32.8076 206.08 32.4509 262.996 -18.4594 262.996C-69.013 262.996 -69.3895 234.568 -119.21 234.568C-125.65 235.777 -138.452 231.337 -169.11 248.663C-181.594 255.72 -194.535 263.035 -220 263.035Z" fill="url(#paint4_linear_644_2010)" fill-opacity="0.5"/>
<path d="M-220 263.035V260.656C-170.457 260.656 -169.466 238.513 -119.19 238.513C-112.928 239.444 -99.5711 235.955 -68.3789 249.654C-56.0922 255.046 -43.3894 260.637 -18.4198 260.637C31.4997 260.637 31.4996 216.349 82.4099 216.349C133.3 216.349 133.221 260.597 183.121 260.597C233.219 260.597 233.1 229.552 283.95 229.552C334.742 229.552 334.663 260.577 384.701 260.577C434.244 260.577 434.462 162.09 485.768 162.09C537.055 162.09 536.837 260.537 586.38 260.537C636.3 260.537 636.32 216.25 687.23 216.25C738.14 216.25 738.061 260.498 787.98 260.498V262.877C737.05 262.877 737.149 218.629 687.23 218.629C637.39 218.589 637.39 262.896 586.38 262.916C535.093 262.916 535.311 164.469 485.768 164.469C436.226 164.469 435.988 262.936 384.701 262.936C378.419 261.648 365.023 266.524 333.751 247.275C320.929 239.345 308.821 231.911 283.931 231.911C233.853 231.911 233.952 262.976 183.101 262.976C132.191 262.976 132.29 218.728 82.3901 218.728C32.4707 218.728 32.4707 262.996 -18.4396 263.015C-68.6365 263.015 -69.5085 240.892 -119.17 240.892C-125.69 241.863 -138.413 238.354 -169.189 251.874C-181.674 257.366 -194.594 263.035 -220 263.035Z" fill="url(#paint5_linear_644_2010)" fill-opacity="0.5"/>
<path d="M-220 263.055V260.676C-170.259 260.676 -169.407 244.816 -119.19 244.816C-112.492 245.53 -99.7098 242.973 -68.478 252.746C-52.3964 258.32 -35.456 261.005 -18.4396 260.676C31.6384 260.676 31.5393 228.957 82.3901 228.957C133.181 228.957 133.063 260.557 183.081 260.557C189.581 259.586 202.324 263.094 233.1 249.554C245.604 244.063 258.525 238.374 283.931 238.374C334.108 238.374 334.94 260.517 384.641 260.517C434.184 260.517 434.66 190.181 485.709 190.181C536.659 190.181 536.738 260.478 586.281 260.478C636.379 260.478 636.28 228.858 687.131 228.759C737.942 228.759 737.823 260.378 787.861 260.378V262.757C737.07 262.757 737.189 231.039 687.15 231.039C637.053 231.039 637.172 262.757 586.301 262.757C535.351 262.757 535.252 192.461 485.709 192.461C436.166 192.461 435.69 262.797 384.641 262.797C377.983 261.806 365.082 265.394 333.83 251.636C321.544 246.224 308.861 240.653 283.891 240.653C234.348 240.653 233.337 262.837 183.061 262.837C132.29 262.837 132.409 231.237 82.3703 231.237C32.2923 231.237 32.3914 262.956 -18.4594 262.956C-25.1576 262.242 -37.9397 264.799 -69.1716 255.026C-85.2486 249.461 -102.181 246.777 -119.19 247.096C-125.71 247.79 -138.512 245.292 -169.347 255.026C-185.631 260.652 -202.776 263.369 -220 263.055Z" fill="url(#paint6_linear_644_2010)" fill-opacity="0.5"/>
<path d="M-220 263.055V260.676C-169.902 260.676 -169.565 251.18 -119.19 251.18C-102.205 250.959 -85.2454 252.547 -68.5969 255.918C-38.3162 261.627 -18.0433 260.636 -18.4 260.636C31.4798 260.636 32.0545 241.664 82.4297 241.645C132.686 241.645 133.281 260.597 183.101 260.597C232.961 260.597 233.694 247.294 283.95 247.275C334.167 247.275 334.722 260.557 384.602 260.557C434.62 260.557 434.64 218.351 485.669 218.331C536.56 218.331 536.322 260.517 586.222 260.517C592.702 259.685 605.484 262.678 636.3 251.081C652.385 244.384 669.693 241.129 687.111 241.526C737.367 241.526 737.962 260.478 787.782 260.478V262.857C737.526 262.857 736.931 243.905 687.111 243.905C637.211 243.905 636.637 262.876 586.242 262.896C535.371 262.896 535.609 220.71 485.689 220.71C423.166 220.73 441.2 284.505 334.187 256.255C304.144 248.325 283.713 249.614 284.069 249.654C234.209 249.654 233.476 262.956 183.22 262.975C176.601 262.143 163.7 265.176 132.488 253.44C116.672 246.833 99.6441 243.625 82.509 244.023C32.649 244.023 32.0545 263.015 -18.3207 263.015H-18.5585C-68.7554 263.015 -69.2112 253.559 -119.17 253.559C-169.129 253.559 -169.684 263.055 -220 263.055Z" fill="url(#paint7_linear_644_2010)" fill-opacity="0.5"/>
<path d="M-220 263.074V260.696C-163.68 260.696 -141.068 254.57 -68.7158 259.07C40.6948 265.929 47.1552 246.7 132.944 257.464C197.013 265.394 229.632 256.136 284.188 256.136C334.147 256.136 334.742 260.557 384.582 260.557C434.918 260.557 435.274 246.482 485.808 246.462C492.387 247.077 505.368 244.837 536.381 253.519C592.563 269.259 629.364 254.154 687.388 254.154C737.565 254.154 737.823 260.458 788 260.458V262.836C732.908 262.836 709.564 250.586 636.954 259.704C540.226 271.856 545.953 248.841 485.887 248.841C435.948 248.841 435.175 262.916 384.82 262.936C330.382 262.936 305.729 254.392 233.714 260.735C150.839 268.05 139.464 256.671 82.6279 256.671C21.5117 256.671 25.7526 267.356 -68.8149 261.449C-140.969 256.929 -165.602 263.055 -220 263.074Z" fill="url(#paint8_linear_644_2010)" fill-opacity="0.5"/>
<path d="M471.262 297.014C374.495 297.014 373.881 1.6331 278.164 1.6331C182.447 1.6331 181.516 297.014 84.7285 297.014C-12.0585 297.014 -12.4945 203.84 -108.568 203.84C-166.038 203.84 -189.7 237.541 -219.287 263.808L-220 263.015C-190.056 236.312 -166.494 202.77 -108.568 202.77C-60.0358 202.77 -35.3833 226.559 -11.464 249.475C12.4554 272.392 36.6125 295.904 84.7285 295.904C180.465 295.904 181.377 0.522949 278.164 0.522949C374.951 0.522949 375.545 295.904 471.262 295.904C566.979 295.904 568.049 163.082 664.559 163.082C729.956 163.082 751.754 224.081 787.98 263.055L787.188 263.789C750.863 224.755 729.282 164.152 664.559 164.152C568.763 164.212 567.772 297.014 471.262 297.014Z" fill="url(#paint9_linear_644_2010)" fill-opacity="0.5"/>
<path d="M471.262 293.921C374.416 293.921 374.019 26.6711 278.164 26.6711C182.308 26.6711 181.476 293.921 84.7282 293.921C-12.0192 293.921 -12.5344 209.668 -108.568 209.668C-166.038 209.668 -189.64 240 -219.307 263.927L-219.98 263.095C-190.017 238.909 -166.474 208.598 -108.568 208.598C-60.056 208.598 -35.4034 230.068 -11.5634 250.843C12.2767 271.619 36.5923 292.831 84.7282 292.831C180.485 292.831 181.416 25.5808 278.164 25.5808C374.911 25.5808 375.426 292.831 471.262 292.831C567.098 292.831 568.01 172.676 664.559 172.676C729.955 172.676 751.754 227.867 787.96 263.134L787.207 263.908C750.922 228.62 729.282 173.747 664.559 173.747C568.683 173.707 567.811 293.921 471.262 293.921Z" fill="url(#paint10_linear_644_2010)" fill-opacity="0.5"/>
<path d="M471.262 290.73C374.475 290.73 373.999 51.6102 278.163 51.6102C182.328 51.6102 181.456 290.73 84.728 290.73C-11.9996 290.73 -12.5941 215.398 -108.569 215.398C-165.662 215.398 -188.868 241.982 -219.327 263.947L-219.961 263.075C-190.077 241.506 -166.455 214.308 -108.569 214.308C-60.0562 214.308 -35.4235 233.537 -11.6033 252.112C12.217 270.688 36.5921 289.778 84.728 289.778C180.485 289.778 181.436 50.6587 278.163 50.6587C374.891 50.6587 375.446 289.778 471.262 289.778C567.078 289.778 568.049 182.272 664.559 182.272C729.955 182.272 751.615 231.594 787.94 263.194L787.227 264.007C750.922 232.407 729.301 183.342 664.559 183.342C616.482 183.342 591.988 210.581 568.307 236.868C544.625 263.155 519.834 290.73 471.262 290.73Z" fill="url(#paint11_linear_644_2010)" fill-opacity="0.5"/>
<path d="M471.263 287.597C374.516 287.597 374.001 76.6082 278.165 76.6082C182.329 76.6082 181.596 287.597 84.7293 287.597C-12.137 287.597 -12.6125 221.087 -108.567 221.087C-165.74 221.087 -189.065 244.618 -219.345 263.927L-219.92 263.015C-189.837 243.865 -166.414 219.997 -108.567 219.997C-60.0747 219.997 -35.4419 236.946 -11.6217 253.361C12.1985 269.775 36.5736 286.507 84.7293 286.507C180.565 286.507 181.398 75.5178 278.165 75.5178C374.932 75.5178 375.427 286.507 471.263 286.507C567.099 286.507 567.892 191.648 664.56 191.648C729.956 191.648 751.656 235.261 787.922 263.015L787.268 263.868C750.982 236.054 729.362 192.818 664.56 192.818C616.444 192.818 591.969 216.865 568.288 240.099C544.606 263.333 519.815 287.597 471.263 287.597Z" fill="url(#paint12_linear_644_2010)" fill-opacity="0.5"/>
<path d="M471.263 284.445C374.555 284.445 374.04 101.587 278.164 101.587C182.289 101.587 181.358 284.445 84.7291 284.445C-11.8994 284.445 -12.6129 226.797 -108.568 226.797C-165.522 226.797 -188.55 246.918 -219.385 263.947L-219.9 262.996C-189.897 246.442 -166.394 225.726 -108.568 225.726C-60.0948 225.726 -35.462 240.416 -11.6418 254.63C12.1784 268.844 36.5535 283.375 84.7291 283.375C180.466 283.375 181.536 100.516 278.164 100.516C374.793 100.516 375.387 283.375 471.263 283.375C567.138 283.375 568.01 201.164 664.56 201.164C729.857 201.164 751.636 238.83 787.901 263.035L787.287 263.927C750.943 239.742 729.362 202.234 664.56 202.234C568.526 202.234 567.812 284.445 471.263 284.445Z" fill="url(#paint13_linear_644_2010)" fill-opacity="0.5"/>
<path d="M471.262 281.313C374.594 281.313 374.059 126.585 278.164 126.585C182.269 126.585 181.377 281.313 84.7285 281.313C-11.9198 281.313 -12.5143 232.466 -108.568 232.466C-164.651 232.466 -186.985 248.742 -219.425 263.907L-219.861 262.916C-189.898 248.92 -166.256 231.396 -108.568 231.396C-60.1152 231.396 -35.5022 243.826 -11.682 255.839C12.1382 267.852 36.5331 280.163 84.7285 280.163C180.584 280.163 181.516 125.435 278.164 125.435C374.812 125.435 375.268 280.163 471.262 280.163C567.257 280.163 568.03 210.66 664.559 210.66C729.857 210.66 751.576 242.577 787.861 262.996L787.326 263.947C751.001 243.489 729.401 211.73 664.559 211.73C568.545 211.73 567.732 281.313 471.262 281.313Z" fill="url(#paint14_linear_644_2010)" fill-opacity="0.5"/>
<path d="M471.263 278.161C374.614 278.161 374.158 151.564 278.164 151.564C182.17 151.564 181.258 278.161 84.7286 278.161C-11.8008 278.161 -12.3754 238.255 -108.568 238.255C-164.532 238.255 -186.747 251.458 -219.544 264.027L-219.94 263.036C-189.799 251.518 -166.434 237.264 -108.667 237.264C-60.2339 237.264 -35.621 247.414 -11.8206 257.247C11.9798 267.08 36.4144 277.17 84.6296 277.17C180.465 277.17 181.535 150.573 278.065 150.573C374.594 150.573 375.169 277.17 471.163 277.17C567.158 277.17 568.049 220.255 664.46 220.255C729.698 220.255 751.477 246.363 787.723 263.055L787.267 264.047C750.823 247.255 729.421 221.325 664.401 221.325C568.545 221.246 567.673 278.161 471.263 278.161Z" fill="url(#paint15_linear_644_2010)" fill-opacity="0.5"/>
<path d="M471.262 275.009C374.733 275.009 374.158 176.562 278.164 176.562C182.17 176.562 181.377 275.009 84.7285 275.009C-11.9198 275.009 -12.3756 243.984 -108.568 243.984C-165.78 243.984 -189.065 254.947 -219.544 263.987L-219.861 262.956C-189.521 253.956 -166.355 242.894 -108.628 242.894C-60.2142 242.894 -35.6212 250.824 -11.8207 258.436C11.9797 266.049 36.4341 273.939 84.669 273.939C180.723 273.939 181.456 175.472 278.104 175.472C374.753 175.472 375.209 273.939 471.203 273.939C567.197 273.939 568.307 229.671 664.5 229.671C729.698 229.671 751.477 249.991 787.723 262.956L787.346 263.967C750.902 250.923 729.381 230.742 664.48 230.742C568.584 230.742 567.534 275.009 471.262 275.009Z" fill="url(#paint16_linear_644_2010)" fill-opacity="0.5"/>
<path d="M471.263 271.877C374.912 271.877 374.159 201.54 278.165 201.54C182.17 201.54 181.061 271.877 84.7293 271.877C-11.6019 271.877 -12.2559 249.713 -108.567 249.713C-166.037 249.713 -189.362 257.643 -219.543 264.006L-219.781 262.956C-189.283 256.473 -166.136 248.623 -108.587 248.623C-60.2134 248.623 -35.6203 254.273 -11.8199 259.724C191.98 306.47 157.24 200.47 278.145 200.47C374.516 200.47 375.249 270.806 471.243 270.806C567.238 270.806 568.169 239.087 664.54 239.087C729.699 239.087 751.458 253.599 787.704 262.876L787.446 263.907C751.101 254.61 729.501 240.118 664.58 240.118C568.407 240.257 567.654 271.877 471.263 271.877Z" fill="url(#paint17_linear_644_2010)" fill-opacity="0.5"/>
<path d="M471.262 268.725C374.951 268.725 374.158 226.539 278.164 226.539C182.169 226.539 181.059 268.725 84.7281 268.725C-35.6215 268.725 -45.213 241.803 -219.584 264.007L-219.703 262.936C-187.996 258.971 -165.919 254.352 -108.568 254.352C-76.2071 254.008 -43.8695 256.235 -11.8607 261.013C192.434 289.124 156.744 225.448 278.164 225.448C374.495 225.448 375.268 267.654 471.262 267.654C567.256 267.654 568.227 248.682 664.559 248.682C729.678 248.682 751.397 257.365 787.683 262.936L787.504 264.007C757.66 259.407 681.086 237.046 568.009 259.229C544.249 263.907 519.636 268.725 471.262 268.725Z" fill="url(#paint18_linear_644_2010)" fill-opacity="0.5"/>
<path d="M278.164 251.518C181.972 251.518 181.06 265.592 84.7289 265.592C-34.6298 265.592 -46.3616 256.652 -219.623 264.006V262.936C3.2606 253.461 59.799 275.167 181.417 257.485C245.536 247.94 310.714 247.94 374.832 257.485C509.986 277.189 574.986 249.179 761.386 261.35C769.67 261.885 778.231 262.44 787.664 262.936V264.006C747.91 262.024 677.956 255.225 568.03 262.421C380.599 274.671 396.572 251.518 278.164 251.518Z" fill="url(#paint19_linear_644_2010)" fill-opacity="0.5"/>
<path d="M278.164 276.515C181.753 276.515 181.06 262.441 84.7286 262.441C-34.4122 262.441 -46.0647 271.401 -219.663 264.007V262.936C3.4782 272.431 59.759 250.705 181.476 268.407C213.44 273.437 245.769 275.784 278.124 275.425C397.225 275.425 380.599 252.291 567.911 264.522C676.489 271.639 747.395 264.978 787.544 262.936V264.007C747.752 265.989 678.074 272.808 567.792 265.612C387.119 253.778 391.895 276.515 278.164 276.515Z" fill="url(#paint20_linear_644_2010)" fill-opacity="0.5"/>
<path d="M278.164 301.494C181.852 301.494 180.762 259.308 84.7285 259.308C-35.1654 259.308 -45.4307 286.229 -219.723 264.006L-219.584 262.936C-188.253 266.9 -165.919 271.52 -108.608 271.52C-76.2932 271.867 -44.002 269.646 -12.0388 264.878C192.395 236.728 157.18 300.423 278.124 300.423C374.158 300.423 374.891 258.217 471.223 258.217C519.596 258.217 544.189 263.055 567.97 267.713C631.688 280.57 697.331 280.57 761.049 267.713C769.372 266.088 777.972 264.383 787.485 262.936L787.643 263.986C751.398 269.557 729.678 278.28 664.519 278.28C568.069 278.28 567.534 259.308 471.223 259.308C374.911 259.308 374.515 301.494 278.164 301.494Z" fill="url(#paint21_linear_644_2010)" fill-opacity="0.5"/>
<path d="M278.164 326.492C181.813 326.492 180.624 256.156 84.729 256.156C-11.4833 256.156 -12.2166 278.32 -108.568 278.32C-165.8 278.32 -188.986 270.529 -219.762 264.006L-219.544 262.956C-188.708 269.478 -166.037 277.249 -108.568 277.249C-60.3128 277.249 -35.7792 271.619 -12.0382 266.187C192.475 219.263 157.339 325.402 278.164 325.402C374.119 325.402 374.852 255.086 471.263 255.086C567.673 255.086 568.367 286.705 664.56 286.705C729.5 286.705 751.121 272.233 787.426 262.916L787.703 263.967C751.458 273.225 729.698 287.756 664.52 287.756C568.129 287.756 567.416 256.136 471.223 256.136C423.087 256.136 398.633 273.978 374.991 291.205C351.349 308.432 326.677 326.492 278.164 326.492Z" fill="url(#paint22_linear_644_2010)" fill-opacity="0.5"/>
<path d="M278.164 351.411C181.674 351.411 180.624 252.964 84.7286 252.964C-11.1667 252.964 -12.1971 284.009 -108.568 284.009C-166.038 284.009 -189.323 273.006 -219.802 263.947L-219.485 262.916C-188.57 272.114 -165.859 282.938 -108.509 282.938C-12.3557 282.938 -11.5828 251.894 84.7881 251.894C133.32 251.894 158.012 277.011 181.892 301.295C205.772 325.58 230.147 350.36 278.223 350.36C374.198 350.36 374.753 251.894 471.322 251.894C567.891 251.894 568.426 296.161 664.618 296.161C729.599 296.161 751.101 275.94 787.485 262.916L787.841 263.927C751.16 277.07 729.916 297.251 664.618 297.251C568.168 297.251 567.514 252.984 471.322 252.984C423.226 252.984 398.791 277.923 375.169 302.049C351.547 326.175 326.716 351.411 278.164 351.411Z" fill="url(#paint23_linear_644_2010)" fill-opacity="0.5"/>
<path d="M278.165 376.469C181.536 376.469 180.664 249.872 84.7292 249.872C-11.2057 249.872 -12.0777 289.778 -108.567 289.778C-164.333 289.778 -185.953 276.912 -219.841 264.007L-219.444 263.015C-188.55 274.91 -165.819 288.787 -108.468 288.787C-12.256 288.787 -11.6813 248.881 84.8283 248.881C133.4 248.881 158.152 281.155 181.932 312.318C205.713 343.482 230.187 375.399 278.224 375.399C374.139 375.399 374.714 248.821 471.323 248.821C567.931 248.821 568.605 305.816 664.56 305.816C729.441 305.816 751.062 279.787 787.426 263.075L787.862 264.046C751.597 280.758 729.857 306.886 664.599 306.886C568.268 306.886 567.257 249.971 471.303 249.971C423.246 249.971 398.812 282.047 375.189 313.052C351.567 344.057 326.756 376.469 278.165 376.469Z" fill="url(#paint24_linear_644_2010)" fill-opacity="0.5"/>
<path d="M278.164 426.446C181.516 426.446 180.525 243.588 84.7291 243.588C-11.0671 243.588 -12.1571 301.236 -108.568 301.236C-165.859 301.236 -189.005 280.996 -219.9 263.947L-219.385 262.996C-189.422 279.549 -166.156 300.146 -108.568 300.146C-12.5534 300.146 -11.6814 242.517 84.7291 242.517C133.36 242.517 158.053 289.144 181.833 334.224C205.614 379.304 230.108 425.415 278.085 425.415C374.04 425.415 374.357 242.577 471.184 242.577C568.01 242.577 568.426 324.788 664.48 324.788C712.596 324.788 737.09 303.952 760.772 283.811C769.173 276.381 778.007 269.457 787.228 263.075L787.822 263.967C751.557 288.093 729.778 325.858 664.48 325.858C567.891 325.858 567.237 243.647 471.184 243.647C423.186 243.647 398.752 289.976 375.11 334.838C351.468 379.701 326.816 426.446 278.164 426.446Z" fill="url(#paint25_linear_644_2010)" fill-opacity="0.5"/>
</g>
<defs>
<linearGradient id="paint0_linear_644_2010" x1="-393.401" y1="301.813" x2="1094.71" y2="91.7627" gradientUnits="userSpaceOnUse">
<stop stop-color="#D844FF"/>
<stop offset="1" stop-color="#28B7FF"/>
</linearGradient>
<linearGradient id="paint1_linear_644_2010" x1="-393.401" y1="297.292" x2="1086.58" y2="60.8513" gradientUnits="userSpaceOnUse">
<stop stop-color="#D844FF"/>
<stop offset="1" stop-color="#28B7FF"/>
</linearGradient>
<linearGradient id="paint2_linear_644_2010" x1="-393.401" y1="292.794" x2="1074.66" y2="22.678" gradientUnits="userSpaceOnUse">
<stop stop-color="#D844FF"/>
<stop offset="1" stop-color="#28B7FF"/>
</linearGradient>
<linearGradient id="paint3_linear_644_2010" x1="-393.401" y1="288.273" x2="1056.14" y2="-26.1738" gradientUnits="userSpaceOnUse">
<stop stop-color="#D844FF"/>
<stop offset="1" stop-color="#28B7FF"/>
</linearGradient>
<linearGradient id="paint4_linear_644_2010" x1="-393.401" y1="283.779" x2="1025.37" y2="-90.9731" gradientUnits="userSpaceOnUse">
<stop stop-color="#D844FF"/>
<stop offset="1" stop-color="#28B7FF"/>
</linearGradient>
<linearGradient id="paint5_linear_644_2010" x1="-393.398" y1="279.258" x2="968.932" y2="-180.855" gradientUnits="userSpaceOnUse">
<stop stop-color="#D844FF"/>
<stop offset="1" stop-color="#28B7FF"/>
</linearGradient>
<linearGradient id="paint6_linear_644_2010" x1="-393.378" y1="274.794" x2="851.869" y2="-307.514" gradientUnits="userSpaceOnUse">
<stop stop-color="#D844FF"/>
<stop offset="1" stop-color="#28B7FF"/>
</linearGradient>
<linearGradient id="paint7_linear_644_2010" x1="-393.364" y1="270.729" x2="573.059" y2="-459.001" gradientUnits="userSpaceOnUse">
<stop stop-color="#D844FF"/>
<stop offset="1" stop-color="#28B7FF"/>
</linearGradient>
<linearGradient id="paint8_linear_644_2010" x1="-393.401" y1="265.944" x2="-97.3309" y2="-335.476" gradientUnits="userSpaceOnUse">
<stop stop-color="#D844FF"/>
<stop offset="1" stop-color="#28B7FF"/>
</linearGradient>
<linearGradient id="paint9_linear_644_2010" x1="-393.398" y1="344.662" x2="1104.52" y2="172.418" gradientUnits="userSpaceOnUse">
<stop stop-color="#D844FF"/>
<stop offset="1" stop-color="#28B7FF"/>
</linearGradient>
<linearGradient id="paint10_linear_644_2010" x1="-393.372" y1="337.046" x2="1100.19" y2="147.294" gradientUnits="userSpaceOnUse">
<stop stop-color="#D844FF"/>
<stop offset="1" stop-color="#28B7FF"/>
</linearGradient>
<linearGradient id="paint11_linear_644_2010" x1="-393.345" y1="329.311" x2="1094.27" y2="118.069" gradientUnits="userSpaceOnUse">
<stop stop-color="#D844FF"/>
<stop offset="1" stop-color="#28B7FF"/>
</linearGradient>
<linearGradient id="paint12_linear_644_2010" x1="-393.294" y1="321.68" x2="1086.01" y2="83.906" gradientUnits="userSpaceOnUse">
<stop stop-color="#D844FF"/>
<stop offset="1" stop-color="#28B7FF"/>
</linearGradient>
<linearGradient id="paint13_linear_644_2010" x1="-393.268" y1="314.004" x2="1073.8" y2="42.1158" gradientUnits="userSpaceOnUse">
<stop stop-color="#D844FF"/>
<stop offset="1" stop-color="#28B7FF"/>
</linearGradient>
<linearGradient id="paint14_linear_644_2010" x1="-393.215" y1="306.364" x2="1054.89" y2="-10.2796" gradientUnits="userSpaceOnUse">
<stop stop-color="#D844FF"/>
<stop offset="1" stop-color="#28B7FF"/>
</linearGradient>
<linearGradient id="paint15_linear_644_2010" x1="-393.284" y1="298.666" x2="1022.91" y2="-79.6382" gradientUnits="userSpaceOnUse">
<stop stop-color="#D844FF"/>
<stop offset="1" stop-color="#28B7FF"/>
</linearGradient>
<linearGradient id="paint16_linear_644_2010" x1="-393.191" y1="291.006" x2="964.756" y2="-173.929" gradientUnits="userSpaceOnUse">
<stop stop-color="#D844FF"/>
<stop offset="1" stop-color="#28B7FF"/>
</linearGradient>
<linearGradient id="paint17_linear_644_2010" x1="-393.094" y1="283.352" x2="842.502" y2="-306.291" gradientUnits="userSpaceOnUse">
<stop stop-color="#D844FF"/>
<stop offset="1" stop-color="#28B7FF"/>
</linearGradient>
<linearGradient id="paint18_linear_644_2010" x1="-392.999" y1="275.68" x2="543.376" y2="-461.563" gradientUnits="userSpaceOnUse">
<stop stop-color="#D844FF"/>
<stop offset="1" stop-color="#28B7FF"/>
</linearGradient>
<linearGradient id="paint19_linear_644_2010" x1="-392.902" y1="268.515" x2="-128.048" y2="-307.29" gradientUnits="userSpaceOnUse">
<stop stop-color="#D844FF"/>
<stop offset="1" stop-color="#28B7FF"/>
</linearGradient>
<linearGradient id="paint20_linear_644_2010" x1="-392.928" y1="279.016" x2="-131.11" y2="-294.147" gradientUnits="userSpaceOnUse">
<stop stop-color="#D844FF"/>
<stop offset="1" stop-color="#28B7FF"/>
</linearGradient>
<linearGradient id="paint21_linear_644_2010" x1="-393.015" y1="308.532" x2="551.895" y2="-426.578" gradientUnits="userSpaceOnUse">
<stop stop-color="#D844FF"/>
<stop offset="1" stop-color="#28B7FF"/>
</linearGradient>
<linearGradient id="paint22_linear_644_2010" x1="-393.071" y1="338.108" x2="848.028" y2="-247.008" gradientUnits="userSpaceOnUse">
<stop stop-color="#D844FF"/>
<stop offset="1" stop-color="#28B7FF"/>
</linearGradient>
<linearGradient id="paint23_linear_644_2010" x1="-393.142" y1="367.404" x2="964.811" y2="-97.6526" gradientUnits="userSpaceOnUse">
<stop stop-color="#D844FF"/>
<stop offset="1" stop-color="#28B7FF"/>
</linearGradient>
<linearGradient id="paint24_linear_644_2010" x1="-393.191" y1="396.983" x2="1023.14" y2="18.8045" gradientUnits="userSpaceOnUse">
<stop stop-color="#D844FF"/>
<stop offset="1" stop-color="#28B7FF"/>
</linearGradient>
<linearGradient id="paint25_linear_644_2010" x1="-393.254" y1="456.005" x2="1073.71" y2="184.158" gradientUnits="userSpaceOnUse">
<stop stop-color="#D844FF"/>
<stop offset="1" stop-color="#28B7FF"/>
</linearGradient>
</defs>
</svg>
