<svg width="180" height="180" viewBox="0 0 180 180" fill="none" xmlns="http://www.w3.org/2000/svg">
<path d="M29.8857 137.714C29.2406 134.771 28.9006 131.713 28.9006 128.576C28.9006 125.381 29.8661 122.41 31.5212 119.941C29.8585 117.214 28.9006 114.011 28.9006 110.583C28.9006 106.872 30.0237 103.423 31.9487 100.557C30.0259 97.7582 28.9006 94.3688 28.9006 90.7165C28.9006 87.1544 29.971 83.8423 31.8077 81.0843C29.971 78.3263 28.9006 75.0142 28.9006 71.452C28.9006 68.1748 29.8066 65.1092 31.3818 62.492C29.812 60.0669 28.9006 57.1758 28.9006 54.0719C28.9006 49.4959 29.6235 45.0911 30.9601 40.964C19.9025 54.2624 13.2522 71.3554 13.2522 90C13.2522 108.033 19.4731 124.614 29.8857 137.714ZM70.7488 15.6871C70.5841 15.7297 70.4195 15.7728 70.2552 15.8164C70.3279 15.8553 70.4003 15.8946 70.4725 15.9343C70.5637 15.8509 70.6558 15.7685 70.7488 15.6871ZM89.2072 13.2562C89.7664 13.5315 90.3082 13.8371 90.8302 14.1707C91.3318 13.8501 91.8516 13.5555 92.3877 13.2886C91.5946 13.2644 90.7985 13.2522 89.9996 13.2522C89.7351 13.2522 89.471 13.2535 89.2072 13.2562ZM166.748 90C166.748 72.8534 161.123 57.0191 151.618 44.2417C152.365 47.3962 152.76 50.6874 152.76 54.0719C152.76 57.1758 151.848 60.0669 150.279 62.492C151.854 65.1092 152.76 68.1748 152.76 71.452C152.76 75.0142 151.689 78.3263 149.853 81.0843C151.689 83.8423 152.76 87.1544 152.76 90.7165C152.76 94.3688 151.634 97.7582 149.712 100.557C151.637 103.423 152.76 106.872 152.76 110.583C152.76 114.011 151.802 117.214 150.139 119.941C151.794 122.41 152.76 125.381 152.76 128.576C152.76 130.698 152.604 132.783 152.304 134.821C161.393 122.208 166.748 106.725 166.748 90Z" stroke="#FAFF13" stroke-width="26.5044"/>
</svg>
