<svg width="1600" height="894" viewBox="0 0 1600 894" stroke="none" xmlns="http://www.w3.org/2000/svg" class="start" style="">
  <g opacity="1">
    <path d="M-260 550.824V545.832C-155.333 545.832 -155.25 433.004 -48.0829 433.004C59.084 433.004 59.1257 545.832 163.876 545.832C267.751 545.832 268.043 320.177 375.793 320.177C483.543 320.177 483.752 545.79 587.668 545.79C691.585 545.79 692.335 387.699 799.627 387.699C906.919 387.699 907.211 545.79 1011.59 545.79C1114.75 545.79 1115.25 43.9336 1223.75 43.9336C1332.25 43.9336 1332.34 545.748 1435.46 545.748C1539.63 545.748 1539.63 320.136 1647.42 320.136C1755.21 320.136 1755.21 545.748 1859.38 545.748V550.741C1751.59 550.741 1751.42 325.128 1647.42 325.128C1543.42 325.128 1543.25 550.741 1435.46 550.741C1327.67 550.741 1326.88 48.926 1223.75 48.926C1120.63 48.926 1120.09 550.782 1011.59 550.782C904.127 550.782 904.002 392.691 799.627 392.691C695.252 392.691 695.002 550.782 587.668 550.782C480.335 550.782 479.751 325.17 375.793 325.17C271.834 325.17 271.626 550.824 163.876 550.824C56.1256 550.824 56.709 437.997 -48.0829 437.997C-152.875 437.997 -152.833 550.824 -260 550.824Z" stroke="url(#paint0_linear_644_1483)" stroke-opacity="1" class="knHnggfM_0"></path>
    <path d="M-260 550.823V545.872C-155.208 545.872 -155.125 446.316 -48.0412 446.316C59.0423 446.316 58.959 545.831 163.876 545.831C268.043 545.831 268.043 346.719 375.835 346.719C483.627 346.719 483.835 545.789 587.668 545.789C691.502 545.789 692.419 406.211 799.627 406.211C906.836 406.211 907.294 545.789 1011.59 545.747C1114.79 545.747 1115.38 102.967 1223.79 102.967C1332.21 102.967 1332.13 545.747 1435.46 545.747C1538.8 545.747 1539.63 346.636 1647.46 346.636C1755.3 346.636 1755.5 545.706 1859.38 545.706V550.698C1751.96 550.698 1751.34 351.628 1647.46 351.628C1543.59 351.628 1543.05 550.698 1435.46 550.74C1326.5 550.74 1327.5 107.96 1223.79 107.96C1120.09 107.96 1120 550.74 1011.59 550.74C904.419 550.74 903.961 411.203 799.627 411.203C695.294 411.203 694.877 550.781 587.668 550.781C480.46 550.781 479.668 351.711 376.043 351.711C272.418 351.711 271.876 550.823 164.084 550.823C56.2923 550.823 57.0423 451.267 -47.8329 451.267C-152.708 451.267 -152.916 550.823 -260 550.823Z" stroke="url(#paint1_linear_644_1483)" stroke-opacity="1" class="knHnggfM_1"></path>
    <path d="M-260 550.864V545.872C-154.958 545.872 -155.083 459.587 -48.0412 459.587C59.0007 459.587 58.709 545.83 163.876 545.83C268.043 545.83 268.543 373.303 375.835 373.261C483.127 373.219 483.71 545.788 587.668 545.788C692.294 545.788 692.419 424.807 799.669 424.807C906.919 424.807 907.002 545.747 1011.59 545.747C1114.75 545.747 1115.75 162.001 1223.84 162.001C1331.92 162.001 1332.17 545.705 1435.46 545.705C1539.63 545.705 1540.09 373.178 1647.46 373.178C1754.84 373.178 1755.21 545.664 1859.38 545.664V550.656C1751.88 550.656 1751.67 378.129 1647.46 378.129C1543.25 378.129 1542.96 550.698 1435.46 550.698C1327.96 550.698 1327.13 166.994 1223.84 166.994C1120.54 166.994 1119.67 550.739 1011.59 550.739C904.419 550.739 904.252 429.758 799.669 429.799C695.085 429.841 694.752 550.781 587.668 550.781C480.585 550.781 479.793 378.253 376.043 378.253C272.293 378.253 271.501 550.822 164.084 550.822C56.6673 550.822 57.1257 464.58 -47.8329 464.58C-100.041 464.58 -125.458 485.381 -152.416 507.223C-179.375 529.064 -206.25 550.864 -260 550.864Z" stroke="url(#paint2_linear_644_1483)" stroke-opacity="1" class="knHnggfM_2"></path>
    <path d="M-260 550.864V545.872C-154.875 545.872 -154.875 472.859 -48.0412 472.859C58.834 472.859 58.709 545.83 163.834 545.83C268.001 545.83 268.543 399.846 375.793 399.846C483.043 399.846 483.293 545.789 587.627 545.789C691.96 545.789 692.544 443.404 799.627 443.404C906.711 443.404 906.669 545.747 1011.54 545.747C1115.09 545.747 1115.71 221.036 1224.04 221.036C1332.38 221.036 1332.38 545.539 1435.63 545.539C1539.8 545.539 1540.34 399.513 1647.67 399.513C1755 399.513 1755.21 545.664 1859.38 545.664V550.656C1752.09 550.656 1751.84 404.671 1647.5 404.671C1543.17 404.671 1542.75 550.698 1435.46 550.698C1327.5 550.698 1327.13 225.987 1223.88 225.987C1120.63 225.987 1119.71 550.739 1011.38 550.739C904.169 550.739 904.377 448.396 799.46 448.396C694.544 448.396 694.585 550.781 587.46 550.781C480.335 550.781 480.21 404.796 376.043 404.796C271.876 404.796 271.334 550.823 164.084 550.823C57.2507 550.823 57.3756 477.851 -47.7496 477.851C-153.125 477.893 -153.125 550.864 -260 550.864Z" stroke="url(#paint3_linear_644_1483)" stroke-opacity="1" class="knHnggfM_3"></path>
    <path d="M-260 550.906V545.914C-155.5 545.914 -154.208 486.172 -48.0412 486.172C-34.2495 488.751 -6.79114 479.225 59.0007 516.293C84.7924 530.812 111.459 545.872 163.834 545.872C268.001 545.872 268.793 426.389 375.793 426.389C482.835 426.389 483.085 545.789 587.585 545.789C692.835 545.789 692.419 462.042 799.585 462.001C906.711 462.001 906.377 545.748 1011.46 545.748C1114.96 545.748 1116 280.03 1223.96 280.03C1331.92 280.03 1332 545.706 1435.55 545.664C1540.13 545.664 1540.38 426.222 1647.59 426.181C1754.8 426.139 1754.8 545.623 1859.38 545.623V550.615C1752.17 550.615 1752.17 431.173 1647.5 431.173C1542.84 431.173 1542.71 550.657 1435.46 550.657C1327.67 550.657 1327.46 285.022 1223.88 285.022C1120.29 285.022 1119.34 550.698 1011.38 550.74C904.169 550.74 904.794 466.993 799.502 466.993C694.294 466.993 694.71 550.782 587.502 550.782C480.418 550.782 480.293 431.381 375.71 431.381C271.543 431.381 270.793 550.823 163.751 550.823C57.459 550.823 56.6673 491.165 -48.0829 491.165C-61.6246 493.702 -88.5413 484.383 -153 520.744C-179.25 535.555 -206.458 550.906 -260 550.906Z" stroke="url(#paint4_linear_644_1483)" stroke-opacity="1" class="knHnggfM_4"></path>
    <path d="M-260 550.906V545.914C-155.833 545.914 -153.75 499.443 -48.0412 499.443C-34.8745 501.398 -6.79112 494.076 58.7924 522.824C84.6257 534.14 111.334 545.872 163.834 545.872C268.793 545.872 268.793 452.931 375.835 452.931C482.835 452.931 482.668 545.789 587.585 545.789C692.919 545.789 692.669 480.639 799.586 480.639C906.377 480.639 906.211 545.747 1011.42 545.747C1115.59 545.747 1116.04 339.064 1223.92 339.064C1331.75 339.064 1331.3 545.664 1435.46 545.664C1540.42 545.664 1540.46 452.723 1647.5 452.723C1754.55 452.723 1754.38 545.581 1859.34 545.581V550.573C1752.25 550.573 1752.46 457.715 1647.5 457.715C1542.71 457.632 1542.71 550.615 1435.46 550.656C1327.63 550.656 1328.09 344.056 1223.92 344.056C1119.75 344.056 1119.25 550.698 1011.42 550.698C998.211 547.994 970.044 558.228 904.294 517.832C877.336 501.19 851.877 485.589 799.544 485.589C694.252 485.589 694.46 550.781 587.544 550.781C480.502 550.781 480.71 457.923 375.793 457.923C270.834 457.923 270.834 550.823 163.793 550.864C58.2507 550.864 56.4173 504.435 -47.9996 504.435C-61.7079 506.474 -88.4579 499.11 -153.166 527.483C-179.416 539.008 -206.583 550.906 -260 550.906Z" stroke="url(#paint5_linear_644_1483)" stroke-opacity="1" class="knHnggfM_5"></path>
    <path d="M-260 550.947V545.955C-155.416 545.955 -153.625 512.672 -48.0412 512.672C-33.9579 514.17 -7.08286 508.803 58.5839 529.314C92.3965 541.011 128.015 546.645 163.792 545.955C269.084 545.955 268.876 479.39 375.793 479.39C482.585 479.39 482.335 545.705 587.502 545.705C601.168 543.667 627.96 551.03 692.668 522.615C718.96 511.091 746.127 499.151 799.544 499.151C905.044 499.151 906.794 545.622 1011.29 545.622C1115.46 545.622 1116.46 398.015 1223.79 398.015C1330.92 398.015 1331.09 545.539 1435.25 545.539C1540.59 545.539 1540.38 479.182 1647.3 478.974C1754.13 478.974 1753.88 545.331 1859.09 545.331V550.323C1752.3 550.323 1752.55 483.758 1647.34 483.758C1542 483.758 1542.25 550.323 1435.29 550.323C1328.17 550.323 1327.96 402.799 1223.79 402.799C1119.63 402.799 1118.63 550.406 1011.29 550.406C997.294 548.326 970.169 555.856 904.461 526.984C878.627 515.626 851.96 503.936 799.46 503.936C695.293 503.936 693.168 550.489 587.46 550.489C480.71 550.489 480.96 484.174 375.751 484.174C270.459 484.174 270.668 550.739 163.751 550.739C149.667 549.241 122.792 554.608 57.1256 534.098C23.3227 522.42 -12.2784 516.786 -48.0412 517.457C-61.7496 518.913 -88.6663 513.671 -153.5 534.098C-187.736 545.904 -223.785 551.607 -260 550.947Z" stroke="url(#paint6_linear_644_1483)" stroke-opacity="1" class="knHnggfM_6"></path>
    <path d="M-260 550.948V545.955C-154.666 545.955 -153.958 526.027 -48.0412 526.027C-12.3299 525.564 23.3294 528.897 58.334 535.97C122.001 547.952 164.626 545.872 163.876 545.872C268.751 545.872 269.959 506.058 375.876 506.016C481.543 506.016 482.793 545.789 587.543 545.789C692.377 545.789 693.919 517.873 799.585 517.832C905.169 517.832 906.336 545.706 1011.21 545.706C1116.38 545.706 1116.42 457.133 1223.71 457.091C1330.71 457.091 1330.21 545.622 1435.13 545.622C1448.75 543.875 1475.63 550.157 1540.42 525.819C1574.24 511.766 1610.63 504.935 1647.25 505.767C1752.92 505.767 1754.17 545.539 1858.92 545.539V550.532C1753.25 550.532 1752 510.759 1647.25 510.759C1542.34 510.759 1541.13 550.573 1435.17 550.615C1328.21 550.615 1328.71 462.084 1223.75 462.084C1092.29 462.125 1130.21 595.962 905.211 536.678C842.044 520.037 799.085 522.741 799.835 522.824C695.002 522.824 693.46 550.74 587.793 550.781C573.877 549.034 546.752 555.399 481.126 530.77C447.872 516.905 412.07 510.173 376.043 511.009C271.209 511.009 269.959 550.864 164.043 550.864H163.543C58.0006 550.864 57.0423 531.02 -47.9996 531.02C-153.041 531.02 -154.208 550.948 -260 550.948Z" stroke="url(#paint7_linear_644_1483)" stroke-opacity="1" class="knHnggfM_7"></path>
    <path d="M-260 550.989V545.997C-141.583 545.997 -94.0413 533.142 58.084 542.586C288.126 556.98 301.709 516.625 482.085 539.216C616.793 555.857 685.377 536.428 800.085 536.428C905.127 536.428 906.377 545.706 1011.17 545.706C1117 545.706 1117.75 516.168 1224 516.126C1237.84 517.416 1265.13 512.715 1330.34 530.937C1448.46 563.969 1525.84 532.268 1647.84 532.268C1753.34 532.268 1753.88 545.498 1859.38 545.498V550.49C1743.55 550.49 1694.46 524.779 1541.8 543.917C1338.42 569.419 1350.46 521.118 1224.17 521.118C1119.17 521.118 1117.54 550.656 1011.67 550.698C897.211 550.698 845.377 532.767 693.96 546.08C519.71 561.432 495.793 537.551 376.293 537.551C247.793 537.551 256.709 559.975 57.8756 547.578C-93.833 538.092 -145.625 550.948 -260 550.989Z" stroke="url(#paint8_linear_644_1483)" stroke-opacity="1" class="knHnggfM_8"></path>
    <path d="M1193.42 622.214C989.961 622.214 988.669 2.32975 787.419 2.32975C586.169 2.32975 584.21 622.214 380.71 622.214C177.209 622.214 176.293 426.68 -25.7078 426.68C-146.541 426.68 -196.292 497.405 -258.5 552.529L-260 550.864C-197.042 494.825 -147.5 424.433 -25.7078 424.433C76.3341 424.433 128.168 474.357 178.459 522.45C228.751 570.543 279.543 619.884 380.71 619.884C582.002 619.884 583.919 0 787.419 0C990.919 0 992.169 619.884 1193.42 619.884C1394.67 619.884 1396.92 341.144 1599.84 341.144C1737.34 341.144 1783.17 469.156 1859.34 550.948L1857.67 552.487C1781.3 470.571 1735.92 343.391 1599.84 343.391C1398.42 343.516 1396.34 622.214 1193.42 622.214Z" stroke="url(#paint9_linear_644_1483)" stroke-opacity="1" class="knHnggfM_9"></path>
    <path d="M1193.42 615.724C989.796 615.724 988.962 54.8748 787.42 54.8748C585.878 54.8748 584.128 615.724 380.711 615.724C177.294 615.724 176.211 438.912 -25.7065 438.912C-146.54 438.912 -196.165 502.564 -258.54 552.779L-259.957 551.032C-196.957 500.276 -147.457 436.665 -25.7065 436.665C76.2937 436.665 128.127 481.721 178.252 525.321C228.377 568.921 279.502 613.436 380.711 613.436C582.045 613.436 584.003 52.5867 787.42 52.5867C990.837 52.5867 991.921 613.436 1193.42 613.436C1394.92 613.436 1396.84 361.28 1599.84 361.28C1737.34 361.28 1783.17 477.103 1859.3 551.115L1857.71 552.737C1781.42 478.684 1735.92 363.527 1599.84 363.527C1398.26 363.444 1396.42 615.724 1193.42 615.724Z" stroke="url(#paint10_linear_644_1483)" stroke-opacity="1" class="knHnggfM_10"></path>
    <path d="M1193.42 609.026C989.92 609.026 988.92 107.211 787.42 107.211C585.919 107.211 584.086 609.026 380.71 609.026C177.335 609.026 176.085 450.935 -25.7072 450.935C-145.749 450.935 -194.541 506.725 -258.583 552.821L-259.916 550.99C-197.083 505.726 -147.416 448.647 -25.7072 448.647C76.293 448.647 128.085 489.002 178.168 527.984C228.252 566.966 279.502 607.029 380.71 607.029C582.044 607.029 584.044 105.215 787.42 105.215C990.795 105.215 991.962 607.029 1193.42 607.029C1394.88 607.029 1396.92 381.416 1599.84 381.416C1737.34 381.416 1782.88 484.925 1859.26 551.24L1857.76 552.945C1781.42 486.63 1735.96 383.663 1599.84 383.663C1498.75 383.663 1447.25 440.826 1397.46 495.991C1347.67 551.157 1295.55 609.026 1193.42 609.026Z" stroke="url(#paint11_linear_644_1483)" stroke-opacity="1" class="knHnggfM_11"></path>
    <path d="M1193.42 602.452C990.004 602.452 988.921 159.672 787.42 159.672C585.92 159.672 584.378 602.452 380.711 602.452C177.044 602.452 176.044 462.874 -25.7065 462.874C-145.915 462.874 -194.957 512.257 -258.624 552.778L-259.832 550.864C-196.582 510.676 -147.332 460.586 -25.7065 460.586C76.252 460.586 128.044 496.156 178.127 530.604C228.211 565.051 279.461 600.164 380.711 600.164C582.211 600.164 583.961 157.384 787.42 157.384C990.879 157.384 991.921 600.164 1193.42 600.164C1394.92 600.164 1396.59 401.094 1599.84 401.094C1737.34 401.094 1782.96 492.62 1859.21 550.864L1857.84 552.653C1781.55 494.284 1736.09 403.548 1599.84 403.548C1498.67 403.548 1447.21 454.013 1397.42 502.771C1347.63 551.53 1295.5 602.452 1193.42 602.452Z" stroke="url(#paint12_linear_644_1483)" stroke-opacity="1" class="knHnggfM_12"></path>
    <path d="M1193.42 595.837C990.087 595.837 989.003 212.092 787.42 212.092C585.836 212.092 583.877 595.837 380.71 595.837C177.543 595.837 176.043 474.856 -25.7072 474.856C-145.457 474.856 -193.874 517.083 -258.708 552.82L-259.791 550.823C-196.708 516.085 -147.291 472.61 -25.7072 472.61C76.2097 472.61 128.001 503.437 178.085 533.267C228.168 563.096 279.418 593.591 380.71 593.591C582.002 593.591 584.252 209.845 787.42 209.845C990.587 209.845 991.837 593.591 1193.42 593.591C1395 593.591 1396.84 421.064 1599.84 421.064C1737.13 421.064 1782.92 500.109 1859.17 550.906L1857.88 552.779C1781.46 502.023 1736.09 423.31 1599.84 423.31C1397.92 423.31 1396.42 595.837 1193.42 595.837Z" stroke="url(#paint13_linear_644_1483)" stroke-opacity="1" class="knHnggfM_13"></path>
    <path d="M1193.42 589.265C990.17 589.265 989.045 264.554 787.419 264.554C585.794 264.554 583.919 589.265 380.71 589.265C177.501 589.265 176.251 486.755 -25.7075 486.755C-143.624 486.755 -190.583 520.911 -258.791 552.737L-259.708 550.657C-196.708 521.285 -146.999 484.508 -25.7075 484.508C76.1677 484.508 127.918 510.593 178.001 535.805C228.085 561.016 279.376 586.852 380.71 586.852C582.252 586.852 584.211 262.141 787.419 262.141C990.628 262.141 991.586 586.852 1193.42 586.852C1395.25 586.852 1396.88 440.992 1599.84 440.992C1737.13 440.992 1782.8 507.972 1859.09 550.824L1857.96 552.82C1781.59 509.886 1736.17 443.238 1599.84 443.238C1397.96 443.238 1396.25 589.265 1193.42 589.265Z" stroke="url(#paint14_linear_644_1483)" stroke-opacity="1" class="knHnggfM_14"></path>
    <path d="M1193.42 582.65C990.211 582.65 989.253 316.973 787.419 316.973C585.585 316.973 583.668 582.65 380.71 582.65C177.751 582.65 176.543 498.903 -25.7078 498.903C-143.375 498.903 -190.083 526.611 -259.042 552.987L-259.875 550.907C-196.5 526.735 -147.375 496.823 -25.9162 496.823C75.9174 496.823 127.667 518.124 177.709 538.759C227.751 559.394 279.126 580.57 380.501 580.57C582.002 580.57 584.252 314.893 787.211 314.893C990.169 314.893 991.378 580.57 1193.21 580.57C1395.05 580.57 1396.92 461.128 1599.63 461.128C1736.8 461.128 1782.59 515.919 1858.8 550.948L1857.84 553.029C1781.21 517.791 1736.21 463.374 1599.5 463.374C1397.96 463.208 1396.13 582.65 1193.42 582.65Z" stroke="url(#paint15_linear_644_1483)" stroke-opacity="1" class="knHnggfM_15"></path>
    <path d="M1193.42 576.034C990.461 576.034 989.253 369.434 787.419 369.434C585.585 369.434 583.919 576.034 380.71 576.034C177.501 576.034 176.543 510.925 -25.7075 510.925C-145.999 510.925 -194.958 533.932 -259.041 552.903L-259.708 550.739C-195.916 531.852 -147.208 508.637 -25.8325 508.637C75.9594 508.637 127.668 525.278 177.71 541.254C227.751 557.229 279.168 573.787 380.585 573.787C582.544 573.787 584.085 367.146 787.294 367.146C990.503 367.146 991.461 573.787 1193.3 573.787C1395.13 573.787 1397.46 480.888 1599.71 480.888C1736.8 480.888 1782.59 523.531 1858.8 550.739L1858 552.861C1781.38 525.486 1736.13 483.135 1599.67 483.135C1398.05 483.135 1395.84 576.034 1193.42 576.034Z" stroke="url(#paint16_linear_644_1483)" stroke-opacity="1" class="knHnggfM_16"></path>
    <path d="M1193.42 569.46C990.837 569.46 989.253 421.853 787.42 421.853C585.586 421.853 583.252 569.46 380.71 569.46C178.168 569.46 176.793 522.948 -25.7072 522.948C-146.541 522.948 -195.583 539.589 -259.041 552.944L-259.541 550.739C-195.416 537.135 -146.749 520.66 -25.7488 520.66C75.9597 520.66 127.668 532.517 177.71 543.957C606.211 642.057 533.169 419.606 787.378 419.606C990.003 419.606 991.545 567.214 1193.38 567.214C1395.21 567.214 1397.17 500.649 1599.8 500.649C1736.8 500.649 1782.55 531.102 1858.76 550.572L1858.21 552.736C1781.8 533.224 1736.38 502.812 1599.88 502.812C1397.67 503.103 1396.09 569.46 1193.42 569.46Z" stroke="url(#paint17_linear_644_1483)" stroke-opacity="1" class="knHnggfM_17"></path>
    <path d="M1193.42 562.846C990.919 562.846 989.253 474.315 787.419 474.315C585.585 474.315 583.252 562.846 380.71 562.846C127.667 562.846 107.501 506.349 -259.125 552.945L-259.375 550.698C-192.708 542.377 -146.291 532.684 -25.7078 532.684C42.3339 531.961 110.326 536.636 177.626 546.663C607.169 605.656 532.127 472.027 787.419 472.027C989.961 472.027 991.586 560.6 1193.42 560.6C1395.25 560.6 1397.3 520.786 1599.84 520.786C1736.75 520.786 1782.42 539.008 1858.71 550.698L1858.34 552.945C1795.59 543.293 1634.59 496.365 1396.84 542.918C1346.88 552.737 1295.13 562.846 1193.42 562.846Z" stroke="url(#paint18_linear_644_1483)" stroke-opacity="1" class="knHnggfM_18"></path>
    <path d="M787.418 526.736C585.168 526.736 583.251 556.274 380.709 556.274C129.75 556.274 105.083 537.511 -259.209 552.946V550.699C209.417 530.813 328.292 576.368 584.001 539.258C718.815 519.226 855.855 519.226 990.669 539.258C1274.84 580.612 1411.5 521.827 1803.42 547.371C1820.84 548.494 1838.84 549.659 1858.67 550.699V552.946C1775.09 548.785 1628 534.515 1396.88 549.617C1002.79 575.328 1036.38 526.736 787.418 526.736Z" stroke="url(#paint19_linear_644_1483)" stroke-opacity="1" class="knHnggfM_19"></path>
    <path d="M787.42 579.196C584.711 579.196 583.253 549.658 380.71 549.658C130.21 549.658 105.71 568.462 -259.291 552.944V550.698C209.877 570.626 328.21 525.029 584.128 562.18C651.334 572.736 719.307 577.662 787.336 576.908C1037.75 576.908 1002.8 528.357 1396.63 554.026C1624.92 568.962 1774.01 554.983 1858.42 550.698V552.944C1774.76 557.105 1628.25 571.416 1396.38 556.314C1016.5 531.477 1026.55 579.196 787.42 579.196Z" stroke="url(#paint20_linear_644_1483)" stroke-opacity="1" class="knHnggfM_20"></path>
    <path d="M787.419 631.615C584.919 631.615 582.627 543.084 380.71 543.084C128.626 543.084 107.043 599.58 -259.416 552.944L-259.124 550.697C-193.249 559.018 -146.291 568.711 -25.7906 568.711C42.1529 569.44 110.047 564.779 177.251 554.774C607.086 495.698 533.044 629.368 787.336 629.368C989.253 629.368 990.795 540.796 1193.34 540.796C1295.05 540.796 1346.75 550.947 1396.75 560.724C1530.72 587.704 1668.74 587.704 1802.71 560.724C1820.21 557.312 1838.3 553.734 1858.3 550.697L1858.63 552.902C1782.42 564.593 1736.75 582.898 1599.75 582.898C1396.96 582.898 1395.84 543.084 1193.34 543.084C990.836 543.084 990.003 631.615 787.419 631.615Z" stroke="url(#paint21_linear_644_1483)" stroke-opacity="1" class="knHnggfM_21"></path>
    <path d="M787.419 684.076C584.835 684.076 582.335 536.469 380.71 536.469C178.418 536.469 176.876 582.981 -25.7078 582.981C-146.041 582.981 -194.792 566.631 -259.5 552.943L-259.042 550.739C-194.208 564.426 -146.541 580.734 -25.7078 580.734C75.7507 580.734 127.334 568.919 177.251 557.52C607.252 459.046 533.377 681.788 787.419 681.788C989.169 681.788 990.711 534.222 1193.42 534.222C1396.13 534.222 1397.59 600.579 1599.84 600.579C1736.38 600.579 1781.84 570.209 1858.17 550.655L1858.75 552.86C1782.55 572.289 1736.8 602.784 1599.75 602.784C1397.09 602.784 1395.59 536.427 1193.34 536.427C1092.13 536.427 1040.71 573.87 991.003 610.023C941.294 646.176 889.419 684.076 787.419 684.076Z" stroke="url(#paint22_linear_644_1483)" stroke-opacity="1" class="knHnggfM_22"></path>
    <path d="M787.42 736.372C584.545 736.372 582.336 529.771 380.711 529.771C179.085 529.771 176.919 594.922 -25.7066 594.922C-146.54 594.922 -195.499 571.832 -259.582 552.82L-258.915 550.656C-193.915 569.96 -146.165 592.675 -25.5816 592.675C176.585 592.675 178.21 527.525 380.836 527.525C482.878 527.525 534.794 580.236 585.003 631.199C635.211 682.163 686.461 734.167 787.545 734.167C989.337 734.167 990.504 527.525 1193.55 527.525C1396.59 527.525 1397.71 620.424 1599.96 620.424C1736.59 620.424 1781.8 577.989 1858.3 550.656L1859.05 552.778C1781.92 580.361 1737.26 622.712 1599.96 622.712C1397.17 622.712 1395.8 529.813 1193.55 529.813C1092.42 529.813 1041.05 582.15 991.379 632.78C941.712 683.411 889.504 736.372 787.42 736.372Z" stroke="url(#paint23_linear_644_1483)" stroke-opacity="1" class="knHnggfM_23"></path>
    <path d="M787.42 788.958C584.253 788.958 582.419 523.281 380.71 523.281C179.002 523.281 177.168 607.028 -25.7072 607.028C-142.957 607.028 -188.416 580.028 -259.666 552.944L-258.833 550.864C-193.874 575.826 -146.082 604.948 -25.4988 604.948C176.793 604.948 178.002 521.201 380.919 521.201C483.044 521.201 535.086 588.931 585.086 654.331C635.086 719.731 686.544 786.711 787.545 786.711C989.212 786.711 990.42 521.076 1193.55 521.076C1396.67 521.076 1398.09 640.685 1599.84 640.685C1736.26 640.685 1781.71 586.06 1858.17 550.989L1859.09 553.027C1782.84 588.099 1737.13 642.931 1599.92 642.931C1397.38 642.931 1395.25 523.489 1193.5 523.489C1092.46 523.489 1041.09 590.803 991.42 655.87C941.753 720.937 889.587 788.958 787.42 788.958Z" stroke="url(#paint24_linear_644_1483)" stroke-opacity="1" class="knHnggfM_24"></path>
    <path d="M787.42 893.839C584.211 893.839 582.127 510.093 380.71 510.093C179.293 510.093 177.002 631.075 -25.7072 631.075C-146.166 631.075 -194.833 588.598 -259.791 552.819L-258.708 550.823C-195.708 585.561 -146.791 628.786 -25.7072 628.786C176.168 628.786 178.002 507.847 380.71 507.847C482.961 507.847 534.877 605.697 584.877 700.302C634.877 794.907 686.378 891.676 787.253 891.676C989.003 891.676 989.67 507.971 1193.25 507.971C1396.84 507.971 1397.71 680.499 1599.67 680.499C1700.84 680.499 1752.34 636.774 1802.13 594.506C1819.79 578.914 1838.37 564.383 1857.75 550.989L1859 552.861C1782.75 603.492 1736.96 682.745 1599.67 682.745C1396.59 682.745 1395.21 510.218 1193.25 510.218C1092.34 510.218 1040.96 607.444 991.253 701.592C941.545 795.739 889.711 893.839 787.42 893.839Z" stroke="url(#paint25_linear_644_1483)" stroke-opacity="1" class="knHnggfM_25"></path>
  </g>
  <defs>
    <linearGradient id="paint0_linear_644_1483" x1="-624.587" y1="632.285" x2="2504.02" y2="189.84" gradientUnits="userSpaceOnUse">
      <stop stop-color="#D844FF"></stop>
      <stop offset="1" stop-color="#28B7FF"></stop>
    </linearGradient>
    <linearGradient id="paint1_linear_644_1483" x1="-624.587" y1="622.797" x2="2486.87" y2="124.774" gradientUnits="userSpaceOnUse">
      <stop stop-color="#D844FF"></stop>
      <stop offset="1" stop-color="#28B7FF"></stop>
    </linearGradient>
    <linearGradient id="paint2_linear_644_1483" x1="-624.587" y1="613.357" x2="2461.71" y2="44.4197" gradientUnits="userSpaceOnUse">
      <stop stop-color="#D844FF"></stop>
      <stop offset="1" stop-color="#28B7FF"></stop>
    </linearGradient>
    <linearGradient id="paint3_linear_644_1483" x1="-624.587" y1="603.87" x2="2422.65" y2="-58.4101" gradientUnits="userSpaceOnUse">
      <stop stop-color="#D844FF"></stop>
      <stop offset="1" stop-color="#28B7FF"></stop>
    </linearGradient>
    <linearGradient id="paint4_linear_644_1483" x1="-624.587" y1="594.438" x2="2357.73" y2="-194.794" gradientUnits="userSpaceOnUse">
      <stop stop-color="#D844FF"></stop>
      <stop offset="1" stop-color="#28B7FF"></stop>
    </linearGradient>
    <linearGradient id="paint5_linear_644_1483" x1="-624.58" y1="584.95" x2="2238.69" y2="-383.917" gradientUnits="userSpaceOnUse">
      <stop stop-color="#D844FF"></stop>
      <stop offset="1" stop-color="#28B7FF"></stop>
    </linearGradient>
    <linearGradient id="paint6_linear_644_1483" x1="-624.537" y1="575.584" x2="1991.89" y2="-650.236" gradientUnits="userSpaceOnUse">
      <stop stop-color="#D844FF"></stop>
      <stop offset="1" stop-color="#28B7FF"></stop>
    </linearGradient>
    <linearGradient id="paint7_linear_644_1483" x1="-624.508" y1="567.052" x2="1404.67" y2="-968.039" gradientUnits="userSpaceOnUse">
      <stop stop-color="#D844FF"></stop>
      <stop offset="1" stop-color="#28B7FF"></stop>
    </linearGradient>
    <linearGradient id="paint8_linear_644_1483" x1="-624.587" y1="557.011" x2="-3.92469" y2="-706.088" gradientUnits="userSpaceOnUse">
      <stop stop-color="#D844FF"></stop>
      <stop offset="1" stop-color="#28B7FF"></stop>
    </linearGradient>
    <linearGradient id="paint9_linear_644_1483" x1="-624.58" y1="722.208" x2="2524.73" y2="359.388" gradientUnits="userSpaceOnUse">
      <stop stop-color="#D844FF"></stop>
      <stop offset="1" stop-color="#28B7FF"></stop>
    </linearGradient>
    <linearGradient id="paint10_linear_644_1483" x1="-624.522" y1="706.224" x2="2515.59" y2="306.53" gradientUnits="userSpaceOnUse">
      <stop stop-color="#D844FF"></stop>
      <stop offset="1" stop-color="#28B7FF"></stop>
    </linearGradient>
    <linearGradient id="paint11_linear_644_1483" x1="-624.467" y1="689.993" x2="2503.09" y2="245.036" gradientUnits="userSpaceOnUse">
      <stop stop-color="#D844FF"></stop>
      <stop offset="1" stop-color="#28B7FF"></stop>
    </linearGradient>
    <linearGradient id="paint12_linear_644_1483" x1="-624.361" y1="673.978" x2="2485.66" y2="173.146" gradientUnits="userSpaceOnUse">
      <stop stop-color="#D844FF"></stop>
      <stop offset="1" stop-color="#28B7FF"></stop>
    </linearGradient>
    <linearGradient id="paint13_linear_644_1483" x1="-624.306" y1="657.869" x2="2459.91" y2="85.1995" gradientUnits="userSpaceOnUse">
      <stop stop-color="#D844FF"></stop>
      <stop offset="1" stop-color="#28B7FF"></stop>
    </linearGradient>
    <linearGradient id="paint14_linear_644_1483" x1="-624.194" y1="641.836" x2="2420" y2="-25.0689" gradientUnits="userSpaceOnUse">
      <stop stop-color="#D844FF"></stop>
      <stop offset="1" stop-color="#28B7FF"></stop>
    </linearGradient>
    <linearGradient id="paint15_linear_644_1483" x1="-624.34" y1="625.68" x2="2352.54" y2="-171.029" gradientUnits="userSpaceOnUse">
      <stop stop-color="#D844FF"></stop>
      <stop offset="1" stop-color="#28B7FF"></stop>
    </linearGradient>
    <linearGradient id="paint16_linear_644_1483" x1="-624.144" y1="609.604" x2="2229.89" y2="-369.408" gradientUnits="userSpaceOnUse">
      <stop stop-color="#D844FF"></stop>
      <stop offset="1" stop-color="#28B7FF"></stop>
    </linearGradient>
    <linearGradient id="paint17_linear_644_1483" x1="-623.941" y1="593.543" x2="1972.15" y2="-647.69" gradientUnits="userSpaceOnUse">
      <stop stop-color="#D844FF"></stop>
      <stop offset="1" stop-color="#28B7FF"></stop>
    </linearGradient>
    <linearGradient id="paint18_linear_644_1483" x1="-623.74" y1="577.441" x2="1342.2" y2="-973.339" gradientUnits="userSpaceOnUse">
      <stop stop-color="#D844FF"></stop>
      <stop offset="1" stop-color="#28B7FF"></stop>
    </linearGradient>
    <linearGradient id="paint19_linear_644_1483" x1="-623.538" y1="562.408" x2="-68.3588" y2="-646.805" gradientUnits="userSpaceOnUse">
      <stop stop-color="#D844FF"></stop>
      <stop offset="1" stop-color="#28B7FF"></stop>
    </linearGradient>
    <linearGradient id="paint20_linear_644_1483" x1="-623.591" y1="584.444" x2="-74.7786" y2="-619.21" gradientUnits="userSpaceOnUse">
      <stop stop-color="#D844FF"></stop>
      <stop offset="1" stop-color="#28B7FF"></stop>
    </linearGradient>
    <linearGradient id="paint21_linear_644_1483" x1="-623.773" y1="646.386" x2="1360.13" y2="-899.943" gradientUnits="userSpaceOnUse">
      <stop stop-color="#D844FF"></stop>
      <stop offset="1" stop-color="#28B7FF"></stop>
    </linearGradient>
    <linearGradient id="paint22_linear_644_1483" x1="-623.893" y1="708.453" x2="1983.8" y2="-523.266" gradientUnits="userSpaceOnUse">
      <stop stop-color="#D844FF"></stop>
      <stop offset="1" stop-color="#28B7FF"></stop>
    </linearGradient>
    <linearGradient id="paint23_linear_644_1483" x1="-624.04" y1="769.935" x2="2230" y2="-209.334" gradientUnits="userSpaceOnUse">
      <stop stop-color="#D844FF"></stop>
      <stop offset="1" stop-color="#28B7FF"></stop>
    </linearGradient>
    <linearGradient id="paint24_linear_644_1483" x1="-624.145" y1="832.008" x2="2353.03" y2="35.5624" gradientUnits="userSpaceOnUse">
      <stop stop-color="#D844FF"></stop>
      <stop offset="1" stop-color="#28B7FF"></stop>
    </linearGradient>
    <linearGradient id="paint25_linear_644_1483" x1="-624.277" y1="955.87" x2="2459.71" y2="383.288" gradientUnits="userSpaceOnUse">
      <stop stop-color="#D844FF"></stop>
      <stop offset="1" stop-color="#28B7FF"></stop>
    </linearGradient>
  </defs>
<style data-made-with="vivus-instant">.knHnggfM_0{stroke-dasharray:7009 7011;stroke-dashoffset:7010;}.start .knHnggfM_0{animation:knHnggfM_draw_0 5000ms linear 0ms infinite,knHnggfM_fade 5000ms linear 0ms infinite;}.knHnggfM_1{stroke-dasharray:6551 6553;stroke-dashoffset:6552;}.start .knHnggfM_1{animation:knHnggfM_draw_1 5000ms linear 0ms infinite,knHnggfM_fade 5000ms linear 0ms infinite;}.knHnggfM_2{stroke-dasharray:6109 6111;stroke-dashoffset:6110;}.start .knHnggfM_2{animation:knHnggfM_draw_2 5000ms linear 0ms infinite,knHnggfM_fade 5000ms linear 0ms infinite;}.knHnggfM_3{stroke-dasharray:5689 5691;stroke-dashoffset:5690;}.start .knHnggfM_3{animation:knHnggfM_draw_3 5000ms linear 0ms infinite,knHnggfM_fade 5000ms linear 0ms infinite;}.knHnggfM_4{stroke-dasharray:5297 5299;stroke-dashoffset:5298;}.start .knHnggfM_4{animation:knHnggfM_draw_4 5000ms linear 0ms infinite,knHnggfM_fade 5000ms linear 0ms infinite;}.knHnggfM_5{stroke-dasharray:4943 4945;stroke-dashoffset:4944;}.start .knHnggfM_5{animation:knHnggfM_draw_5 5000ms linear 0ms infinite,knHnggfM_fade 5000ms linear 0ms infinite;}.knHnggfM_6{stroke-dasharray:4637 4639;stroke-dashoffset:4638;}.start .knHnggfM_6{animation:knHnggfM_draw_6 5000ms linear 0ms infinite,knHnggfM_fade 5000ms linear 0ms infinite;}.knHnggfM_7{stroke-dasharray:4401 4403;stroke-dashoffset:4402;}.start .knHnggfM_7{animation:knHnggfM_draw_7 5000ms linear 0ms infinite,knHnggfM_fade 5000ms linear 0ms infinite;}.knHnggfM_8{stroke-dasharray:4267 4269;stroke-dashoffset:4268;}.start .knHnggfM_8{animation:knHnggfM_draw_8 5000ms linear 0ms infinite,knHnggfM_fade 5000ms linear 0ms infinite;}.knHnggfM_9{stroke-dasharray:6341 6343;stroke-dashoffset:6342;}.start .knHnggfM_9{animation:knHnggfM_draw_9 5000ms linear 0ms infinite,knHnggfM_fade 5000ms linear 0ms infinite;}.knHnggfM_10{stroke-dasharray:6045 6047;stroke-dashoffset:6046;}.start .knHnggfM_10{animation:knHnggfM_draw_10 5000ms linear 0ms infinite,knHnggfM_fade 5000ms linear 0ms infinite;}.knHnggfM_11{stroke-dasharray:5760 5762;stroke-dashoffset:5761;}.start .knHnggfM_11{animation:knHnggfM_draw_11 5000ms linear 0ms infinite,knHnggfM_fade 5000ms linear 0ms infinite;}.knHnggfM_12{stroke-dasharray:5487 5489;stroke-dashoffset:5488;}.start .knHnggfM_12{animation:knHnggfM_draw_12 5000ms linear 0ms infinite,knHnggfM_fade 5000ms linear 0ms infinite;}.knHnggfM_13{stroke-dasharray:5229 5231;stroke-dashoffset:5230;}.start .knHnggfM_13{animation:knHnggfM_draw_13 5000ms linear 0ms infinite,knHnggfM_fade 5000ms linear 0ms infinite;}.knHnggfM_14{stroke-dasharray:4989 4991;stroke-dashoffset:4990;}.start .knHnggfM_14{animation:knHnggfM_draw_14 5000ms linear 0ms infinite,knHnggfM_fade 5000ms linear 0ms infinite;}.knHnggfM_15{stroke-dasharray:4770 4772;stroke-dashoffset:4771;}.start .knHnggfM_15{animation:knHnggfM_draw_15 5000ms linear 0ms infinite,knHnggfM_fade 5000ms linear 0ms infinite;}.knHnggfM_16{stroke-dasharray:4579 4581;stroke-dashoffset:4580;}.start .knHnggfM_16{animation:knHnggfM_draw_16 5000ms linear 0ms infinite,knHnggfM_fade 5000ms linear 0ms infinite;}.knHnggfM_17{stroke-dasharray:4422 4424;stroke-dashoffset:4423;}.start .knHnggfM_17{animation:knHnggfM_draw_17 5000ms linear 0ms infinite,knHnggfM_fade 5000ms linear 0ms infinite;}.knHnggfM_18{stroke-dasharray:4308 4310;stroke-dashoffset:4309;}.start .knHnggfM_18{animation:knHnggfM_draw_18 5000ms linear 0ms infinite,knHnggfM_fade 5000ms linear 0ms infinite;}.knHnggfM_19{stroke-dasharray:4248 4250;stroke-dashoffset:4249;}.start .knHnggfM_19{animation:knHnggfM_draw_19 5000ms linear 0ms infinite,knHnggfM_fade 5000ms linear 0ms infinite;}.knHnggfM_20{stroke-dasharray:4248 4250;stroke-dashoffset:4249;}.start .knHnggfM_20{animation:knHnggfM_draw_20 5000ms linear 0ms infinite,knHnggfM_fade 5000ms linear 0ms infinite;}.knHnggfM_21{stroke-dasharray:4308 4310;stroke-dashoffset:4309;}.start .knHnggfM_21{animation:knHnggfM_draw_21 5000ms linear 0ms infinite,knHnggfM_fade 5000ms linear 0ms infinite;}.knHnggfM_22{stroke-dasharray:4422 4424;stroke-dashoffset:4423;}.start .knHnggfM_22{animation:knHnggfM_draw_22 5000ms linear 0ms infinite,knHnggfM_fade 5000ms linear 0ms infinite;}.knHnggfM_23{stroke-dasharray:4579 4581;stroke-dashoffset:4580;}.start .knHnggfM_23{animation:knHnggfM_draw_23 5000ms linear 0ms infinite,knHnggfM_fade 5000ms linear 0ms infinite;}.knHnggfM_24{stroke-dasharray:4770 4772;stroke-dashoffset:4771;}.start .knHnggfM_24{animation:knHnggfM_draw_24 5000ms linear 0ms infinite,knHnggfM_fade 5000ms linear 0ms infinite;}.knHnggfM_25{stroke-dasharray:5229 5231;stroke-dashoffset:5230;}.start .knHnggfM_25{animation:knHnggfM_draw_25 5000ms linear 0ms infinite,knHnggfM_fade 5000ms linear 0ms infinite;}@keyframes knHnggfM_draw{100%{stroke-dashoffset:0;}}@keyframes knHnggfM_fade{0%{stroke-opacity:1;}100%{stroke-opacity:1;}100%{stroke-opacity:0;}}@keyframes knHnggfM_draw_0{0%{stroke-dashoffset: 7010}100%{ stroke-dashoffset: 0;}100%{ stroke-dashoffset: 0;}}@keyframes knHnggfM_draw_1{0%{stroke-dashoffset: 6552}100%{ stroke-dashoffset: 0;}100%{ stroke-dashoffset: 0;}}@keyframes knHnggfM_draw_2{0%{stroke-dashoffset: 6110}100%{ stroke-dashoffset: 0;}100%{ stroke-dashoffset: 0;}}@keyframes knHnggfM_draw_3{0%{stroke-dashoffset: 5690}100%{ stroke-dashoffset: 0;}100%{ stroke-dashoffset: 0;}}@keyframes knHnggfM_draw_4{0%{stroke-dashoffset: 5298}100%{ stroke-dashoffset: 0;}100%{ stroke-dashoffset: 0;}}@keyframes knHnggfM_draw_5{0%{stroke-dashoffset: 4944}100%{ stroke-dashoffset: 0;}100%{ stroke-dashoffset: 0;}}@keyframes knHnggfM_draw_6{0%{stroke-dashoffset: 4638}100%{ stroke-dashoffset: 0;}100%{ stroke-dashoffset: 0;}}@keyframes knHnggfM_draw_7{0%{stroke-dashoffset: 4402}100%{ stroke-dashoffset: 0;}100%{ stroke-dashoffset: 0;}}@keyframes knHnggfM_draw_8{0%{stroke-dashoffset: 4268}100%{ stroke-dashoffset: 0;}100%{ stroke-dashoffset: 0;}}@keyframes knHnggfM_draw_9{0%{stroke-dashoffset: 6342}100%{ stroke-dashoffset: 0;}100%{ stroke-dashoffset: 0;}}@keyframes knHnggfM_draw_10{0%{stroke-dashoffset: 6046}100%{ stroke-dashoffset: 0;}100%{ stroke-dashoffset: 0;}}@keyframes knHnggfM_draw_11{0%{stroke-dashoffset: 5761}100%{ stroke-dashoffset: 0;}100%{ stroke-dashoffset: 0;}}@keyframes knHnggfM_draw_12{0%{stroke-dashoffset: 5488}100%{ stroke-dashoffset: 0;}100%{ stroke-dashoffset: 0;}}@keyframes knHnggfM_draw_13{0%{stroke-dashoffset: 5230}100%{ stroke-dashoffset: 0;}100%{ stroke-dashoffset: 0;}}@keyframes knHnggfM_draw_14{0%{stroke-dashoffset: 4990}100%{ stroke-dashoffset: 0;}100%{ stroke-dashoffset: 0;}}@keyframes knHnggfM_draw_15{0%{stroke-dashoffset: 4771}100%{ stroke-dashoffset: 0;}100%{ stroke-dashoffset: 0;}}@keyframes knHnggfM_draw_16{0%{stroke-dashoffset: 4580}100%{ stroke-dashoffset: 0;}100%{ stroke-dashoffset: 0;}}@keyframes knHnggfM_draw_17{0%{stroke-dashoffset: 4423}100%{ stroke-dashoffset: 0;}100%{ stroke-dashoffset: 0;}}@keyframes knHnggfM_draw_18{0%{stroke-dashoffset: 4309}100%{ stroke-dashoffset: 0;}100%{ stroke-dashoffset: 0;}}@keyframes knHnggfM_draw_19{0%{stroke-dashoffset: 4249}100%{ stroke-dashoffset: 0;}100%{ stroke-dashoffset: 0;}}@keyframes knHnggfM_draw_20{0%{stroke-dashoffset: 4249}100%{ stroke-dashoffset: 0;}100%{ stroke-dashoffset: 0;}}@keyframes knHnggfM_draw_21{0%{stroke-dashoffset: 4309}100%{ stroke-dashoffset: 0;}100%{ stroke-dashoffset: 0;}}@keyframes knHnggfM_draw_22{0%{stroke-dashoffset: 4423}100%{ stroke-dashoffset: 0;}100%{ stroke-dashoffset: 0;}}@keyframes knHnggfM_draw_23{0%{stroke-dashoffset: 4580}100%{ stroke-dashoffset: 0;}100%{ stroke-dashoffset: 0;}}@keyframes knHnggfM_draw_24{0%{stroke-dashoffset: 4771}100%{ stroke-dashoffset: 0;}100%{ stroke-dashoffset: 0;}}@keyframes knHnggfM_draw_25{0%{stroke-dashoffset: 5230}100%{ stroke-dashoffset: 0;}100%{ stroke-dashoffset: 0;}}</style></svg>
