<svg width="1537" height="649" viewBox="0 0 1537 649" fill="none" xmlns="http://www.w3.org/2000/svg">
<g opacity="0.2">
<path d="M0 399.871V396.247C75.9057 396.247 75.9662 314.34 153.685 314.34C231.404 314.34 231.434 396.247 307.4 396.247C382.732 396.247 382.943 232.433 461.085 232.433C539.227 232.433 539.378 396.217 614.74 396.217C690.101 396.217 690.645 281.45 768.455 281.45C846.264 281.45 846.476 396.217 922.17 396.217C996.988 396.217 997.35 31.8936 1076.04 31.8936C1154.72 31.8936 1154.78 396.186 1229.57 396.186C1305.11 396.186 1305.11 232.403 1383.28 232.403C1461.46 232.403 1461.46 396.186 1537 396.186V399.811C1458.83 399.811 1458.71 236.027 1383.28 236.027C1307.86 236.027 1307.74 399.811 1229.57 399.811C1151.4 399.811 1150.82 35.5178 1076.04 35.5178C1001.25 35.5178 1000.86 399.841 922.17 399.841C844.24 399.841 844.149 285.074 768.455 285.074C692.76 285.074 692.579 399.841 614.74 399.841C536.9 399.841 536.477 236.057 461.085 236.057C385.693 236.057 385.542 399.871 307.4 399.871C229.258 399.871 229.681 317.964 153.685 317.964C77.6886 317.964 77.7187 399.871 0 399.871Z" fill="url(#paint0_linear_644_1699)" fill-opacity="0.5"/>
<path d="M0 399.871V396.277C75.9964 396.277 76.0568 324.004 153.715 324.004C231.373 324.004 231.313 396.247 307.4 396.247C382.943 396.247 382.943 251.701 461.115 251.701C539.287 251.701 539.438 396.216 614.74 396.216C690.041 396.216 690.706 294.89 768.455 294.89C846.204 294.89 846.536 396.216 922.17 396.186C997.018 396.186 997.441 74.7495 1076.07 74.7495C1154.69 74.7495 1154.63 396.186 1229.57 396.186C1304.51 396.186 1305.11 251.641 1383.32 251.641C1461.52 251.641 1461.67 396.156 1537 396.156V399.78C1459.1 399.78 1458.65 255.265 1383.32 255.265C1307.98 255.265 1307.59 399.78 1229.57 399.81C1150.55 399.81 1151.28 78.3738 1076.07 78.3738C1000.86 78.3738 1000.8 399.81 922.17 399.81C844.451 399.81 844.119 298.514 768.455 298.514C692.791 298.514 692.489 399.841 614.74 399.841C536.991 399.841 536.416 255.325 461.266 255.325C386.116 255.325 385.723 399.871 307.551 399.871C229.379 399.871 229.923 327.598 153.866 327.598C77.8094 327.598 77.6583 399.871 0 399.871Z" fill="url(#paint1_linear_644_1699)" fill-opacity="0.5"/>
<path d="M0 399.9V396.276C76.1777 396.276 76.087 333.638 153.715 333.638C231.343 333.638 231.132 396.246 307.4 396.246C382.943 396.246 383.306 270.999 461.115 270.969C538.925 270.939 539.348 396.216 614.74 396.216C690.615 396.216 690.706 308.389 768.485 308.389C846.264 308.389 846.325 396.185 922.17 396.185C996.988 396.185 997.713 117.605 1076.1 117.605C1154.48 117.605 1154.66 396.155 1229.57 396.155C1305.11 396.155 1305.45 270.909 1383.32 270.909C1461.18 270.909 1461.46 396.125 1537 396.125V399.749C1459.04 399.749 1458.89 274.503 1383.32 274.503C1307.74 274.503 1307.53 399.779 1229.57 399.779C1151.61 399.779 1151.01 121.229 1076.1 121.229C1001.19 121.229 1000.55 399.81 922.17 399.81C844.451 399.81 844.33 311.983 768.485 312.013C692.64 312.043 692.398 399.84 614.74 399.84C537.081 399.84 536.507 274.593 461.266 274.593C386.025 274.593 385.451 399.87 307.551 399.87C229.651 399.87 229.983 337.262 153.866 337.262C116.004 337.262 97.5715 352.363 78.0209 368.219C58.4704 384.075 38.9802 399.9 0 399.9Z" fill="url(#paint2_linear_644_1699)" fill-opacity="0.5"/>
<path d="M0 399.9V396.276C76.2381 396.276 76.2381 343.272 153.715 343.272C231.222 343.272 231.132 396.246 307.37 396.246C382.913 396.246 383.306 290.268 461.085 290.268C538.864 290.268 539.045 396.216 614.709 396.216C690.373 396.216 690.796 321.889 768.455 321.889C846.113 321.889 846.083 396.186 922.14 396.186C997.229 396.186 997.683 160.461 1076.25 160.461C1154.81 160.461 1154.81 396.035 1229.69 396.035C1305.23 396.035 1305.63 290.027 1383.47 290.027C1461.31 290.027 1461.46 396.125 1537 396.125V399.749C1459.19 399.749 1459.01 293.772 1383.35 293.772C1307.68 293.772 1307.38 399.78 1229.57 399.78C1151.28 399.78 1151.01 164.055 1076.13 164.055C1001.25 164.055 1000.58 399.81 922.019 399.81C844.27 399.81 844.421 325.514 768.334 325.514C692.247 325.514 692.277 399.84 614.588 399.84C536.9 399.84 536.809 293.862 461.266 293.862C385.723 293.862 385.33 399.87 307.551 399.87C230.074 399.87 230.165 346.896 153.927 346.896C77.5072 346.927 77.5072 399.9 0 399.9Z" fill="url(#paint3_linear_644_1699)" fill-opacity="0.5"/>
<path d="M0 399.931V396.307C75.7848 396.307 76.7216 352.937 153.715 352.937C163.717 354.809 183.63 347.893 231.343 374.803C250.048 385.343 269.387 396.276 307.37 396.276C382.913 396.276 383.487 309.537 461.085 309.537C538.713 309.537 538.894 396.216 614.679 396.216C691.008 396.216 690.706 335.42 768.424 335.39C846.113 335.39 845.871 396.186 922.079 396.186C997.139 396.186 997.894 203.288 1076.19 203.288C1154.48 203.288 1154.54 396.156 1229.63 396.125C1305.48 396.125 1305.66 309.416 1383.41 309.386C1461.15 309.356 1461.15 396.095 1537 396.095V399.719C1459.25 399.719 1459.25 313.01 1383.35 313.01C1307.44 313.01 1307.35 399.75 1229.57 399.75C1151.4 399.75 1151.25 206.912 1076.13 206.912C1001.01 206.912 1000.31 399.78 922.019 399.81C844.27 399.81 844.723 339.014 768.364 339.014C692.065 339.014 692.368 399.84 614.619 399.84C536.96 399.84 536.87 313.161 461.024 313.161C385.481 313.161 384.937 399.871 307.309 399.871C230.225 399.871 229.651 356.561 153.685 356.561C143.864 358.404 124.344 351.638 77.5979 378.035C58.561 388.786 38.8292 399.931 0 399.931Z" fill="url(#paint4_linear_644_1699)" fill-opacity="0.5"/>
<path d="M0 399.931V396.307C75.5431 396.307 77.054 362.572 153.715 362.572C163.264 363.991 183.63 358.676 231.192 379.545C249.927 387.76 269.296 396.277 307.37 396.277C383.487 396.277 383.487 328.806 461.115 328.806C538.713 328.806 538.592 396.216 614.679 396.216C691.068 396.216 690.887 348.92 768.424 348.92C845.871 348.92 845.75 396.186 922.049 396.186C997.592 396.186 997.924 246.144 1076.16 246.144C1154.36 246.144 1154.03 396.126 1229.57 396.126C1305.69 396.126 1305.72 328.655 1383.35 328.655C1460.97 328.655 1460.85 396.065 1536.97 396.065V399.69C1459.31 399.69 1459.46 332.279 1383.35 332.279C1307.35 332.219 1307.35 399.72 1229.57 399.75C1151.37 399.75 1151.7 249.768 1076.16 249.768C1000.61 249.768 1000.25 399.78 922.049 399.78C912.47 397.817 892.043 405.247 844.36 375.921C824.81 363.84 806.347 352.514 768.394 352.514C692.035 352.514 692.186 399.84 614.649 399.84C537.021 399.84 537.172 332.43 461.085 332.43C384.968 332.43 384.968 399.871 307.34 399.901C230.799 399.901 229.47 366.196 153.745 366.196C143.804 367.676 124.404 362.33 77.477 382.928C58.4402 391.293 38.7385 399.931 0 399.931Z" fill="url(#paint5_linear_644_1699)" fill-opacity="0.5"/>
<path d="M0 399.961V396.337C75.8453 396.337 77.1446 372.175 153.715 372.175C163.929 373.263 183.419 369.367 231.041 384.256C255.562 392.748 281.393 396.838 307.34 396.337C383.699 396.337 383.547 348.014 461.085 348.014C538.532 348.014 538.35 396.155 614.619 396.155C624.53 394.676 643.96 400.021 690.887 379.393C709.954 371.028 729.656 362.36 768.394 362.36C844.904 362.36 846.173 396.095 921.958 396.095C997.501 396.095 998.227 288.939 1076.07 288.939C1153.75 288.939 1153.88 396.035 1229.42 396.035C1305.81 396.035 1305.66 347.863 1383.19 347.712C1460.67 347.712 1460.49 395.884 1536.79 395.884V399.508C1459.34 399.508 1459.52 351.185 1383.22 351.185C1306.84 351.185 1307.02 399.508 1229.45 399.508C1151.76 399.508 1151.61 292.413 1076.07 292.413C1000.52 292.413 999.798 399.568 921.958 399.568C911.805 398.058 892.134 403.525 844.481 382.565C825.747 374.32 806.408 365.833 768.334 365.833C692.791 365.833 691.25 399.629 614.589 399.629C537.172 399.629 537.353 351.487 461.055 351.487C384.696 351.487 384.847 399.81 307.309 399.81C297.096 398.723 277.606 402.619 229.983 387.729C205.469 379.251 179.651 375.162 153.715 375.648C143.774 376.706 124.253 372.9 77.2353 387.729C52.4066 396.3 26.2634 400.44 0 399.961Z" fill="url(#paint6_linear_644_1699)" fill-opacity="0.5"/>
<path d="M0 399.961V396.337C76.3892 396.337 76.9029 381.87 153.715 381.87C179.613 381.533 205.474 383.953 230.86 389.088C277.032 397.786 307.944 396.276 307.4 396.276C383.457 396.276 384.333 367.373 461.145 367.343C537.776 367.343 538.683 396.216 614.649 396.216C690.676 396.216 691.794 375.95 768.424 375.92C844.995 375.92 845.841 396.155 921.898 396.155C998.166 396.155 998.196 331.856 1076.01 331.826C1153.6 331.826 1153.24 396.095 1229.33 396.095C1239.21 394.826 1258.7 399.387 1305.69 381.719C1330.21 371.517 1356.61 366.558 1383.16 367.162C1459.8 367.162 1460.7 396.035 1536.67 396.035V399.659C1460.04 399.659 1459.13 370.786 1383.16 370.786C1307.08 370.786 1306.2 399.689 1229.36 399.719C1151.79 399.719 1152.15 335.45 1076.04 335.45C980.701 335.48 1008.2 432.639 845.025 389.602C799.216 377.521 768.062 379.484 768.606 379.544C692.579 379.544 691.461 399.81 614.83 399.84C604.738 398.571 585.066 403.192 537.474 385.313C513.357 375.248 487.394 370.36 461.266 370.967C385.24 370.967 384.333 399.9 307.521 399.9H307.158C230.618 399.9 229.923 385.494 153.745 385.494C77.5677 385.494 76.7216 399.961 0 399.961Z" fill="url(#paint7_linear_644_1699)" fill-opacity="0.5"/>
<path d="M0 399.991V396.367C85.8774 396.367 120.355 387.035 230.678 393.89C397.508 404.34 407.359 375.045 538.169 391.444C635.861 403.525 685.599 389.421 768.787 389.421C844.965 389.421 845.871 396.156 921.868 396.156C998.619 396.156 999.163 374.712 1076.22 374.682C1086.25 375.618 1106.04 372.206 1153.33 385.434C1239 409.414 1295.11 386.4 1383.59 386.4C1460.1 386.4 1460.49 396.005 1537 396.005V399.629C1453 399.629 1417.4 380.964 1306.68 394.857C1159.19 413.37 1167.93 378.306 1076.34 378.306C1000.19 378.306 999.012 399.75 922.23 399.78C839.223 399.78 801.633 386.763 691.824 396.427C565.455 407.572 548.111 390.236 461.447 390.236C368.258 390.236 374.724 406.515 230.527 397.515C120.506 390.629 82.9463 399.961 0 399.991Z" fill="url(#paint8_linear_644_1699)" fill-opacity="0.5"/>
<path d="M1054.04 451.696C906.487 451.696 905.55 1.69129 759.601 1.69129C613.652 1.69129 612.232 451.696 464.651 451.696C317.07 451.696 316.405 309.749 169.912 309.749C82.2816 309.749 46.2022 361.091 1.08782 401.109L0 399.901C45.6583 359.219 81.5866 308.118 169.912 308.118C243.914 308.118 281.504 344.36 317.976 379.273C354.448 414.186 391.283 450.005 464.651 450.005C610.63 450.005 612.02 0 759.601 0C907.182 0 908.089 450.005 1054.04 450.005C1199.99 450.005 1201.62 247.654 1348.78 247.654C1448.49 247.654 1481.73 340.584 1536.97 399.961L1535.76 401.078C1480.37 341.611 1447.47 249.285 1348.78 249.285C1202.71 249.375 1201.2 451.696 1054.04 451.696Z" fill="url(#paint9_linear_644_1699)" fill-opacity="0.5"/>
<path d="M1054.04 446.985C906.366 446.985 905.762 39.8359 759.601 39.8359C613.44 39.8359 612.171 446.985 464.651 446.985C317.13 446.985 316.344 318.628 169.912 318.628C82.2816 318.628 46.2929 364.836 1.05765 401.29L0.0302734 400.021C45.7187 363.175 81.6168 316.997 169.912 316.997C243.883 316.997 281.474 349.705 317.825 381.357C354.176 413.008 391.253 445.324 464.651 445.324C610.66 445.324 612.081 38.1748 759.601 38.1748C907.122 38.1748 907.907 445.324 1054.04 445.324C1200.17 445.324 1201.56 262.271 1348.78 262.271C1448.49 262.271 1481.73 346.353 1536.94 400.082L1535.79 401.259C1480.46 347.5 1447.47 263.902 1348.78 263.902C1202.59 263.842 1201.26 446.985 1054.04 446.985Z" fill="url(#paint10_linear_644_1699)" fill-opacity="0.5"/>
<path d="M1054.04 442.122C906.457 442.122 905.732 77.8295 759.601 77.8295C613.471 77.8295 612.141 442.122 464.651 442.122C317.16 442.122 316.254 327.356 169.912 327.356C82.8558 327.356 47.4714 367.856 1.0275 401.32L0.0605469 399.991C45.6282 367.132 81.6471 325.695 169.912 325.695C243.883 325.695 281.444 354.99 317.765 383.289C354.086 411.588 391.253 440.673 464.651 440.673C610.66 440.673 612.111 76.3799 759.601 76.3799C907.092 76.3799 907.938 440.673 1054.04 440.673C1200.14 440.673 1201.62 276.889 1348.78 276.889C1448.49 276.889 1481.52 352.031 1536.91 400.172L1535.82 401.41C1480.46 353.269 1447.5 278.52 1348.78 278.52C1275.47 278.52 1238.12 320.017 1202.01 360.064C1165.9 400.112 1128.1 442.122 1054.04 442.122Z" fill="url(#paint11_linear_644_1699)" fill-opacity="0.5"/>
<path d="M1054.04 437.351C906.518 437.351 905.732 115.914 759.601 115.914C613.471 115.914 612.353 437.351 464.651 437.351C316.949 437.351 316.224 336.024 169.912 336.024C82.735 336.024 47.1693 371.873 0.997397 401.29L0.121094 399.9C45.9909 370.726 81.7077 334.363 169.912 334.363C243.853 334.363 281.413 360.185 317.735 385.192C354.056 410.199 391.223 435.69 464.651 435.69C610.781 435.69 612.051 114.253 759.601 114.253C907.152 114.253 907.908 435.69 1054.04 435.69C1200.17 435.69 1201.38 291.174 1348.78 291.174C1448.49 291.174 1481.58 357.618 1536.88 399.9L1535.88 401.199C1480.55 358.826 1447.59 292.956 1348.78 292.956C1275.41 292.956 1238.09 329.591 1201.98 364.987C1165.87 400.384 1128.07 437.351 1054.04 437.351Z" fill="url(#paint12_linear_644_1699)" fill-opacity="0.5"/>
<path d="M1054.04 432.549C906.578 432.549 905.792 153.968 759.601 153.968C613.41 153.968 611.99 432.549 464.651 432.549C317.312 432.549 316.224 344.722 169.912 344.722C83.0675 344.722 47.9551 375.377 0.937022 401.32L0.151367 399.871C45.9003 374.652 81.7379 343.091 169.912 343.091C243.823 343.091 281.383 365.471 317.704 387.125C354.026 408.78 391.193 430.918 464.651 430.918C610.63 430.918 612.262 152.337 759.601 152.337C906.941 152.337 907.847 430.918 1054.04 430.918C1200.23 430.918 1201.56 305.671 1348.78 305.671C1448.34 305.671 1481.55 363.055 1536.85 399.931L1535.91 401.29C1480.49 364.444 1447.59 307.302 1348.78 307.302C1202.34 307.302 1201.26 432.549 1054.04 432.549Z" fill="url(#paint13_linear_644_1699)" fill-opacity="0.5"/>
<path d="M1054.04 427.777C906.639 427.777 905.823 192.052 759.602 192.052C613.38 192.052 612.02 427.777 464.651 427.777C317.281 427.777 316.375 353.36 169.912 353.36C84.3972 353.36 50.3423 378.155 0.876697 401.26L0.211914 399.749C45.9004 378.427 81.9496 351.729 169.912 351.729C243.793 351.729 281.323 370.665 317.644 388.967C353.965 407.27 391.163 426.025 464.651 426.025C610.812 426.025 612.232 190.301 759.602 190.301C906.971 190.301 907.666 426.025 1054.04 426.025C1200.41 426.025 1201.59 320.138 1348.78 320.138C1448.34 320.138 1481.46 368.763 1536.79 399.87L1535.97 401.32C1480.58 370.152 1447.65 321.769 1348.78 321.769C1202.37 321.769 1201.14 427.777 1054.04 427.777Z" fill="url(#paint14_linear_644_1699)" fill-opacity="0.5"/>
<path d="M1054.04 422.975C906.669 422.975 905.974 230.107 759.601 230.107C613.229 230.107 611.839 422.975 464.651 422.975C317.463 422.975 316.586 362.179 169.912 362.179C84.5782 362.179 50.7047 382.294 0.695179 401.441L0.0908203 399.931C46.0513 382.384 81.6774 360.669 169.761 360.669C243.612 360.669 281.141 376.132 317.432 391.112C353.723 406.093 390.981 421.465 464.5 421.465C610.63 421.465 612.262 228.597 759.45 228.597C906.638 228.597 907.515 421.465 1053.89 421.465C1200.26 421.465 1201.62 334.756 1348.63 334.756C1448.1 334.756 1481.31 374.532 1536.58 399.962L1535.88 401.472C1480.31 375.891 1447.68 336.387 1348.54 336.387C1202.37 336.266 1201.05 422.975 1054.04 422.975Z" fill="url(#paint15_linear_644_1699)" fill-opacity="0.5"/>
<path d="M1054.04 418.173C906.85 418.173 905.974 268.191 759.601 268.191C613.229 268.191 612.02 418.173 464.651 418.173C317.281 418.173 316.586 370.907 169.912 370.907C82.6748 370.907 47.1695 387.609 0.695401 401.381L0.211914 399.81C46.4745 386.099 81.7985 369.246 169.821 369.246C243.642 369.246 281.142 381.327 317.432 392.924C353.723 404.522 391.012 416.542 464.56 416.542C611.023 416.542 612.141 266.53 759.511 266.53C906.88 266.53 907.575 416.542 1053.95 416.542C1200.32 416.542 1202.01 349.102 1348.69 349.102C1448.1 349.102 1481.31 380.058 1536.58 399.81L1536 401.351C1480.43 381.478 1447.62 350.733 1348.66 350.733C1202.44 350.733 1200.83 418.173 1054.04 418.173Z" fill="url(#paint16_linear_644_1699)" fill-opacity="0.5"/>
<path d="M1054.04 413.4C907.122 413.4 905.974 306.245 759.602 306.245C613.229 306.245 611.537 413.4 464.651 413.4C317.765 413.4 316.768 379.635 169.912 379.635C82.2822 379.635 46.7165 391.715 0.695623 401.41L0.333008 399.81C46.8373 389.934 82.1311 377.974 169.882 377.974C243.642 377.974 281.142 386.581 317.433 394.887C628.187 466.102 575.216 304.614 759.572 304.614C906.518 304.614 907.636 411.769 1054.01 411.769C1200.38 411.769 1201.8 363.447 1348.75 363.447C1448.1 363.447 1481.28 385.554 1536.55 399.689L1536.15 401.259C1480.74 387.095 1447.8 365.017 1348.81 365.017C1202.16 365.229 1201.02 413.4 1054.04 413.4Z" fill="url(#paint17_linear_644_1699)" fill-opacity="0.5"/>
<path d="M1054.04 408.599C907.182 408.599 905.973 344.33 759.601 344.33C613.229 344.33 611.536 408.599 464.65 408.599C281.141 408.599 266.516 367.585 0.634421 401.411L0.453125 399.78C48.8007 393.74 82.4627 386.703 169.911 386.703C219.256 386.178 268.565 389.571 317.372 396.85C628.881 439.676 574.46 342.668 759.601 342.668C906.487 342.668 907.665 406.968 1054.04 406.968C1200.41 406.968 1201.89 378.065 1348.78 378.065C1448.07 378.065 1481.19 391.293 1536.52 399.78L1536.24 401.411C1490.74 394.404 1373.98 360.336 1201.56 394.132C1165.33 401.26 1127.8 408.599 1054.04 408.599Z" fill="url(#paint18_linear_644_1699)" fill-opacity="0.5"/>
<path d="M759.601 382.384C612.927 382.384 611.537 403.828 464.651 403.828C282.652 403.828 264.764 390.206 0.574219 401.411V399.78C340.428 385.344 426.637 418.415 612.081 391.475C709.849 376.933 809.232 376.933 907.001 391.475C1113.08 421.495 1212.2 378.82 1496.42 397.364C1509.05 398.18 1522.1 399.025 1536.49 399.78V401.411C1475.87 398.391 1369.2 388.032 1201.59 398.995C915.794 417.66 940.149 382.384 759.601 382.384Z" fill="url(#paint19_linear_644_1699)" fill-opacity="0.5"/>
<path d="M759.601 420.468C612.594 420.468 611.537 399.025 464.651 399.025C282.984 399.025 265.217 412.676 0.513672 401.411V399.78C340.76 414.247 426.577 381.146 612.171 408.116C660.91 415.778 710.205 419.354 759.541 418.807C941.146 418.807 915.794 383.562 1201.41 402.196C1366.97 413.039 1475.09 402.891 1536.31 399.78V401.411C1475.63 404.431 1369.39 414.82 1201.23 403.857C925.736 385.827 933.018 420.468 759.601 420.468Z" fill="url(#paint20_linear_644_1699)" fill-opacity="0.5"/>
<path d="M759.602 458.522C612.746 458.522 611.084 394.252 464.651 394.252C281.837 394.252 266.184 435.266 0.423828 401.41L0.635348 399.779C48.4088 405.82 82.4636 412.857 169.852 412.857C219.125 413.386 268.363 410.002 317.101 402.739C628.822 359.853 575.126 456.891 759.541 456.891C905.974 456.891 907.092 392.591 1053.98 392.591C1127.74 392.591 1165.24 399.961 1201.5 407.058C1298.66 426.644 1398.75 426.644 1495.91 407.058C1508.6 404.582 1521.71 401.984 1536.22 399.779L1536.46 401.38C1481.19 409.867 1448.07 423.155 1348.72 423.155C1201.65 423.155 1200.83 394.252 1053.98 394.252C907.122 394.252 906.518 458.522 759.602 458.522Z" fill="url(#paint21_linear_644_1699)" fill-opacity="0.5"/>
<path d="M759.602 496.606C612.685 496.606 610.872 389.45 464.651 389.45C317.946 389.45 316.828 423.216 169.912 423.216C82.6448 423.216 47.2907 411.346 0.363281 401.41L0.695673 399.809C47.7137 409.746 82.2822 421.585 169.912 421.585C243.491 421.585 280.9 413.007 317.1 404.732C628.942 333.245 575.367 494.945 759.602 494.945C905.914 494.945 907.032 387.819 1054.04 387.819C1201.05 387.819 1202.1 435.991 1348.78 435.991C1447.8 435.991 1480.77 413.944 1536.12 399.749L1536.55 401.35C1481.28 415.454 1448.1 437.592 1348.72 437.592C1201.74 437.592 1200.65 389.42 1053.98 389.42C980.58 389.42 943.292 416.601 907.243 442.847C871.194 469.092 833.574 496.606 759.602 496.606Z" fill="url(#paint22_linear_644_1699)" fill-opacity="0.5"/>
<path d="M759.602 534.57C612.474 534.57 610.872 384.588 464.651 384.588C318.43 384.588 316.859 431.884 169.912 431.884C82.2821 431.884 46.7769 415.122 0.302734 401.32L0.786221 399.749C47.9251 413.763 82.5541 430.253 170.003 430.253C316.617 430.253 317.795 382.957 464.742 382.957C538.744 382.957 576.394 421.223 612.806 458.22C649.218 495.217 686.385 532.969 759.692 532.969C906.034 532.969 906.88 382.957 1054.13 382.957C1201.38 382.957 1202.19 450.397 1348.87 450.397C1447.95 450.397 1480.74 419.592 1536.21 399.749L1536.76 401.289C1480.83 421.313 1448.43 452.059 1348.87 452.059C1201.8 452.059 1200.8 384.618 1054.13 384.618C980.792 384.618 943.534 422.612 907.515 459.367C871.496 496.123 833.634 534.57 759.602 534.57Z" fill="url(#paint23_linear_644_1699)" fill-opacity="0.5"/>
<path d="M759.602 572.745C612.262 572.745 610.933 379.877 464.651 379.877C318.369 379.877 317.04 440.673 169.912 440.673C84.8807 440.673 51.9137 421.072 0.242188 401.411L0.846523 399.901C47.9552 418.022 82.6144 439.163 170.063 439.163C316.768 439.163 317.644 378.367 464.802 378.367C538.865 378.367 576.606 427.535 612.867 475.012C649.127 522.49 686.446 571.114 759.692 571.114C905.944 571.114 906.82 378.276 1054.13 378.276C1201.44 378.276 1202.47 465.106 1348.78 465.106C1447.71 465.106 1480.68 425.451 1536.12 399.991L1536.79 401.471C1481.49 426.931 1448.34 466.737 1348.84 466.737C1201.95 466.737 1200.41 380.028 1054.1 380.028C980.822 380.028 943.564 428.894 907.545 476.13C871.526 523.365 833.694 572.745 759.602 572.745Z" fill="url(#paint24_linear_644_1699)" fill-opacity="0.5"/>
<path d="M759.601 610.798C612.141 610.798 610.902 375.074 464.651 375.074C318.399 375.074 316.979 449.401 169.912 449.401C83.9438 449.401 49.9192 424.514 0.181641 401.35L0.876624 399.84C46.6558 421.222 82.4632 447.74 169.912 447.74C316.466 447.74 317.584 373.443 464.651 373.443C538.774 373.443 576.455 433.545 612.715 491.683C648.976 549.821 686.264 609.168 759.481 609.168C905.672 609.168 906.548 373.443 1053.92 373.443C1201.29 373.443 1202.22 479.421 1348.66 479.421C1447.56 479.421 1480.55 431.098 1536 399.87L1536.82 401.289C1481.49 432.367 1448.31 481.082 1348.78 481.082C1201.65 481.082 1200.47 375.074 1054.04 375.074C980.822 375.074 943.564 434.813 907.515 492.559C871.466 550.305 833.755 610.798 759.601 610.798Z" fill="url(#paint25_linear_644_1699)" fill-opacity="0.5"/>
<path d="M759.601 648.883C612.232 648.883 610.721 370.302 464.651 370.302C318.581 370.302 316.919 458.129 169.912 458.129C82.5538 458.129 47.26 427.293 0.151367 401.319L0.937022 399.87C46.6255 425.088 82.1005 456.468 169.912 456.468C316.314 456.468 317.644 368.671 464.651 368.671C538.804 368.671 576.455 439.706 612.715 508.384C648.976 577.063 686.325 647.312 759.48 647.312C905.792 647.312 906.276 368.762 1053.92 368.762C1201.56 368.762 1202.19 494.008 1348.66 494.008C1422.02 494.008 1459.37 462.266 1495.48 431.582C1508.29 420.263 1521.76 409.714 1535.82 399.991L1536.73 401.35C1481.43 438.105 1448.22 495.639 1348.66 495.639C1201.38 495.639 1200.38 370.393 1053.92 370.393C980.731 370.393 943.473 440.974 907.424 509.321C871.375 577.667 833.785 648.883 759.601 648.883Z" fill="url(#paint26_linear_644_1699)" fill-opacity="0.5"/>
</g>
<defs>
<linearGradient id="paint0_linear_644_1699" x1="-264.403" y1="459.008" x2="2004.59" y2="138.454" gradientUnits="userSpaceOnUse">
<stop stop-color="#D844FF"/>
<stop offset="1" stop-color="#28B7FF"/>
</linearGradient>
<linearGradient id="paint1_linear_644_1699" x1="-264.403" y1="452.12" x2="1992.18" y2="91.2969" gradientUnits="userSpaceOnUse">
<stop stop-color="#D844FF"/>
<stop offset="1" stop-color="#28B7FF"/>
</linearGradient>
<linearGradient id="paint2_linear_644_1699" x1="-264.403" y1="445.267" x2="1973.97" y2="33.0588" gradientUnits="userSpaceOnUse">
<stop stop-color="#D844FF"/>
<stop offset="1" stop-color="#28B7FF"/>
</linearGradient>
<linearGradient id="paint3_linear_644_1699" x1="-264.403" y1="438.38" x2="1945.69" y2="-41.4693" gradientUnits="userSpaceOnUse">
<stop stop-color="#D844FF"/>
<stop offset="1" stop-color="#28B7FF"/>
</linearGradient>
<linearGradient id="paint4_linear_644_1699" x1="-264.403" y1="431.533" x2="1898.7" y2="-140.322" gradientUnits="userSpaceOnUse">
<stop stop-color="#D844FF"/>
<stop offset="1" stop-color="#28B7FF"/>
</linearGradient>
<linearGradient id="paint5_linear_644_1699" x1="-264.398" y1="424.646" x2="1812.51" y2="-277.421" gradientUnits="userSpaceOnUse">
<stop stop-color="#D844FF"/>
<stop offset="1" stop-color="#28B7FF"/>
</linearGradient>
<linearGradient id="paint6_linear_644_1699" x1="-264.366" y1="417.846" x2="1633.79" y2="-470.555" gradientUnits="userSpaceOnUse">
<stop stop-color="#D844FF"/>
<stop offset="1" stop-color="#28B7FF"/>
</linearGradient>
<linearGradient id="paint7_linear_644_1699" x1="-264.346" y1="411.652" x2="1208.33" y2="-701.306" gradientUnits="userSpaceOnUse">
<stop stop-color="#D844FF"/>
<stop offset="1" stop-color="#28B7FF"/>
</linearGradient>
<linearGradient id="paint8_linear_644_1699" x1="-264.403" y1="404.363" x2="186.447" y2="-512.222" gradientUnits="userSpaceOnUse">
<stop stop-color="#D844FF"/>
<stop offset="1" stop-color="#28B7FF"/>
</linearGradient>
<linearGradient id="paint9_linear_644_1699" x1="-264.398" y1="524.287" x2="2019.58" y2="261.427" gradientUnits="userSpaceOnUse">
<stop stop-color="#D844FF"/>
<stop offset="1" stop-color="#28B7FF"/>
</linearGradient>
<linearGradient id="paint10_linear_644_1699" x1="-264.357" y1="512.684" x2="2012.96" y2="223.106" gradientUnits="userSpaceOnUse">
<stop stop-color="#D844FF"/>
<stop offset="1" stop-color="#28B7FF"/>
</linearGradient>
<linearGradient id="paint11_linear_644_1699" x1="-264.316" y1="500.9" x2="2003.92" y2="178.527" gradientUnits="userSpaceOnUse">
<stop stop-color="#D844FF"/>
<stop offset="1" stop-color="#28B7FF"/>
</linearGradient>
<linearGradient id="paint12_linear_644_1699" x1="-264.24" y1="489.275" x2="1991.3" y2="126.417" gradientUnits="userSpaceOnUse">
<stop stop-color="#D844FF"/>
<stop offset="1" stop-color="#28B7FF"/>
</linearGradient>
<linearGradient id="paint13_linear_644_1699" x1="-264.199" y1="477.581" x2="1972.66" y2="62.6678" gradientUnits="userSpaceOnUse">
<stop stop-color="#D844FF"/>
<stop offset="1" stop-color="#28B7FF"/>
</linearGradient>
<linearGradient id="paint14_linear_644_1699" x1="-264.118" y1="465.941" x2="1943.78" y2="-17.2598" gradientUnits="userSpaceOnUse">
<stop stop-color="#D844FF"/>
<stop offset="1" stop-color="#28B7FF"/>
</linearGradient>
<linearGradient id="paint15_linear_644_1699" x1="-264.224" y1="454.213" x2="1894.94" y2="-123.061" gradientUnits="userSpaceOnUse">
<stop stop-color="#D844FF"/>
<stop offset="1" stop-color="#28B7FF"/>
</linearGradient>
<linearGradient id="paint16_linear_644_1699" x1="-264.082" y1="442.543" x2="1806.14" y2="-266.878" gradientUnits="userSpaceOnUse">
<stop stop-color="#D844FF"/>
<stop offset="1" stop-color="#28B7FF"/>
</linearGradient>
<linearGradient id="paint17_linear_644_1699" x1="-263.935" y1="430.883" x2="1619.5" y2="-468.699" gradientUnits="userSpaceOnUse">
<stop stop-color="#D844FF"/>
<stop offset="1" stop-color="#28B7FF"/>
</linearGradient>
<linearGradient id="paint18_linear_644_1699" x1="-263.789" y1="419.194" x2="1163.05" y2="-705.184" gradientUnits="userSpaceOnUse">
<stop stop-color="#D844FF"/>
<stop offset="1" stop-color="#28B7FF"/>
</linearGradient>
<linearGradient id="paint19_linear_644_1699" x1="-263.642" y1="408.281" x2="139.658" y2="-469.237" gradientUnits="userSpaceOnUse">
<stop stop-color="#D844FF"/>
<stop offset="1" stop-color="#28B7FF"/>
</linearGradient>
<linearGradient id="paint20_linear_644_1699" x1="-263.681" y1="424.278" x2="134.996" y2="-449.21" gradientUnits="userSpaceOnUse">
<stop stop-color="#D844FF"/>
<stop offset="1" stop-color="#28B7FF"/>
</linearGradient>
<linearGradient id="paint21_linear_644_1699" x1="-263.813" y1="469.245" x2="1176.04" y2="-651.893" gradientUnits="userSpaceOnUse">
<stop stop-color="#D844FF"/>
<stop offset="1" stop-color="#28B7FF"/>
</linearGradient>
<linearGradient id="paint22_linear_644_1699" x1="-263.899" y1="514.302" x2="1627.93" y2="-378.378" gradientUnits="userSpaceOnUse">
<stop stop-color="#D844FF"/>
<stop offset="1" stop-color="#28B7FF"/>
</linearGradient>
<linearGradient id="paint23_linear_644_1699" x1="-264.007" y1="558.935" x2="1806.22" y2="-150.673" gradientUnits="userSpaceOnUse">
<stop stop-color="#D844FF"/>
<stop offset="1" stop-color="#28B7FF"/>
</linearGradient>
<linearGradient id="paint24_linear_644_1699" x1="-264.083" y1="603.998" x2="1895.29" y2="26.9145" gradientUnits="userSpaceOnUse">
<stop stop-color="#D844FF"/>
<stop offset="1" stop-color="#28B7FF"/>
</linearGradient>
<linearGradient id="paint25_linear_644_1699" x1="-264.159" y1="648.943" x2="1943.71" y2="165.483" gradientUnits="userSpaceOnUse">
<stop stop-color="#D844FF"/>
<stop offset="1" stop-color="#28B7FF"/>
</linearGradient>
<linearGradient id="paint26_linear_644_1699" x1="-264.179" y1="693.915" x2="1972.52" y2="279.065" gradientUnits="userSpaceOnUse">
<stop stop-color="#D844FF"/>
<stop offset="1" stop-color="#28B7FF"/>
</linearGradient>
</defs>
</svg>
