<svg width="74" height="74" viewBox="0 0 74 74" fill="none" xmlns="http://www.w3.org/2000/svg">
<path d="M36.9999 0.333374C57.2509 0.333374 73.6666 16.7527 73.6666 37C73.6666 57.2474 57.2509 73.6667 36.9999 73.6667C16.7489 73.6667 0.333252 57.2474 0.333252 37C0.333252 16.7527 16.7489 0.333374 36.9999 0.333374ZM37.0072 48.0147C36.5167 47.9992 36.0281 48.0824 35.5703 48.2594C35.1125 48.4364 34.695 48.7036 34.3425 49.0451C33.9901 49.3866 33.7098 49.7954 33.5184 50.2474C33.327 50.6993 33.2284 51.1851 33.2284 51.6759C33.2284 52.1667 33.327 52.6524 33.5184 53.1044C33.7098 53.5563 33.9901 53.9651 34.3425 54.3067C34.695 54.6482 35.1125 54.9153 35.5703 55.0924C36.0281 55.2694 36.5167 55.3526 37.0072 55.337C37.9582 55.3069 38.8601 54.908 39.5222 54.2247C40.1842 53.5414 40.5544 52.6273 40.5544 51.6759C40.5544 50.7244 40.1842 49.8104 39.5222 49.127C38.8601 48.4437 37.9582 48.0448 37.0072 48.0147ZM36.9999 18.6667C36.1013 18.6669 35.234 18.9972 34.5628 19.5947C33.8916 20.1922 33.4632 21.0155 33.3589 21.908L33.3333 22.3334L33.3406 40.6704L33.3662 41.0994C33.4723 41.9906 33.9014 42.8119 34.5725 43.4079C35.2435 44.0038 36.1098 44.333 37.0072 44.333C37.9047 44.333 38.771 44.0038 39.442 43.4079C40.1131 42.8119 40.5422 41.9906 40.6483 41.0994L40.6739 40.6704L40.6666 22.3334L40.6409 21.9044C40.5358 21.0125 40.1071 20.1901 39.4359 19.5933C38.7648 18.9965 37.898 18.6668 36.9999 18.6667Z" fill="url(#paint0_linear_558_7134)"/>
<defs>
<linearGradient id="paint0_linear_558_7134" x1="-0.836961" y1="88.3334" x2="70.1536" y2="87.6526" gradientUnits="userSpaceOnUse">
<stop stop-color="#F73232" stop-opacity="0.73"/>
<stop offset="0.487842" stop-color="#EB577B" stop-opacity="0.82"/>
<stop offset="1" stop-color="#F35CF6" stop-opacity="0.82"/>
</linearGradient>
</defs>
</svg>
