<svg width="21" height="21" viewBox="0 0 21 21" fill="none" xmlns="http://www.w3.org/2000/svg">
<path fill-rule="evenodd" clip-rule="evenodd" d="M8.07646 7.13697H11.7905V8.98697C12.3255 7.92297 13.6975 6.96697 15.7585 6.96697C19.7095 6.96697 20.6475 9.08497 20.6475 12.971V20.168H16.6475V13.856C16.6475 11.643 16.1125 10.395 14.7505 10.395C12.8615 10.395 12.0765 11.74 12.0765 13.855V20.168H8.07646V7.13697ZM1.21746 19.998H5.21746V6.96697H1.21746V19.998ZM5.79046 2.71797C5.79061 3.05324 5.72412 3.3852 5.59485 3.69456C5.46558 4.00391 5.27611 4.28448 5.03746 4.51997C4.55386 5.00059 3.89927 5.26962 3.21746 5.26797C2.53685 5.26751 1.88377 4.99917 1.39946 4.52097C1.16167 4.28468 0.972847 4.00379 0.843805 3.6944C0.714762 3.38501 0.64804 3.05319 0.647461 2.71797C0.647461 2.04097 0.917461 1.39297 1.40046 0.914969C1.88435 0.436127 2.5377 0.16767 3.21846 0.167969C3.90046 0.167969 4.55446 0.436969 5.03746 0.914969C5.51946 1.39297 5.79046 2.04097 5.79046 2.71797Z" fill="url(#paint0_linear_644_2005)"/>
<defs>
<linearGradient id="paint0_linear_644_2005" x1="0.328312" y1="24.168" x2="18.5571" y2="23.307" gradientUnits="userSpaceOnUse">
<stop stop-color="#495DF4"/>
<stop offset="1" stop-color="#B471FF"/>
</linearGradient>
</defs>
</svg>
