<svg width="24" height="20" viewBox="0 0 24 20" fill="none" xmlns="http://www.w3.org/2000/svg">
<path d="M23.3535 3.12799C22.5185 3.49799 21.6215 3.748 20.6785 3.861C21.6515 3.27879 22.3794 2.36246 22.7265 1.28299C21.8123 1.82598 20.8118 2.20819 19.7685 2.413C19.0668 1.66386 18.1375 1.16732 17.1248 1.00047C16.1121 0.833617 15.0726 1.00579 14.1677 1.49025C13.2628 1.97471 12.5432 2.74436 12.1206 3.6797C11.698 4.61504 11.596 5.66374 11.8305 6.66299C9.97815 6.56999 8.16609 6.08854 6.51189 5.2499C4.85768 4.41126 3.3983 3.23416 2.22846 1.795C1.82846 2.485 1.59846 3.285 1.59846 4.137C1.59801 4.90399 1.78689 5.65924 2.14834 6.33573C2.50979 7.01222 3.03262 7.58903 3.67046 8.015C2.93074 7.99146 2.20733 7.79158 1.56046 7.43199V7.49199C1.56039 8.56774 1.93249 9.61037 2.61364 10.443C3.29479 11.2756 4.24303 11.8469 5.29746 12.06C4.61124 12.2457 3.8918 12.2731 3.19346 12.14C3.49096 13.0656 4.07046 13.875 4.85083 14.4549C5.6312 15.0348 6.57338 15.3562 7.54546 15.374C5.89529 16.6694 3.85735 17.3721 1.75946 17.369C1.38784 17.3691 1.01654 17.3474 0.647461 17.304C2.77694 18.6732 5.2558 19.3998 7.78746 19.397C16.3575 19.397 21.0425 12.299 21.0425 6.14299C21.0425 5.943 21.0375 5.74099 21.0285 5.54099C21.9398 4.88197 22.7264 4.06589 23.3515 3.131L23.3535 3.12799Z" fill="url(#paint0_linear_644_2006)"/>
<defs>
<linearGradient id="paint0_linear_644_2006" x1="0.285131" y1="23.0887" x2="20.9566" y2="21.8877" gradientUnits="userSpaceOnUse">
<stop stop-color="#495DF4"/>
<stop offset="1" stop-color="#B471FF"/>
</linearGradient>
</defs>
</svg>
