<svg width="82" height="8" viewBox="0 0 82 8" fill="none" xmlns="http://www.w3.org/2000/svg">
<path d="M81 4.72168C81.2761 4.72168 81.5 4.49782 81.5 4.22168C81.5 3.94554 81.2761 3.72168 81 3.72168V4.72168ZM0.646447 3.86813C0.451184 4.06339 0.451184 4.37997 0.646447 4.57523L3.82843 7.75721C4.02369 7.95248 4.34027 7.95248 4.53553 7.75721C4.7308 7.56195 4.7308 7.24537 4.53553 7.05011L1.70711 4.22168L4.53553 1.39325C4.7308 1.19799 4.7308 0.881408 4.53553 0.686146C4.34027 0.490884 4.02369 0.490884 3.82843 0.686146L0.646447 3.86813ZM81 3.72168H1V4.72168H81V3.72168Z" fill="url(#paint0_linear_644_1756)"/>
<defs>
<linearGradient id="paint0_linear_644_1756" x1="-0.276596" y1="5.42168" x2="4.50653" y2="-12.6521" gradientUnits="userSpaceOnUse">
<stop stop-color="#495DF4"/>
<stop offset="1" stop-color="#B471FF"/>
</linearGradient>
</defs>
</svg>
