<svg width="32" height="32" viewBox="0 0 32 32" fill="none" xmlns="http://www.w3.org/2000/svg">
<path d="M16.1955 5.36979C16.7742 5.16045 17.0737 4.52158 16.8643 3.94283C16.655 3.36407 16.0161 3.06461 15.4374 3.27394L16.1955 5.36979ZM29.1722 17.1428C29.278 16.5365 28.8722 15.9593 28.2659 15.8535C27.6596 15.7478 27.0824 16.1536 26.9766 16.7599L29.1722 17.1428ZM29.5605 7.66496C29.5605 10.3319 27.3986 12.4939 24.7316 12.4939V14.7226C28.6295 14.7226 31.7893 11.5628 31.7893 7.66496H29.5605ZM24.7316 12.4939C22.0647 12.4939 19.9027 10.3319 19.9027 7.66496H17.674C17.674 11.5628 20.8338 14.7226 24.7316 14.7226V12.4939ZM19.9027 7.66496C19.9027 4.99802 22.0647 2.83604 24.7316 2.83604V0.607314C20.8338 0.607314 17.674 3.76713 17.674 7.66496H19.9027ZM24.7316 2.83604C27.3986 2.83604 29.5605 4.99802 29.5605 7.66496H31.7893C31.7893 3.76713 28.6295 0.607314 24.7316 0.607314V2.83604ZM19.1598 19.923C19.1598 24.026 15.8337 27.3521 11.7307 27.3521V29.5808C17.0646 29.5808 21.3885 25.2569 21.3885 19.923H19.1598ZM11.7307 27.3521C7.62772 27.3521 4.3016 24.026 4.3016 19.923H2.07287C2.07287 25.2569 6.39683 29.5808 11.7307 29.5808V27.3521ZM4.3016 19.923C4.3016 15.82 7.62772 12.4939 11.7307 12.4939V10.2651C6.39683 10.2651 2.07287 14.5891 2.07287 19.923H4.3016ZM11.7307 12.4939C15.8337 12.4939 19.1598 15.82 19.1598 19.923H21.3885C21.3885 14.5891 17.0646 10.2651 11.7307 10.2651V12.4939ZM15.4374 3.27394C6.53691 6.4933 2.16743 11.0716 1.12866 15.8803C0.0926293 20.6762 2.46971 25.2459 6.052 28.2106C9.63262 31.1739 14.6484 32.7342 19.2325 31.294C23.8936 29.8296 27.7335 25.3917 29.1722 17.1428L26.9766 16.7599C25.6296 24.4835 22.1798 28.0319 18.5645 29.1677C14.8723 30.3277 10.6249 29.1021 7.47296 26.4936C4.32264 23.8864 2.4976 20.0984 3.30714 16.3509C4.11395 12.616 7.63774 8.46517 16.1955 5.36979L15.4374 3.27394Z" fill="#FBFBFF"/>
</svg>
